<?xml version="1.0" encoding="utf-8"?>
<!-- Generator: Adobe Illustrator 18.0.0, SVG Export Plug-In . SVG Version: 6.00 Build 0)  -->
<!DOCTYPE svg PUBLIC "-//W3C//DTD SVG 1.1//EN" "http://www.w3.org/Graphics/SVG/1.1/DTD/svg11.dtd">
<svg version="1.1" id="Calque_1" xmlns="http://www.w3.org/2000/svg" xmlns:xlink="http://www.w3.org/1999/xlink" x="0px" y="0px"
	 viewBox="0 0 480.3 479.4" style="enable-background:new 0 0 480.3 479.4;" xml:space="preserve">
<rect x="8.8" y="8.3" style="fill:#D4428C;" width="59.1" height="59.1"/>
<rect x="67.9" y="8.3" style="fill:#DD3A7A;" width="59.1" height="59.1"/>
<rect x="126.7" y="7.6" style="fill:#E54371;" width="57.8" height="59.1"/>
<rect x="185" y="7.9" style="fill:#EA5074;" width="55.8" height="59"/>
<rect x="240.8" y="7.9" style="fill:#EC5B6F;" width="57.4" height="59.4"/>
<rect x="298.6" y="7.7" style="fill:#EE6569;" width="57.4" height="59.4"/>
<rect x="356.3" y="7.7" style="fill:#EF6B66;" width="57.4" height="59.4"/>
<rect x="414.2" y="7.9" style="fill:#F3786A;" width="57.4" height="59.4"/>
<rect x="8.8" y="68" style="fill:#B74699;" width="59.1" height="56.8"/>
<rect x="67.9" y="68" style="fill:#CA3792;" width="59.1" height="56.5"/>
<rect x="126.7" y="67.6" style="fill:#D83D80;" width="57.8" height="56.3"/>
<rect x="185" y="67.6" style="fill:#E44F75;" width="55.8" height="57.1"/>
<rect x="240.8" y="67.6" style="fill:#E06177;" width="57.4" height="57.7"/>
<rect x="298.6" y="67.4" style="fill:#DD6B72;" width="57.4" height="57.3"/>
<rect x="356.3" y="67.4" style="fill:#D8706D;" width="57.4" height="57.2"/>
<rect x="414.2" y="67.6" style="fill:#D77B72;" width="57.4" height="56.9"/>
<rect x="5.6" y="125.9" style="fill:#8D53A1;" width="63" height="56.8"/>
<rect x="68.5" y="125.9" style="fill:#A24D9D;" width="59.1" height="56.5"/>
<rect x="127.3" y="125.5" style="fill:#BE4E9D;" width="57.8" height="56.7"/>
<rect x="184.6" y="125.5" style="fill:#CC5F8E;" width="55.8" height="57.1"/>
<rect x="241.4" y="124.5" style="fill:#CB7286;" width="57.4" height="57.7"/>
<rect x="299.2" y="125.3" style="fill:#BD7D85;" width="57.4" height="57.3"/>
<rect x="356.9" y="125.3" style="fill:#B78486;" width="57.4" height="57.2"/>
<rect x="414.8" y="125.5" style="fill:#B3908C;" width="57.4" height="56.9"/>
<rect x="6.1" y="182.5" style="fill:#7A57A4;" width="62.5" height="56.8"/>
<rect x="68.5" y="182.5" style="fill:#8558A4;" width="59.1" height="56.5"/>
<rect x="127.4" y="183.2" style="fill:#9762A8;" width="57.8" height="56.7"/>
<rect x="184.6" y="182.2" style="fill:#A775B0;" width="55.8" height="57.1"/>
<rect x="241.4" y="182.1" style="fill:#A48CA7;" width="57.4" height="57.7"/>
<rect x="299.2" y="181.9" style="fill:#9899A2;" width="57.4" height="57.3"/>
<rect x="356.9" y="181.9" style="fill:#89A2A8;" width="57.4" height="57.2"/>
<rect x="414.8" y="182.1" style="fill:#82A8AC;" width="57.4" height="56.9"/>
<rect x="8.9" y="239.6" style="fill:#715BA7;" width="59.1" height="56.8"/>
<rect x="68" y="239.6" style="fill:#7460AA;" width="59.1" height="56.5"/>
<rect x="126.8" y="240.3" style="fill:#7C71B4;" width="57.8" height="56.7"/>
<rect x="185.1" y="239.3" style="fill:#838EC6;" width="55.8" height="57.1"/>
<rect x="240.9" y="239.2" style="fill:#7CA4C3;" width="57.4" height="57.7"/>
<rect x="298.7" y="239" style="fill:#6AB3C3;" width="57.4" height="57.3"/>
<rect x="356.4" y="239" style="fill:#51C0C9;" width="57.4" height="57.2"/>
<rect x="414.3" y="239.2" style="fill:#49C1CA;" width="57.4" height="56.9"/>
<rect x="8.8" y="296.5" style="fill:#6A5DA8;" width="59.1" height="56.8"/>
<rect x="67.9" y="296.5" style="fill:#6468AF;" width="59.1" height="56.5"/>
<rect x="126.7" y="297.1" style="fill:#687DBD;" width="57.8" height="56.7"/>
<rect x="185" y="297.1" style="fill:#679CD3;" width="55.8" height="57.1"/>
<rect x="240.8" y="297.1" style="fill:#58B9DC;" width="57.4" height="57.7"/>
<rect x="298.6" y="296.9" style="fill:#3DC2D4;" width="57.4" height="57.3"/>
<rect x="356.3" y="296.9" style="fill:#47C3D1;" width="57.4" height="57.2"/>
<rect x="414.2" y="297.1" style="fill:#49C4D4;" width="57.4" height="56.9"/>
<rect x="8.3" y="354.6" style="fill:#5964AD;" width="60.1" height="56.8"/>
<rect x="68.4" y="354.6" style="fill:#516DB4;" width="59.1" height="56.5"/>
<rect x="127.2" y="355.2" style="fill:#5187C6;" width="57.8" height="56.7"/>
<rect x="185.5" y="354.2" style="fill:#49A8DE;" width="55.8" height="57.1"/>
<rect x="241.3" y="354.2" style="fill:#36C3E7;" width="57.4" height="57.7"/>
<rect x="299.1" y="354" style="fill:#4BC5D9;" width="57.4" height="57.3"/>
<rect x="356.8" y="354" style="fill:#55C6D5;" width="57.4" height="57.2"/>
<rect x="414.7" y="354.2" style="fill:#5CC7D4;" width="57.4" height="56.9"/>
<rect x="6.5" y="412.5" style="fill:#4469B2;" width="62.1" height="58.8"/>
<rect x="68.5" y="412.5" style="fill:#4373B9;" width="59.1" height="59.2"/>
<rect x="127.3" y="413.2" style="fill:#4890CD;" width="57.8" height="58.2"/>
<rect x="185.6" y="413.2" style="fill:#49AFE3;" width="55.8" height="59"/>
<rect x="241.4" y="413.1" style="fill:#41C5EB;" width="57.4" height="57.7"/>
<rect x="299.2" y="412.9" style="fill:#50C6DD;" width="57.4" height="58.8"/>
<rect x="356.9" y="412.9" style="fill:#59C7D7;" width="57.4" height="58.9"/>
<rect x="414.8" y="413.1" style="fill:#60C8D6;" width="57.4" height="57.8"/>
<rect x="4.5" y="4" style="fill:none;stroke:#000000;stroke-width:9;stroke-miterlimit:10;" width="471.5" height="470.9"/>
<g>
	<g>
		<line style="fill:none;stroke:#000000;stroke-width:3;stroke-miterlimit:10;" x1="126.4" y1="237.1" x2="126.4" y2="470.6"/>
		<line style="fill:none;stroke:#000000;stroke-width:3;stroke-miterlimit:10;" x1="68.7" y1="237.2" x2="68.7" y2="470.7"/>
		<line style="fill:none;stroke:#000000;stroke-width:3;stroke-miterlimit:10;" x1="184.3" y1="237.1" x2="184.3" y2="470.6"/>
		<line style="fill:none;stroke:#000000;stroke-width:3;stroke-miterlimit:10;" x1="8.8" y1="296.3" x2="242.1" y2="296.3"/>
		<line style="fill:none;stroke:#000000;stroke-width:3;stroke-miterlimit:10;" x1="8.6" y1="411.8" x2="242.1" y2="411.8"/>
		<line style="fill:none;stroke:#000000;stroke-width:3;stroke-miterlimit:10;" x1="8.7" y1="353.9" x2="242.1" y2="353.9"/>
	</g>
	<g>
		<line style="fill:none;stroke:#000000;stroke-width:3;stroke-miterlimit:10;" x1="356.3" y1="237.2" x2="356.3" y2="470.6"/>
		<line style="fill:none;stroke:#000000;stroke-width:3;stroke-miterlimit:10;" x1="298.6" y1="237.2" x2="298.6" y2="470.7"/>
		<line style="fill:none;stroke:#000000;stroke-width:3;stroke-miterlimit:10;" x1="414.2" y1="237.2" x2="414.2" y2="470.6"/>
		<line style="fill:none;stroke:#000000;stroke-width:3;stroke-miterlimit:10;" x1="238.7" y1="296.3" x2="472" y2="296.3"/>
		<line style="fill:none;stroke:#000000;stroke-width:3;stroke-miterlimit:10;" x1="238.5" y1="411.8" x2="472" y2="411.8"/>
		<line style="fill:none;stroke:#000000;stroke-width:3;stroke-miterlimit:10;" x1="238.6" y1="353.9" x2="471.9" y2="353.9"/>
	</g>
	<g>
		<line style="fill:none;stroke:#000000;stroke-width:3;stroke-miterlimit:10;" x1="126.4" y1="8.3" x2="126.4" y2="241.7"/>
		<line style="fill:none;stroke:#000000;stroke-width:3;stroke-miterlimit:10;" x1="68.7" y1="8.3" x2="68.7" y2="241.8"/>
		<line style="fill:none;stroke:#000000;stroke-width:3;stroke-miterlimit:10;" x1="184.3" y1="8.3" x2="184.3" y2="241.7"/>
		<line style="fill:none;stroke:#000000;stroke-width:3;stroke-miterlimit:10;" x1="8.8" y1="67.4" x2="242.1" y2="67.4"/>
		<line style="fill:none;stroke:#000000;stroke-width:3;stroke-miterlimit:10;" x1="8.6" y1="182.9" x2="242.1" y2="182.9"/>
		<line style="fill:none;stroke:#000000;stroke-width:3;stroke-miterlimit:10;" x1="8.7" y1="125" x2="242.1" y2="125"/>
	</g>
	<g>
		<line style="fill:none;stroke:#000000;stroke-width:3;stroke-miterlimit:10;" x1="356.3" y1="8.3" x2="356.3" y2="241.7"/>
		<line style="fill:none;stroke:#000000;stroke-width:3;stroke-miterlimit:10;" x1="298.6" y1="8.3" x2="298.6" y2="241.8"/>
		<line style="fill:none;stroke:#000000;stroke-width:3;stroke-miterlimit:10;" x1="414.2" y1="8.3" x2="414.2" y2="241.7"/>
		<line style="fill:none;stroke:#000000;stroke-width:3;stroke-miterlimit:10;" x1="238.7" y1="67.4" x2="472" y2="67.4"/>
		<line style="fill:none;stroke:#000000;stroke-width:3;stroke-miterlimit:10;" x1="238.5" y1="183" x2="472" y2="183"/>
		<line style="fill:none;stroke:#000000;stroke-width:3;stroke-miterlimit:10;" x1="238.6" y1="125" x2="472" y2="125"/>
	</g>
	<line style="fill:none;stroke:#000000;stroke-width:3;stroke-miterlimit:10;" x1="240.8" y1="8.2" x2="240.8" y2="470.7"/>
	<line style="fill:none;stroke:#000000;stroke-width:3;stroke-miterlimit:10;" x1="8.8" y1="239.5" x2="473.4" y2="239.5"/>
</g>
</svg>
