<?xml version="1.0" encoding="utf-8"?>
<!-- Generator: Adobe Illustrator 18.0.0, SVG Export Plug-In . SVG Version: 6.00 Build 0)  -->
<!DOCTYPE svg PUBLIC "-//W3C//DTD SVG 1.1//EN" "http://www.w3.org/Graphics/SVG/1.1/DTD/svg11.dtd">
<svg version="1.1" id="Calque_1" xmlns="http://www.w3.org/2000/svg" xmlns:xlink="http://www.w3.org/1999/xlink" x="0px" y="0px"
	 viewBox="0 0 1360.6 907.1" style="enable-background:new 0 0 1360.6 907.1;" xml:space="preserve">
<g style="enable-background:new    ;">
	<path d="M576.6,337.4h2.4c0.2,1.2,0.7,2.3,1.5,3.1c0.9,0.8,2.1,1.2,3.6,1.2c1.7,0,3.1-0.4,4.1-1.3c1-0.9,1.5-2,1.4-3.4
		c0-1.4-0.5-2.5-1.5-3.3c-1-0.8-2.3-1.2-4-1.2h-2.4v-2.3h2.2c1.4,0,2.6-0.4,3.5-1.2c0.9-0.8,1.3-1.9,1.3-3.1c0-1.2-0.4-2.2-1.3-3
		c-0.8-0.8-1.9-1.1-3.3-1.1c-0.7,0-1.4,0.1-2,0.4c-0.6,0.2-1.1,0.6-1.4,1c-0.3,0.4-0.6,0.8-0.8,1.3c-0.2,0.4-0.3,0.9-0.3,1.4h-2.5
		c0-0.8,0.2-1.5,0.5-2.2c0.3-0.7,0.7-1.4,1.3-2c0.6-0.6,1.3-1.1,2.2-1.5c0.9-0.4,1.9-0.6,3.1-0.6c2.1,0,3.9,0.6,5.2,1.7
		c1.3,1.1,2,2.5,2,4.3c0,1.6-0.4,2.9-1.3,3.9c-0.9,1.1-1.9,1.7-3,1.8v0c0.6,0.1,1.1,0.2,1.7,0.4s1.1,0.6,1.7,1c0.5,0.4,1,1,1.3,1.8
		c0.4,0.7,0.5,1.6,0.5,2.5c0,2-0.7,3.7-2.3,5c-1.6,1.3-3.5,2-5.9,2c-1.2,0-2.3-0.2-3.2-0.5c-1-0.3-1.7-0.8-2.3-1.4
		c-0.6-0.6-1.1-1.3-1.4-2.1C576.8,339.1,576.7,338.3,576.6,337.4z"/>
	<polygon points="599.4,322.2 599.4,319.9 614,319.9 614,322.3 604.3,343.3 601.6,343.3 611.5,322.2 611.5,322.2 	"/>
	<path d="M623.4,332.5c0,2.9,0.5,5.1,1.5,6.7c1,1.6,2.3,2.4,4.1,2.4c1.7,0,3.1-0.8,4.1-2.4c1-1.6,1.5-3.8,1.5-6.7v-1.8
		c0-2.9-0.5-5.1-1.5-6.7c-1-1.6-2.3-2.4-4.1-2.4c-1.7,0-3.1,0.8-4.1,2.4c-1,1.6-1.5,3.8-1.5,6.7V332.5z M620.9,332.6v-1.9
		c0-3.5,0.7-6.3,2.1-8.3c1.4-2,3.4-3,6-3c2.6,0,4.6,1,5.9,3c1.4,2,2.1,4.8,2.1,8.3v1.9c0,3.5-0.7,6.3-2.1,8.3c-1.4,2-3.4,3-5.9,3
		c-2.6,0-4.6-1-6-3C621.6,338.8,620.9,336.1,620.9,332.6z"/>
	<path d="M663.2,341.2c1.4-0.1,2.6-0.5,3.4-1.3c0.8-0.7,1.3-1.7,1.3-2.9c0-1-0.3-1.8-0.9-2.5c-0.6-0.7-1.7-1.2-3.2-1.7
		c-0.1,0-0.3-0.1-0.6-0.1V341.2z M656.9,325.7c0,1.7,1,2.9,3.1,3.6c0.4,0.2,0.8,0.3,1.1,0.3v-7.9c-1.3,0.1-2.3,0.6-3,1.2
		C657.3,323.8,656.9,324.6,656.9,325.7z M653.9,337h2.5c0.1,1.1,0.5,2.1,1.3,2.8c0.8,0.7,2,1.2,3.4,1.4v-8.9l-1.3-0.4
		c-0.7-0.2-1.4-0.4-2-0.7c-0.6-0.3-1.2-0.7-1.7-1.1c-0.5-0.5-0.9-1-1.2-1.7c-0.3-0.7-0.4-1.5-0.4-2.3c0-1.9,0.6-3.3,1.8-4.4
		c1.2-1.1,2.8-1.7,4.8-1.9v-2.3h2.1v2.2c1.9,0.2,3.5,0.8,4.8,1.9c1.3,1.1,1.9,2.5,2,4.3h-2.4c0-1-0.4-1.9-1.2-2.6
		c-0.8-0.7-1.8-1.2-3.1-1.3v8.4l1.3,0.3c1.9,0.5,3.4,1.3,4.4,2.2c1,1,1.5,2.3,1.5,4c0,1.3-0.3,2.5-1,3.4c-0.6,1-1.5,1.7-2.5,2.2
		c-1.1,0.5-2.3,0.8-3.6,0.9v2.2h-2.1v-2.2c-2.3-0.2-4.1-0.8-5.3-2.1C654.5,340.1,653.9,338.7,653.9,337z"/>
	<path style="fill:#474FDE;" d="M839.7,640.6v-2.8c1.8-1.3,3.8-2.5,5.8-3.6h2.3v23.5h-2.5v-20.5h0c-0.6,0.3-1.5,0.8-2.7,1.6
		C841.3,639.5,840.4,640.1,839.7,640.6z"/>
	<path style="fill:#474FDE;" d="M861.5,637.2c-0.9,0.8-1.3,1.8-1.3,3c0,1.2,0.4,2.2,1.3,3c0.9,0.8,2,1.2,3.4,1.2
		c1.4,0,2.5-0.4,3.4-1.2c0.9-0.8,1.3-1.8,1.3-3c0-1.2-0.4-2.2-1.3-3c-0.9-0.8-2-1.2-3.4-1.2S862.4,636.4,861.5,637.2z M860.9,647.9
		c-1.1,0.9-1.6,2-1.6,3.4c0,1.4,0.5,2.5,1.6,3.4c1.1,0.9,2.4,1.3,4,1.3c1.6,0,3-0.4,4-1.3c1.1-0.9,1.6-2,1.6-3.4
		c0-1.4-0.5-2.5-1.6-3.4c-1.1-0.9-2.4-1.3-4-1.3C863.3,646.5,861.9,647,860.9,647.9z M856.8,651.3c0-0.9,0.2-1.7,0.5-2.4
		c0.3-0.7,0.7-1.3,1.2-1.8c0.5-0.5,1-0.8,1.5-1.1c0.5-0.3,1-0.5,1.6-0.6v0c-0.4-0.1-0.8-0.4-1.3-0.6c-0.4-0.3-0.8-0.6-1.2-1
		c-0.4-0.4-0.7-0.9-1-1.6c-0.2-0.6-0.4-1.3-0.4-2.1c0-1.8,0.7-3.3,2-4.5c1.4-1.2,3.1-1.8,5.2-1.8s3.8,0.6,5.1,1.8
		c1.4,1.2,2.1,2.7,2.1,4.5c0,0.8-0.1,1.4-0.4,2.1c-0.2,0.6-0.6,1.2-1,1.6c-0.4,0.4-0.8,0.8-1.2,1c-0.4,0.3-0.8,0.5-1.2,0.6v0
		c0.4,0.1,0.8,0.3,1.2,0.5c0.4,0.2,0.8,0.5,1.3,0.8c0.4,0.3,0.8,0.7,1.1,1.2c0.3,0.4,0.6,1,0.8,1.6c0.2,0.6,0.3,1.3,0.3,2
		c0,2-0.8,3.7-2.3,5c-1.5,1.3-3.5,1.9-5.9,1.9c-2.3,0-4.3-0.6-5.8-1.9C857.5,655,856.8,653.4,856.8,651.3z"/>
	<path style="fill:#474FDE;" d="M899.3,655.6c1.4-0.1,2.6-0.6,3.4-1.3c0.8-0.7,1.3-1.7,1.3-2.9c0-1-0.3-1.8-0.9-2.5
		c-0.6-0.6-1.7-1.2-3.2-1.7c-0.1,0-0.3-0.1-0.6-0.1V655.6z M893,640.1c0,1.6,1,2.9,3.1,3.6c0.4,0.1,0.8,0.3,1.1,0.3v-7.9
		c-1.3,0.1-2.3,0.6-3,1.2C893.4,638.1,893,639,893,640.1z M890,651.4h2.5c0.1,1.1,0.5,2,1.3,2.8c0.8,0.7,2,1.2,3.4,1.3v-8.9
		l-1.3-0.4c-0.7-0.2-1.4-0.4-2-0.7c-0.6-0.3-1.2-0.7-1.7-1.2c-0.5-0.5-0.9-1-1.2-1.7c-0.3-0.7-0.4-1.5-0.4-2.3
		c0-1.9,0.6-3.3,1.8-4.4c1.2-1.1,2.8-1.7,4.8-1.9v-2.3h2.1v2.2c1.9,0.2,3.5,0.8,4.8,1.9c1.3,1.1,1.9,2.5,2,4.3h-2.4
		c0-1-0.4-1.9-1.2-2.6c-0.8-0.7-1.8-1.2-3.1-1.3v8.4l1.3,0.3c1.9,0.5,3.4,1.3,4.4,2.2c1,1,1.5,2.3,1.5,4c0,1.3-0.3,2.5-1,3.4
		c-0.6,1-1.5,1.7-2.5,2.2c-1.1,0.5-2.3,0.8-3.6,0.9v2.2h-2.1v-2.2c-2.3-0.2-4.1-0.8-5.3-2C890.6,654.5,890,653.1,890,651.4z"/>
	<path d="M1101.4,657.5c0,1.7,0.5,3.1,1.6,4.1c1.1,1,2.3,1.5,3.9,1.5c1.5,0,2.7-0.5,3.8-1.4c1.1-1,1.6-2.3,1.6-4.1
		c0-0.9-0.2-1.7-0.5-2.4c-0.3-0.7-0.7-1.3-1.2-1.8c-0.5-0.4-1.1-0.8-1.7-1c-0.6-0.2-1.3-0.4-2-0.4c-1.5,0-2.8,0.5-3.9,1.5
		C1101.9,654.4,1101.4,655.8,1101.4,657.5z M1098.5,654.2c0-4.3,0.8-7.6,2.4-9.9c1.6-2.2,3.7-3.4,6.3-3.4c1,0,1.9,0.2,2.8,0.5
		c0.9,0.3,1.6,0.8,2.1,1.4c0.6,0.6,1,1.2,1.4,1.9c0.3,0.7,0.6,1.4,0.6,2.1h-2.6c-0.1-0.9-0.5-1.7-1.3-2.4c-0.8-0.8-1.8-1.1-3.1-1.1
		c-0.8,0-1.6,0.2-2.3,0.6c-0.7,0.4-1.3,1-1.9,1.8c-0.6,0.8-1,1.8-1.4,3.2c-0.3,1.3-0.5,2.8-0.6,4.6h0c0.4-1,1.1-1.9,2.2-2.6
		c1.1-0.7,2.4-1.1,3.8-1.1c1,0,1.9,0.2,2.8,0.5c0.9,0.3,1.7,0.8,2.5,1.5c0.7,0.6,1.3,1.4,1.8,2.4c0.4,1,0.7,2.1,0.7,3.3
		c0,1.6-0.4,3-1.1,4.3c-0.7,1.2-1.7,2.1-2.9,2.8c-1.2,0.6-2.5,0.9-4,0.9c-2.6,0-4.6-0.9-6.1-2.8
		C1099.2,660.7,1098.5,657.9,1098.5,654.2z"/>
	<polygon points="1119.7,668.8 1121.6,662.1 1124.4,662.1 1121.5,668.8 	"/>
	<path d="M1132.2,659h2.5c0.2,1.3,0.7,2.2,1.7,3c0.9,0.7,2.1,1.1,3.6,1.1c0.7,0,1.3-0.1,1.9-0.4c0.6-0.3,1.2-0.6,1.8-1.1
		c0.5-0.5,1-1.1,1.3-1.8c0.3-0.8,0.5-1.6,0.5-2.4c0-1.7-0.5-3.1-1.6-4.1c-1-1-2.3-1.6-3.9-1.6c-1.4,0-2.5,0.3-3.4,0.9
		c-0.9,0.6-1.5,1.4-1.9,2.3h-2.2l1.3-13.5h12.5v2.3H1136l-0.9,7.9h0c0.4-0.5,1-1,2-1.4c1-0.5,2-0.7,3.2-0.7c2.2,0,4,0.7,5.5,2.2
		c1.5,1.5,2.2,3.4,2.2,5.6c0,2.4-0.8,4.3-2.4,5.8c-1.6,1.5-3.5,2.3-5.9,2.3c-1.2,0-2.2-0.2-3.2-0.5c-0.9-0.4-1.7-0.8-2.3-1.4
		c-0.6-0.6-1.1-1.3-1.4-2C1132.4,660.7,1132.2,659.9,1132.2,659z"/>
	<path d="M1174.4,662.7c1.4-0.1,2.6-0.6,3.4-1.3c0.8-0.7,1.3-1.7,1.3-2.9c0-1-0.3-1.8-0.9-2.5c-0.6-0.7-1.7-1.2-3.2-1.7
		c-0.1,0-0.3-0.1-0.5-0.1V662.7z M1168.2,647.2c0,1.7,1,2.9,3.1,3.6c0.4,0.1,0.8,0.3,1,0.3v-7.9c-1.3,0.1-2.3,0.6-3,1.2
		C1168.5,645.3,1168.2,646.1,1168.2,647.2z M1165.1,658.5h2.5c0.1,1.1,0.5,2,1.3,2.8c0.8,0.7,2,1.2,3.4,1.4v-8.9l-1.3-0.4
		c-0.7-0.2-1.4-0.4-2-0.7c-0.6-0.3-1.2-0.7-1.7-1.1c-0.5-0.5-0.9-1-1.2-1.7c-0.3-0.7-0.4-1.5-0.4-2.3c0-1.9,0.6-3.3,1.8-4.4
		c1.2-1.1,2.8-1.7,4.8-1.9v-2.3h2.1v2.2c1.9,0.2,3.5,0.8,4.8,1.9c1.3,1.1,1.9,2.5,2,4.3h-2.4c0-1-0.4-1.9-1.2-2.6
		c-0.8-0.7-1.8-1.2-3.1-1.3v8.4l1.3,0.3c1.9,0.5,3.4,1.3,4.4,2.2c1,1,1.5,2.3,1.5,4c0,1.3-0.3,2.5-1,3.4c-0.6,1-1.5,1.7-2.5,2.2
		c-1.1,0.5-2.3,0.8-3.6,0.9v2.2h-2.1v-2.2c-2.3-0.2-4.1-0.8-5.3-2.1C1165.8,661.6,1165.1,660.2,1165.1,658.5z"/>
	<path d="M145.3,142.5v-2.8c1.8-1.3,3.8-2.5,5.8-3.6h2.3v23.4h-2.5v-20.5h0c-0.6,0.3-1.5,0.8-2.7,1.6C147,141.4,146,142,145.3,142.5
		z"/>
	<path d="M162.6,142.5L162.6,142.5c0-1,0.2-1.8,0.5-2.6c0.3-0.8,0.8-1.5,1.4-2.1c0.6-0.6,1.4-1.1,2.3-1.5c0.9-0.4,2-0.6,3.1-0.6
		c2.1,0,3.9,0.6,5.2,1.8c1.3,1.2,1.9,2.7,1.9,4.6c0,0.7-0.1,1.3-0.3,1.9c-0.2,0.6-0.5,1.2-0.8,1.8c-0.4,0.6-0.7,1.1-1.1,1.6
		c-0.4,0.5-0.9,1.1-1.4,1.7c-0.1,0.1-0.2,0.2-0.2,0.3l-6.7,7.9v0h11.1v2.3h-14.7v-1.6l8.9-10.4c0.4-0.5,0.8-0.9,1-1.2
		c0.2-0.3,0.5-0.7,0.8-1.2c0.3-0.5,0.5-1,0.7-1.5c0.2-0.5,0.2-1,0.2-1.6c0-1.3-0.4-2.3-1.3-3.1c-0.8-0.8-1.9-1.2-3.3-1.2
		c-1.4,0-2.6,0.4-3.4,1.3c-0.8,0.9-1.3,1.9-1.3,3.2v0.1H162.6z"/>
	<path d="M186.8,152.2h8.8v-13.8h0C191.9,143.8,189,148.4,186.8,152.2L186.8,152.2z M184.2,154.5v-2.2c0.8-1.4,1.8-3,2.9-4.8
		c1.1-1.8,2.5-3.9,4.1-6.5c1.7-2.6,2.7-4.2,3.1-4.8h3.8v16.1h3.1v2.3H198v5h-2.5v-5H184.2z"/>
	<path d="M210.3,152.2c0,1.7,0.5,3.1,1.6,4.1c1.1,1,2.3,1.5,3.9,1.5c1.5,0,2.7-0.5,3.8-1.4c1.1-1,1.6-2.3,1.6-4.1
		c0-0.9-0.2-1.7-0.5-2.4c-0.3-0.7-0.7-1.3-1.2-1.8c-0.5-0.4-1.1-0.8-1.7-1c-0.6-0.2-1.3-0.4-2-0.4c-1.5,0-2.8,0.5-3.9,1.5
		C210.9,149.2,210.3,150.5,210.3,152.2z M207.4,148.9c0-4.3,0.8-7.6,2.4-9.9c1.6-2.2,3.7-3.4,6.3-3.4c1,0,1.9,0.2,2.8,0.5
		c0.9,0.3,1.6,0.8,2.1,1.3c0.6,0.6,1,1.2,1.4,1.9c0.3,0.7,0.6,1.4,0.6,2.1h-2.6c-0.1-0.9-0.5-1.7-1.3-2.4c-0.8-0.8-1.8-1.2-3.1-1.2
		c-0.8,0-1.6,0.2-2.3,0.6c-0.7,0.4-1.3,1-1.9,1.8c-0.6,0.8-1,1.8-1.4,3.1c-0.3,1.3-0.5,2.9-0.6,4.6h0c0.4-1,1.1-1.9,2.2-2.6
		c1.1-0.7,2.4-1.1,3.8-1.1c1,0,1.9,0.2,2.8,0.5c0.9,0.3,1.7,0.8,2.5,1.5c0.7,0.6,1.3,1.4,1.8,2.4c0.4,1,0.7,2.1,0.7,3.3
		c0,1.6-0.4,3-1.1,4.3c-0.7,1.2-1.7,2.1-2.9,2.8c-1.2,0.6-2.5,0.9-4,0.9c-2.6,0-4.6-0.9-6.1-2.8
		C208.2,155.4,207.4,152.6,207.4,148.9z"/>
	<path d="M249.5,157.4c1.4-0.1,2.6-0.6,3.4-1.3c0.8-0.7,1.3-1.7,1.3-2.9c0-1-0.3-1.8-0.9-2.5c-0.6-0.6-1.7-1.2-3.2-1.7
		c-0.1,0-0.3-0.1-0.6-0.1V157.4z M243.2,142c0,1.6,1,2.9,3.1,3.6c0.4,0.1,0.8,0.3,1.1,0.3v-7.9c-1.3,0.1-2.3,0.5-3,1.2
		C243.6,140,243.2,140.9,243.2,142z M240.2,153.3h2.5c0.1,1.1,0.5,2.1,1.3,2.8c0.8,0.7,2,1.2,3.4,1.3v-8.9l-1.3-0.4
		c-0.7-0.2-1.4-0.4-2-0.7c-0.6-0.3-1.2-0.7-1.7-1.2c-0.5-0.5-0.9-1-1.2-1.7c-0.3-0.7-0.4-1.5-0.4-2.3c0-1.9,0.6-3.3,1.8-4.4
		c1.2-1.1,2.8-1.7,4.8-1.9v-2.3h2.1v2.2c1.9,0.2,3.5,0.8,4.8,1.9c1.3,1.1,1.9,2.5,2,4.3h-2.4c0-1-0.4-1.9-1.2-2.6
		c-0.8-0.7-1.8-1.2-3.1-1.3v8.4l1.3,0.3c1.9,0.5,3.4,1.3,4.4,2.2c1,1,1.5,2.3,1.5,4c0,1.3-0.3,2.5-1,3.4c-0.6,1-1.5,1.7-2.5,2.2
		c-1,0.5-2.3,0.8-3.6,0.9v2.2h-2.1v-2.2c-2.3-0.2-4.1-0.8-5.3-2.1C240.8,156.4,240.2,154.9,240.2,153.3z"/>
	<path d="M374.3,230h8.8v-13.8h0C379.4,221.6,376.5,226.2,374.3,230L374.3,230z M371.6,232.3v-2.2c0.8-1.4,1.8-3,2.8-4.8
		c1.1-1.8,2.5-3.9,4.2-6.5c1.7-2.6,2.7-4.2,3.1-4.8h3.8V230h3.1v2.3h-3.1v5H383v-5H371.6z"/>
	<polygon points="395,216.2 395,213.9 409.6,213.9 409.6,216.3 399.9,237.4 397.2,237.4 407.2,216.3 407.2,216.2 	"/>
	<path d="M419.1,226.6c0,2.9,0.5,5.1,1.5,6.7c1,1.6,2.3,2.4,4.1,2.4c1.7,0,3.1-0.8,4.1-2.4c1-1.6,1.5-3.8,1.5-6.7v-1.8
		c0-2.9-0.5-5.1-1.5-6.7c-1-1.6-2.3-2.4-4.1-2.4c-1.7,0-3.1,0.8-4.1,2.4c-1,1.6-1.5,3.8-1.5,6.7V226.6z M416.6,226.6v-1.9
		c0-3.5,0.7-6.3,2.1-8.3c1.4-2,3.4-3,6-3c2.6,0,4.6,1,5.9,3c1.4,2,2.1,4.8,2.1,8.3v1.9c0,3.5-0.7,6.3-2.1,8.3c-1.4,2-3.4,3-5.9,3
		c-2.6,0-4.6-1-6-3C417.3,232.9,416.6,230.1,416.6,226.6z"/>
	<path d="M458.8,235.2c1.4-0.1,2.6-0.6,3.4-1.3c0.8-0.7,1.3-1.7,1.3-2.9c0-1-0.3-1.8-0.9-2.5c-0.6-0.7-1.7-1.2-3.2-1.7
		c-0.1,0-0.3-0.1-0.6-0.1V235.2z M452.6,219.8c0,1.7,1,2.9,3.1,3.6c0.4,0.1,0.8,0.3,1.1,0.3v-7.9c-1.3,0.1-2.3,0.6-3,1.2
		C453,217.8,452.6,218.7,452.6,219.8z M449.5,231h2.5c0.1,1.1,0.5,2,1.3,2.8c0.8,0.7,2,1.2,3.4,1.4v-8.9l-1.3-0.4
		c-0.7-0.2-1.4-0.4-2-0.7c-0.6-0.3-1.2-0.7-1.7-1.1c-0.5-0.5-0.9-1-1.2-1.7c-0.3-0.7-0.4-1.5-0.4-2.3c0-1.9,0.6-3.3,1.8-4.4
		c1.2-1.1,2.8-1.7,4.8-1.9v-2.3h2.1v2.2c1.9,0.2,3.5,0.8,4.8,1.9c1.3,1.1,1.9,2.5,2,4.3h-2.4c0-1-0.4-1.9-1.2-2.6
		c-0.8-0.7-1.8-1.2-3.1-1.3v8.4l1.3,0.3c1.9,0.5,3.4,1.3,4.4,2.2c1,1,1.5,2.3,1.5,4c0,1.3-0.3,2.5-1,3.4c-0.6,1-1.5,1.7-2.5,2.2
		c-1,0.5-2.3,0.8-3.6,0.9v2.2h-2.1v-2.2c-2.3-0.2-4.1-0.8-5.3-2.1C450.2,234.2,449.6,232.7,449.5,231z"/>
	<g>
		<defs>
			<rect id="SVGID_1_" x="165.2" y="367.1" width="62.1" height="341.3"/>
		</defs>
		<clipPath id="SVGID_2_">
			<use xlink:href="#SVGID_1_"  style="overflow:visible;"/>
		</clipPath>
		<g style="clip-path:url(#SVGID_2_);">
			<defs>
				<rect id="SVGID_3_" x="165" y="367" width="62" height="341"/>
			</defs>
			<clipPath id="SVGID_4_">
				<use xlink:href="#SVGID_3_"  style="overflow:visible;"/>
			</clipPath>
		</g>
	</g>
	<g>
		<g>
			<defs>
				<path id="SVGID_5_" d="M227,386"/>
			</defs>
			<defs>
				<path id="SVGID_6_" d="M167,386"/>
			</defs>
			<defs>
				<path id="SVGID_7_" d="M167,190"/>
			</defs>
			<defs>
				<path id="SVGID_8_" d="M227,190"/>
			</defs>
			<clipPath id="SVGID_9_">
				<use xlink:href="#SVGID_5_"  style="overflow:visible;"/>
			</clipPath>
			<clipPath id="SVGID_10_" style="clip-path:url(#SVGID_9_);">
				<use xlink:href="#SVGID_6_"  style="overflow:visible;"/>
			</clipPath>
			<clipPath id="SVGID_11_" style="clip-path:url(#SVGID_10_);">
				<use xlink:href="#SVGID_7_"  style="overflow:visible;"/>
			</clipPath>
			<clipPath id="SVGID_12_" style="clip-path:url(#SVGID_11_);">
				<use xlink:href="#SVGID_8_"  style="overflow:visible;"/>
			</clipPath>
		</g>
	</g>
	<g>
		<defs>
			<rect id="SVGID_13_" x="44.6" y="705.2" width="1256.2" height="3.2"/>
		</defs>
		<clipPath id="SVGID_14_">
			<use xlink:href="#SVGID_13_"  style="overflow:visible;"/>
		</clipPath>
		<g style="clip-path:url(#SVGID_14_);">
			<defs>
				<rect id="SVGID_15_" x="45" y="705" width="1255" height="4"/>
			</defs>
			<clipPath id="SVGID_16_">
				<use xlink:href="#SVGID_15_"  style="overflow:visible;"/>
			</clipPath>
			
				<line style="clip-path:url(#SVGID_16_);fill:none;stroke:#000000;stroke-width:3.2;" x1="45.6" y1="706.8" x2="1300" y2="706.8"/>
		</g>
	</g>
	<polygon style="fill:#454CDC;" points="813.3,745.5 813.3,765.9 816,765.9 816,756.6 825.4,756.6 825.4,754.3 816,754.3 816,747.8 
		826.7,747.8 826.7,745.5 	"/>
	<path style="fill:#454CDC;" d="M839.2,745.5l-7.9,20.3h2.8l2.3-6.1h8.6l2.2,6.1h3l-7.9-20.3H839.2z M837.2,757.5l3.4-9.5h0.1
		l3.4,9.5H837.2z"/>
	<path style="fill:#454CDC;" d="M860.4,763.6v-7h6.2c0.6,0,1.1,0.1,1.7,0.2c0.5,0.1,1,0.3,1.4,0.5c0.4,0.2,0.7,0.6,1,1
		c0.2,0.4,0.4,1,0.4,1.7c0,1.1-0.3,2-1,2.7c-0.7,0.6-1.6,1-2.8,1H860.4z M857.7,745.5v20.3h9.8c1,0,1.9-0.2,2.7-0.5
		c0.8-0.3,1.4-0.8,1.9-1.3c0.5-0.5,0.9-1.2,1.2-1.9c0.3-0.7,0.4-1.4,0.4-2.2c0-1.2-0.3-2.3-1-3.2c-0.7-0.9-1.6-1.4-2.9-1.7v-0.1
		c1-0.4,1.7-1,2.2-1.7c0.5-0.8,0.8-1.7,0.8-2.8c0-1-0.2-1.9-0.7-2.6c-0.5-0.7-1-1.2-1.7-1.7c-0.3-0.2-0.7-0.3-1.1-0.4
		c-0.4-0.1-0.9-0.2-1.4-0.2c-0.5-0.1-1-0.1-1.5-0.1c-0.5,0-1,0-1.4,0H857.7z M860.4,754.3v-6.4h5.4c0.6,0,1.1,0,1.7,0.1
		c0.5,0.1,1,0.2,1.4,0.4c0.4,0.2,0.7,0.6,0.9,1c0.2,0.4,0.3,1,0.3,1.7c0,1.1-0.3,1.9-1,2.4c-0.7,0.5-1.8,0.8-3.3,0.8H860.4z"/>
	<path style="fill:#454CDC;" d="M891.2,754.9h-5.6v-7.1h6.7c1.3,0,2.2,0.3,2.8,1c0.6,0.6,0.8,1.5,0.8,2.5c0,0.7-0.1,1.3-0.4,1.8
		c-0.2,0.5-0.6,0.8-1,1.1c-0.4,0.3-0.9,0.5-1.5,0.6C892.4,754.9,891.8,754.9,891.2,754.9z M882.8,745.5v20.3h2.7v-8.7h6.6
		c0.7,0,1.2,0.1,1.6,0.3c0.4,0.2,0.7,0.5,1,0.8c0.2,0.3,0.4,0.7,0.6,1.2c0.1,0.4,0.2,0.9,0.3,1.4c0.1,0.5,0.1,1,0.2,1.5
		c0,0.5,0,1,0.1,1.4c0,0.4,0.1,0.8,0.1,1.2c0.1,0.4,0.2,0.6,0.4,0.8h3c-0.3-0.3-0.5-0.7-0.6-1.2c-0.1-0.5-0.2-0.9-0.3-1.4
		c-0.1-0.5-0.1-1-0.1-1.5c0-0.5,0-1-0.1-1.5c-0.1-0.5-0.1-1-0.2-1.4c-0.1-0.5-0.3-0.9-0.5-1.2c-0.2-0.4-0.5-0.7-0.9-0.9
		c-0.4-0.3-0.8-0.5-1.4-0.6V756c1.2-0.3,2.1-1,2.7-1.9c0.6-0.9,0.8-2,0.8-3.2c0-1.6-0.5-2.9-1.6-3.9c-1.1-0.9-2.6-1.4-4.5-1.4H882.8
		z"/>
	<rect x="908" y="745.5" style="fill:#454CDC;" width="2.7" height="20.3"/>
	<polygon style="fill:#454CDC;" points="920.9,745.5 920.9,765.9 923.6,765.9 923.6,758.7 927,755.6 934.3,765.9 937.7,765.9 
		928.8,753.7 937.4,745.5 933.9,745.5 923.6,755.7 923.6,745.5 	"/>
	<rect x="1075.1" y="729.2" width="2.1" height="15.5"/>
	<polygon points="1082.8,729.2 1085.3,729.2 1093.1,741.7 1093.1,729.2 1095.1,729.2 1095.1,744.7 1092.7,744.7 1084.8,732.1 
		1084.8,744.7 1082.8,744.7 	"/>
	<path d="M1108.1,740c0,1.3-0.2,2.3-0.6,3.1c-0.7,1.3-2.1,2-4.1,2c-1.2,0-2.1-0.3-3-0.9c-0.8-0.6-1.2-1.8-1.2-3.4v-1.1h2v1.1
		c0,0.8,0.2,1.5,0.6,1.9c0.4,0.4,1,0.6,1.8,0.6c1.1,0,1.8-0.4,2.2-1.1c0.2-0.5,0.3-1.4,0.3-2.7v-10.3h2.1V740z"/>
	<polygon points="1113.7,729.2 1125,729.2 1125,731.1 1115.7,731.1 1115.7,735.8 1124.3,735.8 1124.3,737.6 1115.7,737.6 
		1115.7,742.8 1125.2,742.8 1125.2,744.7 1113.7,744.7 	"/>
	<path d="M1136.6,728.8c2,0,3.5,0.5,4.6,1.6c1.1,1,1.7,2.2,1.8,3.5h-2.1c-0.2-1-0.7-1.8-1.4-2.4c-0.7-0.6-1.7-0.9-2.9-0.9
		c-1.5,0-2.8,0.5-3.7,1.6c-0.9,1.1-1.4,2.7-1.4,4.9c0,1.8,0.4,3.3,1.3,4.4c0.8,1.1,2.1,1.7,3.8,1.7c1.6,0,2.7-0.6,3.5-1.8
		c0.4-0.6,0.7-1.4,1-2.5h2c-0.2,1.6-0.8,3-1.8,4.1c-1.2,1.3-2.9,2-5,2c-1.8,0-3.3-0.5-4.5-1.6c-1.6-1.4-2.4-3.7-2.4-6.7
		c0-2.3,0.6-4.2,1.8-5.6C1132.5,729.6,1134.3,728.8,1136.6,728.8z"/>
	<polygon points="1159.1,729.2 1159.1,731 1153.9,731 1153.9,744.7 1151.7,744.7 1151.7,731 1146.5,731 1146.5,729.2 	"/>
	<rect x="1163.6" y="729.2" width="2.1" height="15.5"/>
	<path d="M1178.2,743.2c1.9,0,3.2-0.7,4-2c0.8-1.3,1.2-2.8,1.2-4.6c0-1.8-0.5-3.3-1.4-4.4c-1-1.1-2.2-1.7-3.9-1.7
		c-1.6,0-2.9,0.5-3.9,1.7c-1,1.1-1.5,2.7-1.5,4.9c0,1.7,0.4,3.2,1.3,4.3C1174.9,742.7,1176.3,743.2,1178.2,743.2z M1178,728.8
		c2.7,0,4.8,0.9,6.1,2.6c1,1.4,1.5,3.1,1.5,5.3c0,2.3-0.6,4.2-1.8,5.8c-1.4,1.8-3.4,2.7-5.9,2.7c-2.4,0-4.3-0.8-5.6-2.4
		c-1.2-1.5-1.8-3.4-1.8-5.8c0-2.1,0.5-3.9,1.6-5.4C1173.4,729.7,1175.4,728.8,1178,728.8z"/>
	<polygon points="1190.3,729.2 1192.8,729.2 1200.6,741.7 1200.6,729.2 1202.6,729.2 1202.6,744.7 1200.2,744.7 1192.3,732.1 
		1192.3,744.7 1190.3,744.7 	"/>
	<path d="M1083.3,756.4h3l4.5,13.1l4.4-13.1h3v15.5h-2v-9.1c0-0.3,0-0.8,0-1.6c0-0.7,0-1.5,0-2.4l-4.4,13.1h-2.1l-4.4-13.1v0.5
		c0,0.4,0,1,0,1.7c0,0.8,0,1.3,0,1.7v9.1h-2V756.4z"/>
	<path d="M1110.4,770.4c1.8,0,3.2-0.7,4-2c0.8-1.3,1.2-2.9,1.2-4.6c0-1.8-0.5-3.3-1.4-4.4c-0.9-1.1-2.2-1.7-3.9-1.7
		c-1.6,0-2.9,0.6-3.9,1.7c-1,1.1-1.5,2.7-1.5,4.9c0,1.7,0.4,3.2,1.3,4.3C1107.1,769.9,1108.5,770.4,1110.4,770.4z M1110.2,756
		c2.7,0,4.8,0.9,6.1,2.6c1,1.4,1.5,3.1,1.5,5.3c0,2.3-0.6,4.2-1.8,5.8c-1.4,1.8-3.4,2.7-5.9,2.7c-2.4,0-4.3-0.8-5.6-2.4
		c-1.2-1.5-1.8-3.4-1.8-5.8c0-2.1,0.5-3.9,1.5-5.4C1105.6,756.9,1107.6,756,1110.2,756z"/>
	<polygon points="1122.5,756.4 1124.6,756.4 1124.6,770 1132.4,770 1132.4,771.9 1122.5,771.9 	"/>
	<path d="M1136.8,756.4h6.3c2.1,0,3.8,0.8,5,2.3c1.1,1.4,1.6,3.1,1.6,5.2c0,1.7-0.3,3.1-0.9,4.5c-1.1,2.3-3,3.5-5.6,3.5h-6.3V756.4z
		 M1142.6,770.1c0.7,0,1.3-0.1,1.8-0.2c0.8-0.3,1.5-0.8,2-1.6c0.4-0.6,0.7-1.4,0.9-2.4c0.1-0.6,0.2-1.1,0.2-1.6
		c0-1.9-0.4-3.4-1.2-4.5c-0.8-1.1-2-1.6-3.7-1.6h-3.7v11.9H1142.6z"/>
	<rect x="1154.9" y="756.4" width="2.1" height="15.5"/>
	<polygon points="1162.6,756.4 1165.1,756.4 1172.9,768.9 1172.9,756.4 1174.9,756.4 1174.9,771.9 1172.5,771.9 1164.6,759.3 
		1164.6,771.9 1162.6,771.9 	"/>
	<path d="M1187,756c1.5,0,2.7,0.3,3.8,0.8c1.5,0.8,2.5,2.2,2.8,4.2h-2.1c-0.2-1.1-0.8-2-1.6-2.5c-0.8-0.5-1.8-0.8-3-0.8
		c-1.4,0-2.6,0.5-3.6,1.6c-1,1.1-1.5,2.7-1.5,4.8c0,1.8,0.4,3.3,1.2,4.5c0.8,1.2,2.1,1.7,3.9,1.7c1.4,0,2.6-0.4,3.5-1.2
		c0.9-0.8,1.4-2.1,1.4-4h-4.8v-1.7h6.8v8.3h-1.3l-0.5-2c-0.7,0.8-1.3,1.3-1.9,1.6c-0.9,0.5-2.1,0.8-3.5,0.8c-1.8,0-3.4-0.6-4.7-1.8
		c-1.4-1.5-2.2-3.5-2.2-6.1c0-2.6,0.7-4.7,2.1-6.2C1183.2,756.7,1184.9,756,1187,756z"/>
	<path d="M137.6,757.6l1.2-4c-1.2-0.6-2.4-1-3.7-1.3c-2.1-0.5-4.2-0.6-6.2,0c-1,0.3-2,0.8-2.8,1.6c-0.8,0.9-1.2,2.2-1.4,3.4
		c-0.1,1.2,0,2.3,0.4,3.4c0.4,0.9,1,1.7,1.8,2.3c0.8,0.6,1.7,1,2.6,1.3c0.9,0.4,1.9,0.7,2.8,1.2c0.4,0.2,0.7,0.4,1,0.6
		c0.2,0.2,0.4,0.4,0.5,0.7c0.2,0.5,0,1-0.3,1.4c-0.3,0.4-0.7,0.7-1.2,0.8c-0.7,0.2-1.5,0.2-2.2,0c-1.6-0.3-3.1-0.8-4.5-1.5l-1.4,4.1
		c1.1,0.6,2.3,1.1,3.5,1.4c1.5,0.4,3,0.5,4.5,0.5c1.7-0.1,3.4-0.4,4.7-1.4c0.8-0.6,1.5-1.5,1.9-2.4c0.4-1,0.6-2.1,0.5-3.1
		c-0.1-1.1-0.4-2.2-1-3.2c-0.6-0.8-1.3-1.4-2.2-1.9c-0.7-0.4-1.5-0.7-2.3-1c-0.9-0.3-1.7-0.6-2.5-1c-0.4-0.2-0.8-0.4-1-0.8
		c-0.3-0.5-0.2-1.1,0.1-1.6c0.2-0.3,0.4-0.5,0.8-0.7c0.4-0.2,0.9-0.2,1.4-0.2c0.7,0,1.5,0.1,2.2,0.2
		C135.7,756.8,136.7,757.1,137.6,757.6z"/>
	<path d="M155.5,757.8l1.3-4.4c-0.6-0.3-1.3-0.6-2-0.8c-0.8-0.2-1.6-0.3-2.4-0.4c-2.2-0.2-4.4,0-6.3,1c-1.8,1-3,2.6-3.7,4.5
		c-0.4,1.2-0.6,2.4-0.7,3.6c-0.1,1.6-0.1,3.2,0.1,4.8c0.2,1.6,0.7,3.1,1.6,4.3c1.1,1.5,2.7,2.4,4.5,2.8c0.9,0.2,1.9,0.3,2.8,0.2
		c1.3,0,2.7-0.2,4-0.6c0.8-0.3,1.6-0.7,2.3-1.2l-1.3-4.1c-0.4,0.3-0.8,0.6-1.3,0.8c-0.8,0.3-1.7,0.5-2.6,0.5c-0.9,0-1.9-0.2-2.6-0.8
		c-0.8-0.6-1.3-1.4-1.6-2.3c-0.4-1.2-0.5-2.5-0.4-3.8c0-0.8,0.1-1.6,0.4-2.4c0.3-0.8,0.7-1.5,1.4-2c0.8-0.6,1.7-0.8,2.6-0.8
		c0.8,0,1.6,0.1,2.4,0.4C154.6,757.4,155.1,757.6,155.5,757.8z"/>
	<path d="M165.3,752.6l-5.3-0.2v13.7c0,0.6,0.1,1.3,0.2,1.9c0.1,1,0.4,2,0.9,2.9c0.6,1.1,1.7,1.9,2.9,2.3c0.9,0.3,1.9,0.3,2.9,0.3
		c1.3-0.1,2.6-0.4,3.7-1.1c0.6-0.4,1.1-0.9,1.6-1.5c0.3-0.3,0.6-0.7,0.9-1.1l1,3.3h4c-0.2-0.5-0.3-1.2-0.4-1.7
		c-0.1-0.5-0.2-1.1-0.2-1.6c0-0.6,0.1-1.1,0.1-1.7v-15.8H172v13.1c-0.1,0.5-0.2,0.9-0.5,1.4c-0.4,0.6-1,1.2-1.7,1.5
		c-0.6,0.3-1.3,0.4-2,0.4c-0.6-0.1-1.3-0.3-1.7-0.8c-0.4-0.5-0.6-1.1-0.7-1.7c-0.1-0.8-0.1-1.6-0.1-2.4
		C165.3,760.2,165.3,756.4,165.3,752.6z"/>
	<path d="M187.2,744.6l-4.8-0.2v24.7c0,0.6-0.2,1.2,0,1.7c0.2,0.6,0.6,1.2,1.1,1.7c0.5,0.5,1.2,0.7,1.9,0.8c0.9,0.2,1.9,0.1,2.8,0
		c1.2-0.2,2.7-0.4,3.8-0.9l-0.8-4.2c-0.3,0.2-0.9,0.3-1.3,0.4c-0.5,0.1-1.1,0.2-1.6-0.1c-0.2-0.1-0.4-0.3-0.5-0.5
		c-0.4-0.6-0.3-1.4-0.3-2.1c0-0.3-0.2-0.7-0.2-1V744.6z"/>
	<path d="M193.9,781.2l-0.3-28.8h4l0.8,2.9c0.3-0.6,0.7-1.1,1.2-1.6c0.4-0.4,0.9-0.7,1.4-0.9c0.6-0.3,1.2-0.4,1.9-0.6
		c1.8-0.3,3.6-0.2,5.2,0.5c1,0.5,1.8,1.2,2.4,2.1c0.6,0.8,0.9,1.8,1.1,2.8c0.4,1.7,0.5,3.4,0.5,5.2c0,1.8-0.3,3.7-1,5.3
		c-0.6,1.4-1.5,2.7-2.7,3.7c-1.3,1-3,1.6-4.7,1.7c-1.6,0.1-3.1-0.2-4.6-0.8V768c0.6,0.5,1.3,0.8,2.1,0.9c0.5,0.1,1,0.1,1.5,0.1
		c0.5-0.1,1-0.2,1.5-0.4c1.3-0.7,1.9-2.1,2.1-3.5c0.2-1,0.2-2,0.2-3c0-1.6-0.1-3.3-1.2-4.5c-0.3-0.4-0.8-0.6-1.2-0.8
		c-0.6-0.2-1.2-0.2-1.8-0.1c-0.6,0.1-1.1,0.2-1.6,0.6c-0.4,0.3-0.6,0.6-0.9,1c-0.3,0.4-0.5,0.9-0.7,1.3v21.7H193.9z"/>
	<path d="M216.4,748.9l0.4,3.5h-3.2v4.8h3.2v10.3c0,0.6-0.4,1.2-0.3,1.8c0.1,0.7,0.3,1.3,0.6,1.9c0.5,0.9,1.3,1.6,2.2,2
		c0.6,0.2,1.3,0.3,2,0.3c1.2,0,2.3-0.1,3.5-0.4c0.9-0.2,1.7-0.5,2.6-0.9l-0.9-4.2c-0.5,0.3-1,0.5-1.5,0.6c-0.4,0.1-0.8,0.1-1.2,0.1
		c-0.4,0-0.8-0.1-1.1-0.3c-0.3-0.2-0.5-0.6-0.6-0.9c-0.2-0.5-0.2-1.1-0.3-1.7c0-0.6-0.1-1.3-0.1-1.9v-6.8h4.8v-4.8h-4.8v-5.1
		L216.4,748.9z"/>
	<path d="M244.1,767.7l1.7,3.5c-1.3,0.9-2.7,1.6-4.3,2c-1.6,0.4-3.2,0.4-4.8,0.3c-1.5-0.1-3.1-0.5-4.3-1.4c-1.5-1-2.4-2.6-3-4.3
		c-0.7-2-0.9-4.1-0.7-6.3c0.1-1.6,0.4-3.3,1.2-4.8c0.6-1.3,1.5-2.4,2.7-3.2c1.3-0.9,2.9-1.2,4.4-1.4c1.5-0.2,3-0.1,4.4,0.3
		c1.5,0.5,2.8,1.3,3.7,2.6c0.6,0.8,0.9,1.8,1.1,2.8c0.2,1.1,0.3,2.2,0.2,3.4c-0.1,1-0.2,2.2-0.4,3.1h-13.3v-3.2h8.8
		c0.1-0.6,0.1-1.6-0.1-2.2c-0.2-0.7-0.5-1.4-1-1.9c-0.3-0.3-0.7-0.5-1.2-0.6c-0.5-0.1-1-0.1-1.5,0c-0.6,0.1-1.2,0.2-1.7,0.5
		c-0.4,0.3-0.8,0.7-1.1,1.1c-0.4,0.7-0.7,1.5-0.8,2.3c-0.3,1.6-0.4,3.3-0.1,4.9c0.1,0.7,0.3,1.3,0.6,1.9c0.3,0.6,0.8,1.2,1.5,1.5
		c0.8,0.5,1.7,0.6,2.6,0.7c1,0,1.9-0.1,2.8-0.4C242.5,768.7,243.3,768.3,244.1,767.7z"/>
	<path d="M259.2,752.1c-1.7-0.1-3,0-4.2,0.4c-0.9,0.3-1.7,0.8-2.4,1.3c-0.8,0.6-1.5,1.4-2,2.2c-0.7,1.1-1.1,2.4-1.4,3.8
		c-0.2,1.2-0.3,2.5-0.2,3.7c0.1,1.5,0.3,2.9,0.8,4.3c0.4,1,0.9,2,1.6,2.8c1.2,1.3,2.8,2.1,4.5,2.5c1.3,0.3,2.7,0.4,4.1,0.2
		c1.4-0.2,2.9-0.6,4.1-1.3c1.3-0.9,2.3-2.1,3-3.6c0.7-1.6,1-3.3,1.1-5c0.1-2.2-0.1-4.5-1.1-6.5c-0.8-1.8-2.2-3.2-3.9-4.1
		c-0.8-0.4-1.7-0.6-2.6-0.8c-0.9-0.1-2-0.2-2.9-0.1v4.4c0.4,0,1.2,0,1.6,0.1c0.4,0,0.8,0.1,1.2,0.3c0.5,0.3,0.9,0.8,1.2,1.3
		c0.3,0.5,0.5,1,0.6,1.5c0.3,1,0.4,2.1,0.4,3.2c0,1.1-0.2,2.1-0.4,3.1c-0.2,0.8-0.5,1.5-1.1,2c-0.5,0.4-1.1,0.7-1.8,0.8
		c-0.8,0.1-1.7,0.1-2.4-0.3c-0.8-0.4-1.4-1.2-1.8-2.1c-0.4-1-0.5-2-0.6-3.1c-0.1-1.1-0.1-2.3,0.2-3.4c0.2-0.9,0.6-1.8,1.3-2.4
		c0.3-0.3,0.6-0.5,1-0.7c0.5-0.2,0.8-0.3,1.4-0.3L259.2,752.1z"/>
	<path d="M318.6,756.8c-0.3,0.1-0.6,0.2-0.9,0.5c-0.3,0.3-0.5,0.7-0.7,1c-0.6,1.1-1.3,2.1-2,3c-0.9,1.2-1.7,2.4-2.6,3.6
		c-0.9,1.3-1.8,2.5-2.4,4c-0.3,0.7-0.5,1.4-0.8,2c-0.1,0.3-0.3,0.6-0.2,1c0.1,0.3,0.3,0.5,0.7,0.6c0.6,0.2,1.2-0.1,1.7-0.4
		c0.4-0.2,0.7-0.4,0.9-0.7c0.2-0.3,0.2-0.6,0.3-1c0.2-0.8,0.4-1.5,0.7-2.3c0.4-1,0.8-1.9,1.2-2.8c0.6-1.2,1.3-2.4,1.9-3.6
		c0.6-1.1,1.2-2.3,2-3.3c0.3-0.3,0.6-0.7,0.7-1c0.1-0.3,0.1-0.5-0.2-0.7C319.1,756.7,318.8,756.7,318.6,756.8z"/>
	<path d="M323.7,747.8c-0.1-0.4-0.3-0.7-0.6-1c-0.4-0.3-0.9-0.4-1.3-0.3c-0.3,0.1-0.7,0.3-0.8,0.6c-0.2,0.3-0.2,0.8-0.1,1.1
		c0.1,0.5,0.2,0.9,0.5,1.3c0.3,0.4,0.8,0.7,1.3,0.6c0.7-0.1,1.2-0.8,1.2-1.6C323.9,748.4,323.8,748.1,323.7,747.8z"/>
	<path d="M321.2,769.9c-0.3-0.3-0.6-0.7-1-0.8c-0.5-0.1-0.9,0-1.4,0.3c-0.3,0.2-0.6,0.4-0.7,0.7c-0.1,0.4,0,0.8,0.2,1.1
		c0.3,0.6,0.8,1,1.5,1.1c0.6,0.1,1.2,0,1.6-0.4c0.3-0.4,0.4-0.8,0.2-1.3C321.6,770.4,321.4,770.1,321.2,769.9z"/>
	<path style="opacity:0.9156;" d="M329.4,771.8c0-0.9,0.1-1.8,0.3-2.6c0.2-0.8,0.5-1.5,0.7-2.2c0.8-1.9,1.7-3.8,2.4-5.8
		c0.6-1.6,1.2-3.2,1.6-4.9c0.2-0.9,0.4-1.8,0.4-2.7c0-0.3,0-0.5-0.1-0.8c-0.1-0.3-0.2-0.6-0.5-0.7c-0.2-0.1-0.5-0.1-0.7,0.1
		c-0.2,0.2-0.2,0.4-0.2,0.7c0,0.2-0.1,0.5-0.2,0.7c-0.3,1-0.5,2-0.8,3c-0.6,2-1.4,3.8-2.2,5.7c-0.3,0.7-0.6,1.4-0.9,2.1
		c-0.7,1.6-1.3,3.3-1.8,5c-0.2,0.6-0.4,1.2-0.5,1.8c-0.2,0.9-0.4,1.9-0.3,2.9c0.1,0.5,0.2,1,0.5,1.4c0.3,0.3,0.6,0.6,1,0.7
		c0.3,0.1,0.7,0.1,0.9-0.1c0.3-0.2,0.4-0.5,0.5-0.7c0.2-0.3,0.4-0.6,0.6-0.8c0.9-1.3,1.7-2.7,2.5-4.1c1-1.8,2-3.6,3.1-5.4
		c0.9-1.4,1.8-2.8,2.8-4.1c0.9-1.1,1.9-2.1,2.9-3c-0.1,0.5-0.3,1-0.4,1.6c-0.4,1.4-0.9,2.7-1.4,4.1c-0.4,1.3-0.8,2.5-1.2,3.8
		c-0.3,1.1-0.5,2.1-0.4,3.2c0,0.5,0.1,1,0.3,1.4c0.1,0.2,0.2,0.4,0.3,0.6c0.2,0.1,0.4,0,0.6,0c0.2-0.1,0.4-0.3,0.5-0.5
		c0.2-0.2,0.3-0.5,0.4-0.7c0.2-0.3,0.4-0.6,0.6-0.9c0.6-1,1.1-2,1.6-3c0.6-1.2,1.4-2.4,2.2-3.5c0.8-1,1.6-2,2.5-2.8
		c0.7-0.6,1.5-1.2,2.4-1.3c0.5,0,1,0.1,1.3,0.4c0.3,0.3,0.4,0.6,0.5,1c0.1,0.6,0.1,1.2,0.1,1.8c-0.1,0.9-0.1,1.7-0.4,2.6
		c-0.2,0.6-0.4,1.2-0.6,1.8c-0.1,0.5-0.2,1-0.2,1.5c0,0.2,0.1,0.5,0.1,0.7c0.1,0.4,0.2,0.8,0.5,0.9c0.3,0.1,0.7,0,1-0.2
		c0.5-0.3,1-0.5,1.4-0.9c0.4-0.3,0.6-0.8,0.9-1.1c0.5-0.6,1-1.1,1.6-1.7c0.5-0.5,1-1,1.6-1.3c0.2-0.1,0.5-0.1,0.7-0.2
		c-0.1-0.2-0.2-0.4-0.3-0.6c-0.1-0.2-0.2-0.4-0.3-0.5c-0.2-0.2-0.4-0.2-0.7-0.2c-0.3,0-0.6,0.1-0.8,0.2c-0.2,0.1-0.4,0.2-0.6,0.3
		c-0.5,0.3-0.9,0.8-1.3,1.2c-0.5,0.5-0.9,1.1-1.3,1.7c0.2-1.1,0.4-2.2,0.6-3.3c0.2-1.3,0.5-2.6,0.5-4c0-0.6-0.1-1.2-0.2-1.8
		c-0.2-0.7-0.4-1.4-1-1.8c-0.4-0.3-1-0.4-1.5-0.4c-0.7,0-1.3,0.2-1.9,0.5c-0.9,0.4-1.6,1-2.3,1.7c-1,0.9-1.9,1.9-2.7,2.9
		c-1.1,1.2-2.1,2.5-3,3.8c0.6-1.8,1.3-3.6,1.9-5.5c0.4-1.2,0.8-2.5,1-3.8c0.1-0.7,0.1-1.4,0.1-2c0-0.3,0-0.6-0.3-0.8
		c-0.2-0.1-0.4-0.2-0.6-0.1c-0.4,0.1-0.8,0.3-1.1,0.5c-0.6,0.5-1.2,1-1.7,1.5c-1.2,1.3-2.2,2.8-3.2,4.3c-1.1,1.7-2,3.5-3,5.2
		c-0.9,1.6-1.9,3.2-3,4.7C331,770,330.2,770.9,329.4,771.8z"/>
	<path d="M382.5,762.5c-0.1,0.5-0.2,0.9-0.3,1.4c-0.2,0.6-0.3,1.2-0.4,1.9c-0.1,0.5-0.1,1-0.2,1.4c0,0.3-0.1,0.5,0.1,0.8
		c0.1,0.1,0.2,0.2,0.3,0.2c0.3,0.1,0.7,0,1-0.1c0.3-0.2,0.6-0.5,0.8-0.8c0.1-0.2,0.1-0.3,0.2-0.5c0-0.2,0.1-0.3,0.1-0.5
		c0.1-0.4,0.1-0.7,0.1-1.1c0.1-0.6,0.2-1.2,0.4-1.8c0.1-0.6,0.3-1.1,0.4-1.7c0.2-0.7,0.4-1.3,0.6-2c0.5-0.4,0.9-0.8,1.4-1.2
		c0.5-0.4,1-0.8,1.5-1.1c0.5-0.3,1-0.6,1.5-0.8c0.3-0.2,0.7-0.3,1-0.3c0.2,0,0.4,0,0.6,0c0.2,0,0.5,0.1,0.7,0
		c0.2-0.1,0.4-0.2,0.6-0.4c0.2-0.2,0.4-0.5,0.5-0.7c0.1-0.2,0.2-0.4,0.1-0.6c-0.1-0.1-0.2-0.2-0.4-0.2c-0.5-0.1-1,0-1.4,0.1
		c-0.5,0.1-1,0.2-1.6,0.4c-0.7,0.2-1.3,0.5-2,0.8c-0.5,0.3-1,0.6-1.4,0.9c0.1-0.4,0.3-0.8,0.4-1.2c0.4-1.1,0.9-2.2,1.4-3.3
		c0.6-1.2,1.1-2.5,1.7-3.7c0.6-1.1,1.2-2.2,1.8-3.3c0.3-0.5,0.6-1,0.9-1.5c0.2-0.1,0.3-0.3,0.5-0.5c0.3-0.4,0.5-0.8,0.5-1.2
		c0-0.2-0.1-0.5-0.2-0.6c-0.2-0.1-0.3-0.1-0.5-0.1c-0.2,0-0.5,0.1-0.7,0.2c-0.1,0.1-0.2,0.2-0.3,0.3c-0.3,0.4-0.5,0.8-0.9,1.1
		c-0.1,0.1-0.2,0.2-0.3,0.3c-0.2,0.2-0.4,0.5-0.6,0.7c-0.1,0.1-0.2,0.2-0.2,0.4c0,0.1,0,0.2,0.1,0.3c-0.3,0.4-0.5,0.9-0.7,1.3
		c-0.7,1.2-1.3,2.5-1.9,3.8c-0.7,1.5-1.5,3-2.1,4.5c-0.3,0.8-0.6,1.6-0.8,2.4c-0.1,0-0.3,0-0.4,0.1c-0.1,0.1-0.2,0.2-0.3,0.3
		c-0.1,0.3-0.2,0.5-0.2,0.8c0,0.4,0,0.8,0,1.2c-0.6,0.5-1.2,1-1.8,1.6c-0.7,0.7-1.5,1.3-2.2,2c-0.7,0.7-1.4,1.4-2.2,2.1
		c-0.6,0.5-1.1,1.1-1.8,1.6c-0.6,0.5-1.3,1-2.1,1.3c-0.4,0.2-0.9,0.3-1.4,0.5c-0.2,0.1-0.5,0.1-0.7,0c-0.2-0.1-0.4-0.2-0.5-0.4
		c-0.1-0.2-0.2-0.4-0.3-0.7c-0.1-0.2-0.1-0.5-0.1-0.7c0-0.6,0-1.1,0-1.7c0.1-0.7,0.3-1.3,0.5-1.9c0.2-0.7,0.5-1.3,0.8-1.9
		c0.4-0.8,0.8-1.6,1.3-2.3c0.3-0.5,0.6-0.9,0.9-1.4c0.2-0.3,0.5-0.6,0.4-0.9c0-0.2-0.1-0.4-0.3-0.6c-0.1-0.2-0.2-0.3-0.4-0.3
		c-0.2,0-0.4,0-0.5,0.2c-0.1-0.1-0.2-0.3-0.3-0.4c-0.2-0.1-0.3-0.1-0.5-0.2c-0.5-0.1-1-0.1-1.5,0c-0.8,0.1-1.5,0.4-2.2,0.6
		c-0.8,0.3-1.6,0.7-2.4,1.1c-1.1,0.6-2.1,1.4-3.1,2.2c-1.3,1.1-2.6,2.3-3.7,3.6c-0.4,0.5-0.8,1-1.2,1.5c-0.3,0.5-0.6,1.1-0.8,1.7
		c-0.2,0.7-0.3,1.3-0.3,2c0,0.5,0,1.1,0.3,1.6c0.4,0.5,1,0.8,1.6,0.9c0.8,0.1,1.6-0.1,2.4-0.3c0.4-0.1,0.7-0.2,1-0.4
		c1-0.4,1.8-1.1,2.7-1.7c1-0.8,2.3-1.7,3.2-2.6v-3.5c-0.5,0.6-0.7,1.1-1.2,1.6c-0.5,0.5-0.9,0.9-1.4,1.3c-0.7,0.6-1.5,1.2-2.3,1.7
		c-0.7,0.5-1.4,0.9-2.1,1.3c-0.6,0.2-1.1,0.4-1.7,0.5c0.1-0.5,0.1-0.9,0.3-1.3c0.2-0.7,0.6-1.3,0.9-1.9c0.6-1,1.4-2,2.2-2.9
		c0.9-1.1,2-2,3.1-2.9c0.7-0.5,1.4-1,2.1-1.4c0.6-0.4,1.3-0.7,2-1c0.5-0.2,1.1-0.3,1.6-0.3c-0.2,0.2-0.3,0.5-0.5,0.7
		c-0.3,0.5-0.6,1-0.8,1.6c-0.4,0.7-0.8,1.3-1.2,1.9l-0.9,1.2v0.4l-0.8,2.9c0,0.4,0.4,0.9,0.5,1.3c0.1,0.6,0.3,1.2,0.5,1.8
		c0.2,0.5,0.5,1,0.9,1.3c0.3,0.3,0.7,0.5,1.2,0.6c0.5,0.1,0.9,0,1.4-0.1c0.4-0.1,0.9-0.2,1.3-0.4c0.7-0.2,1.4-0.5,2-0.8
		c0.6-0.3,1.2-0.6,1.7-1c0.3-0.3,0.7-0.5,1-0.8c0.4-0.4,0.7-0.7,1.1-1.1c0.6-0.6,1.1-1.2,1.7-1.9
		C381.6,763.3,382.1,762.9,382.5,762.5z"/>
	<path d="M409.2,764.8c-0.1,0.4-0.3,0.8-0.4,1.2c-0.1,0.3-0.2,0.5-0.2,0.8c0,0.1,0,0.2,0.1,0.3c0.1,0.2,0.3,0.3,0.5,0.3
		c0.4,0.1,0.7,0,1-0.2c0.3-0.2,0.5-0.4,0.7-0.7c0.1-0.2,0.2-0.5,0.4-0.7c0.2-0.4,0.4-0.7,0.6-1c0.5-0.6,1.1-1.1,1.7-1.5
		c0.7-0.4,1.4-0.8,2.1-1.1c1.1-0.5,2.2-0.9,3.4-1.3c0.6-0.2,1.2-0.4,1.8-0.6c0.3-0.1,0.6-0.1,1-0.1c0.4,0,0.8,0.1,1.2,0.3
		c0,0.1,0.1,0.1,0.2,0.2c0.2,0.1,0.4,0,0.5,0c0.3-0.1,0.7-0.3,0.9-0.5c0.3-0.3,0.5-0.6,0.6-1c0.1-0.2,0.1-0.4,0-0.5
		c-0.1-0.2-0.2-0.3-0.4-0.4c-0.3-0.1-0.6-0.2-0.9-0.2c-0.5,0-1,0-1.4,0.1c-0.7,0.1-1.4,0.3-2.2,0.5c-1,0.3-2,0.7-3,1.1
		c-0.8,0.3-1.5,0.7-2.3,1c-0.6,0.3-1.2,0.5-1.7,0.8c-0.2,0.1-0.4,0.2-0.6,0.4c0.2-0.6,0.4-1.2,0.7-1.8c0.2-0.5,0.4-0.9,0.7-1.3
		c0.1-0.2,0.3-0.4,0.3-0.7c0.1-0.2,0.1-0.5-0.1-0.6c-0.1-0.1-0.3-0.1-0.4-0.2c-0.3-0.1-0.7-0.1-0.9,0.1c-0.3,0.1-0.5,0.3-0.7,0.6
		c-0.2,0.2-0.4,0.4-0.5,0.7c-0.2,0.3-0.3,0.6-0.6,0.7c-0.2,0.1-0.4,0.2-0.3,0.3c0,0.1,0.1,0.1,0.2,0.2c0.1,0,0.1,0.1,0.1,0.2
		c-0.1,0.3-0.3,0.6-0.4,0.9c-0.3,0.7-0.6,1.3-0.8,2c-0.6,0.2-1.2,0.4-1.8,0.6c-1.5,0.5-3,1-4.5,1.5c-1.3,0.4-2.5,0.8-3.8,1.2
		c-0.9,0.2-1.7,0.4-2.6,0.5c-0.6,0.1-1.2,0.1-1.8,0c-0.4,0-0.7-0.1-1.1-0.2c-0.3-0.1-0.6-0.3-0.7-0.5c-0.1-0.2-0.2-0.6-0.1-0.8
		c0-0.3,0.1-0.6,0.3-0.8l0.8-0.2c0.7-0.1,1.4-0.3,2.1-0.5c1.4-0.4,2.7-1.2,3.9-2c1.1-0.7,2.1-1.4,2.9-2.4c0.6-0.7,1-1.4,1.3-2.2
		c0.1-0.3,0.2-0.6,0.3-0.9c0.2-0.6,0.4-1.2,0.1-1.8c-0.1-0.2-0.4-0.4-0.6-0.5c-0.3-0.2-0.7-0.2-1-0.3c-0.5,0-1.1,0.1-1.6,0.2
		c-1.4,0.4-2.7,1.2-3.9,2.1c-1.9,1.5-3.7,3.2-5.1,5.1c-0.9,1.3-1.7,2.7-2.2,4.2l4.2-3.4c0.3-0.4,0.6-0.9,0.9-1.3
		c0.5-0.6,1-1.1,1.5-1.7c0.6-0.6,1.3-1.3,2-1.8c0.4-0.3,0.9-0.6,1.3-0.8c0.4-0.2,0.7-0.4,1.1-0.3c0.2,0,0.5,0.1,0.6,0.3
		c0.1,0.2,0.1,0.4,0.1,0.7c-0.1,0.5-0.4,0.9-0.7,1.2c-0.4,0.6-1,1-1.6,1.4c-0.7,0.5-1.4,0.8-2.1,1.1c-0.5,0.2-1,0.4-1.6,0.6
		c-0.7,0.2-1.4,0.4-2.1,0.6l-3.6,3c-0.1,0.3-0.1,0.5-0.2,0.8c-0.1,0.4-0.1,0.8-0.1,1.2c0.1,0.4,0.3,0.8,0.6,1.1
		c0.5,0.5,1.1,0.7,1.8,0.8c0.8,0.2,1.6,0.2,2.4,0.2c0.9,0,1.7-0.2,2.6-0.3c1.1-0.2,2.3-0.5,3.4-0.9c0.9-0.3,1.8-0.5,2.6-0.8
		c0.8-0.3,1.6-0.6,2.5-0.9C407.5,765.4,408.4,765.1,409.2,764.8z"/>
	<path d="M430.2,756.8c-0.2-0.1-0.5,0.1-0.7,0.2c-0.2,0.2-0.4,0.4-0.7,0.6c-0.4,0.4-0.7,0.9-1,1.5c-0.4,0.8-0.8,1.5-1.2,2.4
		c-0.2,0.6-0.5,1.1-0.7,1.7c-0.3,0.8-0.6,1.6-0.9,2.4c-0.3,0.7-0.5,1.5-0.6,2.2c-0.1,0.5-0.1,1.1,0,1.6c0.1,0.4,0.3,0.8,0.7,1
		c0.4,0.2,0.8,0.3,1.3,0.2c0.6-0.1,1.3-0.2,1.9-0.4c0.9-0.3,1.7-0.6,2.6-0.9c0.7-0.3,1.4-0.5,2.1-0.9c0.3-0.2,0.3-0.3,0.6-0.5
		l0.8-2.3c-0.1-0.1,0.1-0.2,0-0.2c-0.2-0.1-0.4,0-0.6,0.1c-0.2,0.1-0.3,0.3-0.5,0.5c-0.2,0.2-0.4,0.3-0.5,0.4
		c-0.4,0.3-0.8,0.5-1.2,0.7c-0.6,0.3-1.3,0.6-2,0.8c-0.5,0.2-1,0.3-1.5,0.3c-0.3,0-0.5,0-0.8,0c-0.2,0-0.4-0.1-0.5-0.3
		c-0.1-0.2-0.1-0.4,0-0.6c0.1-0.1,0.1-0.2,0.2-0.4c0.2-0.5,0.4-1,0.6-1.5c0.4-0.9,0.8-1.8,1.1-2.7c0.6-1.3,1.1-2.7,1.7-4
		c0.2-0.4,0.3-0.9,0.3-1.3c0-0.1,0-0.2-0.1-0.3C430.4,757,430.4,756.9,430.2,756.8z"/>
	<path d="M452.6,755.9c-0.1-0.2-0.2-0.4-0.4-0.5c-0.2-0.2-0.4-0.3-0.7-0.4c-0.6-0.3-1.2-0.3-1.9-0.3c-0.6,0.1-1.2,0.2-1.7,0.4
		c-0.8,0.3-1.6,0.7-2.3,1c-1.1,0.6-2.2,1.2-3.3,1.9c-1.4,0.9-2.7,2-4,3.1c-0.9,0.8-1.7,1.5-2.4,2.4c-0.7,0.9-1.3,1.9-1.8,3
		c-0.3,0.6-0.5,1.3-0.3,1.9c0.2,0.4,0.5,0.6,0.8,0.8c0.5,0.2,1.1,0.2,1.7,0c1-0.2,1.9-0.7,2.7-1.2c1.1-0.6,2.1-1.3,3.1-2
		c0.7-0.5,1.4-0.9,2.1-1.4c0.2-0.1,0.4-0.3,0.7-0.4c0.3-0.1,0.5-0.1,0.8,0c-0.1,0.3-0.2,0.6-0.3,1c-0.1,0.5-0.2,1,0,1.5
		c0.2,0.6,0.6,1.2,1.3,1.4c0.5,0.2,1.1,0.2,1.7,0.1c0.9-0.1,1.8-0.3,2.7-0.5c1.4-0.3,2.8-0.7,4-1.5c0.4-0.3,0.8-0.6,1.1-1.1
		c0.2-0.4,0.3-0.8,0-1.1c-0.2-0.2-0.5-0.2-0.7-0.1c-0.4,0.1-0.7,0.2-1.1,0.4c-0.8,0.3-1.6,0.6-2.4,0.8c-0.7,0.2-1.4,0.4-2.1,0.4
		c-0.3,0-0.6,0-0.9-0.1c-0.3-0.2-0.5-0.4-0.5-0.7c-0.1-0.3-0.1-0.6,0-0.9c0.1-0.4,0.2-0.9,0.4-1.3c0.1-0.3,0.2-0.6,0.3-0.8
		c0.1-0.3,0.1-0.6-0.1-0.8c-0.1-0.2-0.3-0.2-0.5-0.2c-0.4,0-0.7,0.1-1.1,0.2c-0.6,0.2-1.1,0.5-1.7,0.8c-0.8,0.4-1.6,0.9-2.4,1.4
		c-0.9,0.6-1.9,1.2-2.8,1.8c-0.7,0.5-1.5,1-2.2,1.4c-0.2,0.1-0.5,0.2-0.7,0.3c-0.2,0-0.3,0-0.4-0.1c-0.2-0.1-0.2-0.4-0.2-0.6
		c0-0.3,0.2-0.5,0.3-0.8c0.3-0.5,0.6-0.9,0.9-1.3c0.6-0.8,1.4-1.4,2.2-2.1c0.9-0.7,1.7-1.4,2.6-2c1-0.7,1.9-1.3,3-1.8
		c0.7-0.3,1.4-0.7,2.1-0.8c0.2,0,0.5,0,0.7,0c0.2,0,0.4,0,0.6,0.1c0.2,0.1,0.3,0.2,0.5,0.3c0.2,0.1,0.4,0.2,0.6,0.3
		c0.4,0.1,0.8-0.1,1.2-0.3c0.4-0.2,0.7-0.5,0.9-0.9C452.7,756.5,452.8,756.2,452.6,755.9z"/>
	<path d="M466.4,738.6c-0.9,2-1.7,4-2.5,6c-1.5,3.8-2.9,7.7-4.5,11.5c-0.9,2.1-1.8,4.1-2.4,6.3c-0.2,1-0.4,1.9-0.5,2.9
		c-0.1,0.8-0.1,1.6,0.5,2.1c0.5,0.5,1.3,0.5,1.9,0c0.4-1.6,0.7-3.2,1-4.8c0.2-1.2,0.4-2.4,0.7-3.6c0.1-0.2,0.1-0.5,0.2-0.7
		c0.1-0.1,0.2-0.3,0.3-0.4c0.3-1,0.7-1.9,1-2.9c0.6-1.7,1.2-3.3,1.8-5c0.6-1.6,1.2-3.2,1.7-4.8c0.6-1.5,1.1-3,1.7-4.5
		c0-0.6,0-1.1,0.1-1.7c0-0.2,0.1-0.4-0.1-0.6c-0.1-0.1-0.3-0.1-0.4-0.1C466.8,738.5,466.6,738.5,466.4,738.6z"/>
	<path d="M476.2,749.4c0.1-0.3,0.1-0.6,0.1-0.9c0-0.4-0.2-0.9-0.4-1.2c-0.3-0.4-0.7-0.7-1.2-0.8c-0.4-0.1-0.8,0-1.1,0.3
		c-0.2,0.2-0.3,0.5-0.3,0.8c-0.1,0.4-0.1,0.9,0.1,1.3c0.2,0.5,0.5,0.9,1,1.1c0.4,0.2,0.8,0.3,1.1,0.2
		C475.8,750,476.1,749.7,476.2,749.4z"/>
	<path d="M471.4,756.8c-0.5-0.2-0.9,0.2-1.3,0.6c-0.5,0.6-0.9,1.2-1.3,1.9c-0.8,1.3-1.4,2.7-1.9,4.2c-0.3,0.9-0.7,1.8-1,2.8
		c-0.2,0.5-0.3,1-0.2,1.5c0.1,0.3,0.3,0.7,0.5,0.9c0.3,0.2,0.8,0.3,1.2,0.3c0.7,0,1.4-0.2,2-0.5c0.9-0.4,1.7-0.9,2.4-1.5
		c1-0.8,1.9-1.6,2.9-2.4c0.8-0.8,1.7-1.5,2.6-2.2c0.6-0.5,1.2-1,1.8-1.4l-1.4-1.5c-0.4,0.3-0.7,0.7-1.1,1c-0.8,0.7-1.6,1.4-2.5,2.1
		c-0.6,0.5-1.2,0.9-1.7,1.4c-0.5,0.5-1,1-1.6,1.4c-0.6,0.5-1.2,0.9-1.9,1.3c-0.4,0.2-0.7,0.4-1.1,0.5c0.2-0.4,0.4-0.8,0.6-1.3
		c0.4-1,0.8-2.1,1.2-3.1c0.3-0.7,0.7-1.4,1-2.2c0.4-0.9,0.6-1.8,1-2.7c0.1-0.1,0.1-0.3,0.1-0.5C471.7,757.1,471.6,756.9,471.4,756.8
		z"/>
	<path d="M492.8,763.5c-1.5,0-2.6,0.1-3.7,0.3c-1.4,0.2-2.8,0.5-4.1,1c-1,0.3-2,0.8-2.9,1.3c-1.2,0.6-2.4,1.4-3.5,2.3
		c-1.3,1-2.5,2.2-3.5,3.6c0.3,0,0.5-0.1,0.8-0.2c0.4-0.2,0.8-0.4,1.1-0.6c0.7-0.4,1.4-0.9,2-1.4c0.8-0.6,1.5-1.2,2.2-1.8
		c0.5-0.4,0.9-0.9,1.2-1.4c0.3-0.5,0.4-1,0.5-1.5c0-0.5-0.1-0.9-0.3-1.3c-0.2-0.3-0.5-0.6-0.8-0.8c-0.5-0.4-1.1-0.8-1.7-1.1
		c-0.4-0.2-0.9-0.4-1.3-0.7c-0.3-0.2-0.5-0.5-0.7-0.9c-0.2-0.4-0.4-0.8-0.4-1.2c0-0.4,0.2-0.8,0.5-1.1c0.3-0.5,0.7-0.9,1.2-1.3
		c0.6-0.5,1.2-0.8,1.8-1.2c0.8-0.5,1.6-0.9,2.4-1.3c0.7-0.3,1.5-0.6,2.2-0.9c1-0.4,2.1-0.6,3.2-0.8c0.6-0.1,1.2-0.2,1.9-0.1
		c0.3,0,0.6,0,0.9,0.2c0.2,0.1,0.4,0.3,0.4,0.5c0.1,0.3,0,0.6-0.1,0.9c-0.2,0.4-0.5,0.8-0.9,1c-0.3,0.2-0.7,0.2-1,0.1
		c-0.3-0.1-0.6-0.3-0.8-0.5c-0.3,0-0.6,0-0.8,0.1c-0.5,0.1-1.1,0.2-1.6,0.4c-0.6,0.2-1.2,0.4-1.8,0.6c-0.8,0.3-1.6,0.6-2.4,1
		c-0.5,0.2-1,0.5-1.4,0.9c-0.2,0.2-0.4,0.4-0.4,0.6c-0.1,0.2-0.1,0.4-0.1,0.5c0.1,0.4,0.4,0.6,0.7,0.8c0.5,0.3,1,0.6,1.4,0.9
		c0.5,0.3,1.1,0.6,1.5,1c0.2,0.2,0.5,0.5,0.6,0.8c0.1,0.2,0.2,0.5,0.3,0.8c0.1,0.4,0,0.7,0,1.1c-0.1,0.5-0.2,1-0.4,1.5
		c-0.1,0.3-0.3,0.7-0.5,1c-0.4,0.7-0.9,1.4-1.4,2c-0.5,0.5-1,1-1.6,1.5c-1,0.9-2.1,1.8-3.3,2.6c-0.9,0.6-1.9,1.1-2.9,1.5
		c-0.5,0.2-1,0.4-1.5,0.4c-0.6,0.1-1.3-0.1-1.8-0.5c-0.3-0.2-0.5-0.4-0.5-0.7c0-0.2,0.2-0.4,0.3-0.5c0.2-0.3,0.4-0.6,0.6-0.9
		c0.5-0.8,1.1-1.4,1.7-2.1c0.9-1,1.9-2,2.9-2.8c0.7-0.5,1.4-1,2.1-1.5c0.8-0.5,1.7-0.9,2.6-1.3c1.5-0.6,3-1.1,4.5-1.5
		c0.9-0.2,1.9-0.4,2.9-0.6c1.3-0.2,3-0.3,4.3-0.3L492.8,763.5z"/>
	<path d="M495,763.4c-0.1,0.3-0.2,0.6-0.2,0.9c-0.1,0.6-0.1,1.3,0.2,1.8c0.3,0.6,0.9,0.9,1.5,1.1c1,0.4,2,0.6,3,0.6
		c1.2,0.1,2.4,0,3.5-0.2c1.1-0.2,2.2-0.4,3.2-0.7c1-0.3,1.9-0.6,2.8-1.2c0.3-0.2,0.5-0.4,0.8-0.5c0.2-0.1,0.4-0.1,0.5,0
		c0.1,0.1,0.1,0.3,0.1,0.4c0,0.2,0,0.5,0,0.7c0,0.4-0.2,0.8-0.6,1c-0.1,0.1-0.3,0.2-0.4,0.2c-0.3,0.1-0.7,0.3-1,0.4
		c-1.1,0.4-2.2,0.8-3.2,1.1c-1,0.3-2.1,0.6-3.2,0.8c-1.2,0.2-2.3,0.3-3.5,0.3c-0.9,0-1.8-0.2-2.6-0.5c-0.9-0.4-1.8-1-2.4-1.8
		c-0.5-0.6-0.8-1.2-1-1.9c-0.2-0.7-0.2-1.5-0.1-2.2c0.2-1,0.5-1.9,1-2.8c0.5-0.9,1.1-1.8,1.8-2.5c0.8-0.9,1.6-1.8,2.5-2.6
		c0.8-0.8,1.7-1.5,2.7-2.1c0.4-0.2,0.9-0.5,1.4-0.5c0.4-0.1,0.8-0.1,1.1,0.1c0.3,0.1,0.4,0.4,0.6,0.7c0.1,0.3,0.2,0.7,0.2,1
		c0,0.5-0.2,1-0.4,1.5c-0.2,0.5-0.4,1-0.7,1.5c-0.4,0.7-0.9,1.4-1.5,2c-0.6,0.6-1.2,1.1-1.8,1.6c-0.4,0.3-0.8,0.5-1.2,0.7
		c-0.4,0.2-0.8,0.4-1.2,0.6c-0.3,0.1-0.7,0.3-1,0.4c-0.3,0.1-0.7,0.2-1,0.2l1.2-2.4c0.5-0.2,0.9-0.3,1.3-0.5
		c0.5-0.3,1.1-0.6,1.5-0.9c0.5-0.4,1-1,1.3-1.6c0.2-0.6,0.3-1.2,0.2-1.8c-0.4,0.3-0.7,0.6-1.1,0.9c-0.7,0.6-1.3,1.3-1.9,2.1
		c-0.5,0.6-1,1.2-1.3,1.9C495.5,761.8,495.2,762.6,495,763.4z"/>
	<path d="M544.1,765.3l-3.2,2.4c1.1,1,2.5,1.6,3.9,2c1.3,0.3,2.6,0.4,4,0.4c1.7-0.1,3.4-0.4,4.8-1.2c1.2-0.7,2.1-1.8,2.5-3.1
		c0.3-1.1,0.2-2.4-0.4-3.4c-0.5-1-1.4-1.8-2.4-2.3c-0.6-0.3-1.3-0.4-2-0.5c-0.9-0.2-1.8-0.3-2.6-0.5c-0.6-0.1-1.2-0.3-1.7-0.6
		c-0.5-0.3-1-0.8-0.9-1.4c0-0.5,0.3-0.8,0.7-1.1c0.3-0.2,0.6-0.3,0.9-0.3c0.8-0.2,1.6-0.2,2.3-0.1c0.6,0.1,1.1,0.3,1.6,0.6
		c0.4,0.2,0.9,0.4,1.3,0.7l3-2.1c-0.8-0.7-1.6-1.2-2.6-1.7c-1.4-0.6-3-1-4.5-1c-1.9,0-3.8,0.4-5.2,1.6c-0.7,0.6-1.3,1.4-1.6,2.3
		c-0.3,0.9-0.4,1.9-0.2,2.8c0.2,0.9,0.6,1.8,1.3,2.4c0.5,0.5,1.2,0.7,1.9,1c0.7,0.3,1.5,0.5,2.2,0.7c0.8,0.2,1.7,0.2,2.5,0.4
		c0.5,0.1,1,0.3,1.5,0.6c0.4,0.3,0.7,0.6,0.8,1.1c0,0.4-0.2,0.7-0.4,0.9c-0.4,0.4-0.9,0.7-1.4,0.9c-0.8,0.2-1.6,0.2-2.5,0
		c-0.7-0.1-1.4-0.2-2.1-0.5C545.1,765.8,544.6,765.6,544.1,765.3z"/>
	<path d="M559.1,769.2l0.1-23.3c0.8-0.1,1.4,0.1,2.1,0.5c0.6,0.4,1,1,1.3,1.7c0.2,0.5,0.6,1,0.6,1.6v3.9c0.7-0.8,1.3-1.3,2.3-1.6
		c1.4-0.4,2.9-0.4,4.2,0.1c1.4,0.5,2.6,1.4,3.4,2.7c0.4,0.6,0.7,1.4,0.9,2.1c0.1,0.5,0.4,0.9,0.4,1.4v10.9h-4v-10.3
		c0-0.9-0.2-1.7-0.9-2.3c-0.8-0.7-1.8-1-2.9-1c-1.1,0-2.1,0.4-2.8,1.1c-0.6,0.6-0.6,1.4-0.6,2.3v10.3H559.1z"/>
	<path d="M581.6,757l-4,0.2c0.3-1,0.8-2.2,1.5-3c0.9-1,2-1.7,3.3-2.1c1.4-0.4,2.8-0.4,4.3-0.3c1.3,0.1,2.6,0.3,3.8,1
		c0.8,0.4,1.4,1.1,1.8,1.8c0.4,0.6,0.6,1.3,0.7,2c0.1,0.6-0.1,1.1-0.1,1.7v6.9c0,0.6,0.2,1.3,0.3,1.9c0.1,0.7,0.1,1.4,0.3,2
		c-0.5,0.1-1,0.1-1.5,0c-0.6-0.1-1.2-0.3-1.7-0.8c-0.3-0.3-0.6-0.8-0.6-1.3c-0.4,0.4-0.8,0.8-1.3,1.2c-0.8,0.5-1.6,0.9-2.5,1
		c-1.1,0.2-2.3,0.2-3.4,0c-1-0.1-1.9-0.3-2.8-0.8c-1.2-0.6-2-1.7-2.5-3c-0.3-1-0.4-2,0-3c0.3-0.9,0.9-1.7,1.8-2.2
		c1-0.7,2.2-0.9,3.4-1c1.1-0.1,2.2-0.2,3.3-0.3c0.7-0.1,1.4-0.2,2.1-0.4c0.6-0.2,1.2-0.4,1.5-0.9c0.2-0.3,0.3-0.7,0.3-1.1
		c0.1-0.4,0.1-0.8,0.2-1.2l0.8,3.9c-0.2,0.4-0.7,0.8-1,1.1c-0.3,0.3-0.6,0.5-1,0.7c-0.6,0.3-1.3,0.4-1.9,0.4
		c-1.2,0.1-2.5,0.2-3.7,0.6c-0.6,0.2-1.1,0.4-1.5,0.8c-0.4,0.4-0.6,1-0.5,1.5c0.1,0.7,0.6,1.2,1.2,1.5c0.7,0.4,1.6,0.5,2.4,0.5
		c1.1,0,2.1-0.3,3.1-0.7c0.7-0.3,1.3-0.7,1.7-1.4c0.3-0.5,0.4-1.1,0.4-1.8c0.1-1.3-0.2-2.6-0.1-3.9c0-1,0.1-2.2-0.5-2.9
		c-0.3-0.4-0.8-0.6-1.2-0.8c-0.7-0.2-1.4-0.4-2.2-0.4c-1.1,0-2.1,0.3-3,1C582.1,756,581.8,756.5,581.6,757z"/>
	<path d="M596.6,776.9l0.2-24.5h3.2v2.6c0.4-0.6,1.2-1.2,1.8-1.6c1.3-0.9,2.9-1.3,4.5-1.2c1.5,0.1,3,0.6,4.2,1.5
		c1.3,0.9,2.2,2.2,2.8,3.7c0.6,1.5,0.8,3.1,0.6,4.7c-0.2,1.7-0.8,3.4-1.9,4.8c-1,1.2-2.2,2.1-3.7,2.6c-1,0.4-2.1,0.5-3.2,0.4
		c-1.1-0.2-2.2-0.6-3.2-1.2c-1-0.6-1.9-1.4-2.7-2.3l-0.8-4.3h2.1c0.1,0.4,0.1,0.4,0.2,0.7c0.2,0.6,0.5,1.2,0.9,1.7
		c0.6,0.8,1.3,1.4,2.2,1.7c0.8,0.3,1.7,0.3,2.6,0.1c1-0.3,1.8-0.8,2.4-1.6c0.9-1,1.3-2.3,1.3-3.7c0-1.6-0.6-3.2-1.8-4.3
		c-0.9-0.8-2.2-1.2-3.4-1.1c-1.2,0.1-2.3,0.7-3.1,1.7c-0.6,0.7-1,1.6-1.3,2.5c-0.3,0.9-0.6,1.9-0.5,2.9V774c-0.1,0.8-0.2,1.4-0.8,2
		C598.5,776.6,597.5,777,596.6,776.9z"/>
	<path d="M629.2,764.5l4.1-0.1c-0.3,1.1-0.8,2.1-1.6,2.9c-1.2,1.2-2.8,1.9-4.4,2.3c-1.8,0.4-3.7,0.3-5.4-0.4c-1.7-0.7-3.1-1.8-4-3.3
		c-1.2-1.8-1.7-3.9-1.4-6c0.2-1.9,1.1-3.7,2.4-5.1c1.4-1.5,3.2-2.5,5.2-2.8c1.8-0.3,3.7,0.1,5.3,1c1.5,0.9,2.7,2.2,3.5,3.7
		c0.9,1.7,1.2,3.5,1,5.5h-14.6v-3.2h10.9c-0.2-1-0.7-1.6-1.5-2.3c-1.1-1-2.6-1.6-4.1-1.4c-1.2,0.2-2.4,0.8-3.1,1.8
		c-0.9,1.1-1.2,2.4-1.3,3.8c-0.1,1.2,0.1,2.4,0.7,3.4c0.7,1.2,1.9,2.1,3.3,2.4c1.2,0.3,2.4,0.1,3.5-0.5
		C628.2,765.5,628.8,765,629.2,764.5z"/>
	<polygon points="638.2,752.2 634.6,752.4 640,769.2 643.8,769.2 647.3,758.3 650.9,769.2 654.8,769.2 660.2,752.4 656.5,752.4 
		652.9,763.1 649.3,752.4 645.4,752.4 641.8,763.4 	"/>
	<path d="M665.5,756.9l-4,0.2c0.3-1,0.8-2.2,1.5-3c0.9-1,2-1.7,3.3-2.1c1.4-0.4,2.8-0.4,4.3-0.3c1.3,0.1,2.6,0.3,3.8,1
		c0.8,0.4,1.4,1.1,1.8,1.8c0.4,0.6,0.6,1.3,0.7,2c0.1,0.6-0.1,1.1-0.1,1.7v6.9c0,0.6,0.2,1.3,0.2,1.9c0.1,0.7,0.1,1.4,0.3,2
		c-0.5,0.1-1,0.1-1.5,0c-0.6-0.1-1.2-0.3-1.7-0.8c-0.3-0.4-0.6-0.8-0.6-1.3c-0.4,0.4-0.8,0.8-1.3,1.2c-0.8,0.5-1.6,0.9-2.5,1.1
		c-1.1,0.2-2.3,0.2-3.4,0c-1-0.1-1.9-0.3-2.8-0.8c-1.2-0.6-2-1.7-2.5-3c-0.3-1-0.4-2,0-3c0.3-0.9,0.9-1.7,1.8-2.2
		c1-0.7,2.2-0.9,3.4-1c1.1-0.1,2.2-0.2,3.3-0.3c0.7-0.1,1.4-0.2,2.1-0.5c0.6-0.2,1.2-0.4,1.5-0.9c0.2-0.3,0.3-0.7,0.3-1.1
		c0.1-0.4,0.2-0.8,0.3-1.2l0.8,3.9c-0.2,0.4-0.8,0.8-1.1,1.1c-0.3,0.3-0.6,0.5-1,0.7c-0.6,0.3-1.2,0.4-1.9,0.4
		c-1.2,0.1-2.5,0.2-3.7,0.6c-0.6,0.2-1.1,0.4-1.5,0.8c-0.4,0.4-0.6,1-0.5,1.5c0.1,0.7,0.6,1.2,1.2,1.5c0.7,0.4,1.6,0.5,2.4,0.5
		c1.1,0,2.1-0.3,3.1-0.7c0.7-0.3,1.3-0.7,1.7-1.4c0.3-0.5,0.4-1.1,0.4-1.8c0.1-1.3-0.2-2.6-0.1-3.9c0-1,0.1-2.2-0.5-2.9
		c-0.3-0.4-0.8-0.6-1.2-0.8c-0.7-0.2-1.4-0.4-2.2-0.4c-1.1,0-2.1,0.3-3,1C666.1,756,665.7,756.4,665.5,756.9z"/>
	<path d="M682.4,752.2l-4,0.2l7.1,17.1l-1.1,2.6c-0.1,0.4-0.2,0.8-0.2,1.3c0,0.7,0.2,1.4,0.6,2.1c0.4,0.8,1.1,1.4,1.8,1.8l9.1-24.8
		h-4.1l-4.5,12L682.4,752.2z"/>
	<path d="M699.4,765.2l-3.2,2.3c1.2,0.9,2.6,1.6,4.1,2c2.1,0.6,4.3,0.7,6.3,0.2c1.6-0.5,3.2-1.4,4.1-2.8c0.8-1.3,1.1-2.8,0.6-4.2
		c-0.4-1.1-1.3-1.9-2.4-2.5c-1.2-0.6-2.5-0.9-3.8-1c-0.9-0.1-1.7-0.2-2.5-0.6c-0.7-0.4-1.2-1-1.1-1.8c0.1-0.7,0.6-1.1,1.3-1.4
		c1-0.4,2.1-0.2,3.2,0.1c0.8,0.3,1.6,0.7,2.3,1.2l3-2.3c-1.2-1.1-2.7-1.9-4.3-2.3c-1.9-0.5-3.9-0.4-5.8,0.1
		c-0.9,0.3-1.8,0.6-2.5,1.2c-1.1,0.9-1.7,2.3-1.7,3.7c0,1.2,0.4,2.4,1.2,3.3c0.9,0.9,2.1,1.4,3.3,1.6c1.1,0.3,2.3,0.4,3.4,0.6
		c0.6,0.1,1.2,0.2,1.6,0.5c0.4,0.3,0.6,0.7,0.7,1.1c0,0.5-0.3,0.9-0.7,1.2c-0.6,0.4-1.3,0.7-2,0.8c-0.9,0.1-1.8,0-2.7-0.2
		C701,766.1,700.2,765.8,699.4,765.2z"/>
	<g>
		<defs>
			<rect id="SVGID_17_" x="1011.6" y="179.3" width="200" height="200.1"/>
		</defs>
		<clipPath id="SVGID_18_">
			<use xlink:href="#SVGID_17_"  style="overflow:visible;"/>
		</clipPath>
		<g style="clip-path:url(#SVGID_18_);">
			<defs>
				<rect id="SVGID_19_" x="1012" y="180" width="199" height="199"/>
			</defs>
			<clipPath id="SVGID_20_">
				<use xlink:href="#SVGID_19_"  style="overflow:visible;"/>
			</clipPath>
			<path style="clip-path:url(#SVGID_20_);fill:none;stroke:#000000;stroke-width:4;" d="M1180.4,210.6c38,38,38,99.5,0,137.5
				c-38,38-99.5,38-137.5,0c-38-38-38-99.5,0-137.5C1080.8,172.6,1142.4,172.6,1180.4,210.6z"/>
		</g>
	</g>
	<g>
		<defs>
			<rect id="SVGID_21_" x="1149.6" y="264.4" width="47.2" height="47.2"/>
		</defs>
		<clipPath id="SVGID_22_">
			<use xlink:href="#SVGID_21_"  style="overflow:visible;"/>
		</clipPath>
		<g style="clip-path:url(#SVGID_22_);">
			<defs>
				<rect id="SVGID_23_" x="1095" y="201" width="156" height="156"/>
			</defs>
			<clipPath id="SVGID_24_">
				<use xlink:href="#SVGID_23_"  style="overflow:visible;"/>
			</clipPath>
			<g style="clip-path:url(#SVGID_24_);">
				<defs>
					<rect id="SVGID_25_" x="1095" y="201" width="156" height="156"/>
				</defs>
				<clipPath id="SVGID_26_">
					<use xlink:href="#SVGID_25_"  style="overflow:visible;"/>
				</clipPath>
				<g style="clip-path:url(#SVGID_26_);">
					<defs>
						
							<rect id="SVGID_27_" x="1126.9" y="215" transform="matrix(-0.7071 0.7071 -0.7071 -0.7071 2199.2397 -353.957)" width="92.1" height="127.1"/>
					</defs>
					<clipPath id="SVGID_28_">
						<use xlink:href="#SVGID_27_"  style="overflow:visible;"/>
					</clipPath>
					<g style="clip-path:url(#SVGID_28_);">
						<defs>
							<rect id="SVGID_29_" x="1110" y="215" width="112" height="113"/>
						</defs>
						<clipPath id="SVGID_30_">
							<use xlink:href="#SVGID_29_"  style="overflow:visible;"/>
						</clipPath>
						<g style="clip-path:url(#SVGID_30_);">
							<defs>
								<rect id="SVGID_31_" x="1110" y="215" width="112" height="113"/>
							</defs>
							<clipPath id="SVGID_32_">
								<use xlink:href="#SVGID_31_"  style="overflow:visible;"/>
							</clipPath>
							<g style="clip-path:url(#SVGID_32_);">
								<defs>
									
										<rect id="SVGID_33_" x="1120.1" y="238.9" transform="matrix(-0.7071 0.7071 -0.7071 -0.7071 2182.8862 -360.6948)" width="92.1" height="65.6"/>
								</defs>
								<clipPath id="SVGID_34_">
									<use xlink:href="#SVGID_33_"  style="overflow:visible;"/>
								</clipPath>
								<g style="clip-path:url(#SVGID_34_);">
									<defs>
										<rect id="SVGID_35_" x="1159" y="274" width="28" height="28"/>
									</defs>
									<clipPath id="SVGID_36_">
										<use xlink:href="#SVGID_35_"  style="overflow:visible;"/>
									</clipPath>
									<polygon style="clip-path:url(#SVGID_36_);" points="1162.8,300.7 1159.9,297.8 1169.7,287.9 1159.5,277.7 1162.4,274.9 
										1172.6,285.1 1182.4,275.2 1185.3,278.1 1175.5,288 1186.3,298.8 1183.4,301.6 1172.6,290.8 									"/>
								</g>
							</g>
						</g>
					</g>
				</g>
			</g>
		</g>
	</g>
	<path d="M1049.7,246.5v-0.2c0-2.5,0.5-4.9,1.4-7.2c0.9-2.3,2.3-4.4,4-6.4c1.8-1.9,4.1-3.4,6.9-4.6c2.9-1.2,6.1-1.7,9.6-1.7
		c6.8,0,12.1,1.9,15.9,5.6c3.8,3.7,5.8,8.3,5.8,13.8c0,2.2-0.3,4.3-0.9,6.3c-0.6,2-1.5,4.1-2.8,6.1c-1.3,2-2.4,3.6-3.3,4.8
		c-0.9,1.2-2.3,2.8-4,4.8l-26,30v0.1h38.8v4h-44.9v-3.5l29.1-33.5c1.5-1.7,2.7-3.1,3.5-4.2c0.8-1,1.8-2.4,2.8-4.2
		c1.1-1.7,1.9-3.5,2.4-5.3c0.5-1.8,0.8-3.7,0.8-5.6c0-4.2-1.5-7.8-4.5-10.8c-3-3-7.2-4.5-12.6-4.5c-5.4,0-9.6,1.6-12.8,4.7
		c-3.1,3.1-4.7,6.9-4.7,11.2v0.2H1049.7z"/>
	<path d="M1111.4,268.1c0,10.1,1.7,17.8,5.1,23.3c3.4,5.5,8,8.2,13.8,8.2s10.4-2.7,13.8-8.2c3.4-5.5,5.1-13.3,5.1-23.3V262
		c0-10.1-1.7-17.9-5.1-23.4c-3.4-5.5-8-8.2-13.8-8.2s-10.4,2.7-13.8,8.2c-3.4,5.5-5.1,13.2-5.1,23.4V268.1z M1106.9,268v-5.9
		c0-11.4,2.1-20.2,6.2-26.4c4.1-6.2,9.9-9.3,17.2-9.3c7.3,0,13,3.1,17.2,9.3c4.1,6.2,6.2,15,6.2,26.4v5.9c0,11.3-2.1,20.1-6.2,26.3
		c-4.1,6.2-9.8,9.3-17.2,9.3c-7.3,0-13-3.1-17.2-9.3C1109,288.1,1106.9,279.3,1106.9,268z"/>
	<path d="M1050.9,328.1v-2c0-2.3,0.6-4.2,1.7-5.4c1.1-1.3,2.7-1.9,4.7-1.9c0.9,0,1.8,0.2,2.6,0.5c0.8,0.3,1.4,0.7,1.9,1.2
		c0.5,0.5,0.9,1.1,1.1,1.8c0.3,0.6,0.4,1.3,0.4,2v0.1h-2.4c0-0.4-0.1-0.9-0.2-1.3c-0.2-0.4-0.4-0.8-0.7-1.1
		c-0.3-0.3-0.7-0.6-1.1-0.8c-0.5-0.2-1-0.3-1.6-0.3c-1.2,0-2.2,0.4-2.9,1.3c-0.7,0.9-1.1,2.2-1.1,3.9v2c0,1.7,0.4,3,1.1,3.9
		c0.7,0.9,1.7,1.3,3,1.3c1.1,0,2-0.3,2.7-0.9c0.6-0.6,0.9-1.4,0.9-2.3h2.4v0.1c0,0.5-0.1,1-0.2,1.5c-0.1,0.5-0.4,1-0.7,1.4
		c-0.3,0.4-0.7,0.9-1.2,1.2c-0.5,0.3-1,0.6-1.7,0.8c-0.7,0.2-1.4,0.3-2.2,0.3c-2,0-3.6-0.6-4.7-1.9
		C1051.4,332.2,1050.9,330.4,1050.9,328.1z"/>
	<polygon points="1070.3,335 1070.3,319 1072.8,319 1072.8,325.7 1080.4,325.7 1080.4,319 1082.8,319 1082.8,335 1080.4,335 
		1080.4,327.8 1072.8,327.8 1072.8,335 	"/>
	<polygon points="1090.6,335 1090.6,319 1100.4,319 1100.4,321.1 1093,321.1 1093,325.9 1100,325.9 1100,327.9 1093,327.9 
		1093,332.9 1100.4,332.9 1100.4,335 	"/>
	<path d="M1110.5,328.5h4.6l-2.2-6.9h-0.1L1110.5,328.5z M1106,335l5.6-16h2.6l5.6,16h-2.6l-1.5-4.6h-5.7l-1.5,4.6H1106z"/>
	<path d="M1128.3,327.2h2.2c0.7,0,1.3,0,1.7-0.1c0.5-0.1,0.9-0.2,1.3-0.5c0.4-0.2,0.6-0.5,0.8-0.9c0.2-0.4,0.3-0.9,0.3-1.5
		c0-1-0.3-1.7-0.8-2.2c-0.5-0.5-1.3-0.8-2.2-0.8h-3.3V327.2z M1125.9,335v-16h6c1.6,0,2.8,0.5,3.8,1.4c0.9,0.9,1.4,2.2,1.4,3.7
		c0,1.5-0.5,2.7-1.4,3.7c-0.9,0.9-2.2,1.4-3.8,1.4h-3.6v5.8H1125.9z"/>
	<polygon points="1143.7,335 1143.7,319 1153.5,319 1153.5,321.1 1146.1,321.1 1146.1,325.9 1153.1,325.9 1153.1,327.9 
		1146.1,327.9 1146.1,332.9 1153.5,332.9 1153.5,335 	"/>
	<path d="M1163.1,326.8h3.2c1,0,1.8-0.2,2.4-0.7c0.6-0.5,0.8-1.2,0.8-2.1c0-1-0.3-1.7-0.8-2.2c-0.6-0.5-1.3-0.8-2.3-0.8h-3.3V326.8z
		 M1160.7,335v-16h6c0.9,0,1.7,0.1,2.3,0.4c0.7,0.3,1.2,0.6,1.7,1.1c0.4,0.5,0.7,1,1,1.5c0.2,0.6,0.3,1.2,0.3,1.9
		c0,0.6-0.1,1.2-0.3,1.7c-0.2,0.5-0.4,1-0.7,1.3c-0.3,0.3-0.6,0.6-0.9,0.9c-0.3,0.2-0.7,0.4-1,0.5l3.2,6.7h-2.7l-2.9-6.2h-3.5v6.2
		H1160.7z"/>
</g>
<rect x="386.8" y="263.4" style="fill:none;stroke:#000000;stroke-width:2.4;" width="55.2" height="443.8"/>
<rect x="594.8" y="363.3" style="fill:none;stroke:#000000;stroke-width:2.4;" width="55.5" height="343.1"/>
<rect x="848.8" y="685.8" style="fill:#454CDC;" width="55.2" height="20"/>
<rect x="1110.4" y="698.8" style="stroke:#000000;stroke-width:2.4;" width="55.2" height="8"/>
<rect x="175" y="197.1" style="fill:none;stroke:#000000;stroke-width:2.4;" width="62.3" height="509.1"/>
</svg>
