<?xml version="1.0" encoding="UTF-8" standalone="no"?>
<svg
   xmlns:dc="http://purl.org/dc/elements/1.1/"
   xmlns:cc="http://creativecommons.org/ns#"
   xmlns:rdf="http://www.w3.org/1999/02/22-rdf-syntax-ns#"
   xmlns:svg="http://www.w3.org/2000/svg"
   xmlns="http://www.w3.org/2000/svg"
   id="svg4292"
   version="1.1"
   viewBox="0 0 170 150"
   height="150pt"
   width="170pt">
  <metadata
     id="metadata4337">
    <rdf:RDF>
      <cc:Work
         rdf:about="">
        <dc:format>image/svg+xml</dc:format>
        <dc:type
           rdf:resource="http://purl.org/dc/dcmitype/StillImage" />
        <dc:title></dc:title>
      </cc:Work>
    </rdf:RDF>
  </metadata>
  <defs
     id="defs4294">
    <clipPath
       id="clip1">
      <path
         id="path4297"
         d="m 49,521 14,0 0,17 -14,0 z m 0,0" />
    </clipPath>
    <clipPath
       id="clip2">
      <path
         id="path4300"
         d="m 63.90625,538.61719 -15.683594,-0.54688 0.632813,-18.16015 15.6875,0.55078 z m 0,0" />
    </clipPath>
    <clipPath
       id="clip3">
      <path
         id="path4303"
         d="m 115,519 14,0 0,17 -14,0 z m 0,0" />
    </clipPath>
    <clipPath
       id="clip4">
      <path
         id="path4306"
         d="m 113.22266,518.96094 15.68359,-0.55078 0.63672,18.16015 -15.6875,0.54688 z m 0,0" />
    </clipPath>
  </defs>
  <g
     transform="translate(-3.5654963,-447.67412)"
     id="surface188063">
    <path
       id="path4311"
       d="m 111.59766,571.04297 c 0.67968,-0.0742 3.57812,-0.50781 3.60156,-0.54297 -1.07422,0.17578 -3.39844,0.48828 -3.60156,0.54297 z m -5.94141,0.71875 c 1.08984,-0.0859 3.45313,-0.3711 4.19531,-0.48438 -1.25,0.16407 -3.80468,0.41797 -4.19531,0.48438 z m 9.03516,-1.25391 c 1.54297,-0.25 4.34765,-0.73047 5.02343,-0.89062 -1.5,0.29687 -4.32812,0.7539 -5.02343,0.89062 z m -82.980472,-7.47656 c 0.816406,0.39844 4.644531,1.99219 4.65625,1.96094 -1.457032,-0.55469 -4.394532,-1.8711 -4.65625,-1.96094 z m 15.78125,5.40234 c 0.960937,0.26953 3.125,0.76563 3.820312,0.90235 -1.164062,-0.25391 -3.464844,-0.83985 -3.820312,-0.90235 z m 8.917968,1.95703 c 2.144532,0.38672 4.488282,0.7461 4.054688,0.64454 -0.703125,-0.0781 -3.820313,-0.64063 -4.054688,-0.64454 z m 56.218754,-0.9375 c -2.32422,0.34766 -4.04688,0.52735 -5.65625,0.70313 -8.06641,0.88672 4.12109,-0.42578 5.65625,-0.70313 z m -39.390629,2.97266 c -1.648437,-0.12891 -2.953125,-0.24219 -3.742187,-0.30469 1.515625,0.14844 3.648437,0.33203 3.742187,0.30469 z m 14.359375,0.5 c 0.371094,0.0195 8.941406,-0.15234 13.617184,-0.52734 -3.976559,0.29297 -13.988278,0.50781 -13.617184,0.52734 z m 5.589844,-1.81641 c -5.488281,0.19532 -14.292969,-0.0391 -18.242188,-0.28906 -3.917968,-0.2539 7.039063,0.64063 17.171876,0.37891 10.160152,-0.26172 1.789062,-0.0781 5.898437,-0.32422 4.082035,-0.25 -3.933594,0.19531 -8.050781,0.26953 -4.089844,0.0742 2.730468,-0.043 3.222656,-0.0352 z m 0.242188,-0.1289 c 1.992187,-0.0625 3.699218,-0.15625 4.824218,-0.24219 -2.039062,0.10938 -4,0.17188 -4.824218,0.24219 z m 45.746092,-7.5586 c 0.97656,-0.0352 7.10547,-2.26171 11.60547,-5.27734 1.11719,-0.75391 2.13672,-1.53125 3.07812,-2.35156 6.59375,-5.98828 7.3711,-13.45313 1.875,-19.85547 -1.08984,-1.26563 -2.40234,-2.49609 -3.99609,-3.72266 -2.39062,-1.83984 -5.32812,-3.58593 -8.82031,-5.21093 -1.7461,-0.81641 -4.14453,-1.78125 -5.3125,-2.21875 -1.16797,-0.4375 -2.36719,-0.85938 -3.59375,-1.25782 -1.625,-0.53515 -3.29688,-1.03515 -5.06641,-1.51562 -6.19531,-1.72656 -12.65234,-2.88672 -19.52734,-3.73438 -3.4375,-0.42578 -7,-0.76562 -10.687501,-1.03515 -1.847657,-0.13672 -9.820313,-0.3711 -12.648438,-0.32422 2.734375,-0.0898 -10.34375,0.3164 -9.757812,0.28125 -1.445313,0.11328 -2.949219,0.23437 -4.441407,0.36719 -1.496093,0.13281 0.390626,-0.0234 2.292969,-0.15235 -1.683593,0.13672 -3.359375,0.28516 -5.054687,0.45703 -1.777344,0.17578 -3.542969,0.375 -5.339844,0.61328 -5.855469,0.7461 -11.902344,1.94532 -16.796875,3.25391 -1.671875,0.4375 -3.675781,0.99609 -5.820313,1.6875 -1.070312,0.34375 -2.179687,0.72266 -3.300781,1.13281 -1.121093,0.40625 -3.050781,1.14844 -4.863281,1.94922 -7.253906,3.20703 -12.605469,7.22656 -15.277344,11.125 -2.675781,3.89844 -2.707031,7.61328 -2.230468,9.83985 0.476562,2.22656 0.996093,3.05468 0.507812,1.71484 -1.101562,-3.03125 -0.726562,-3.8125 -0.707031,-3.58594 0.02344,0.23047 0.144531,1.42969 0.351562,2.2461 0.234375,0.95703 0.6875,2.23046 1.503907,3.61328 -0.03516,-0.0352 -0.109376,-0.13282 -0.230469,-0.33985 1.445312,2.64063 4.6875,6.23047 9.867187,9.28907 -0.957031,-0.58204 -2.089844,-1.33985 -2.476562,-1.63282 2.3125,1.6211 0.441406,0.31641 2.128906,1.33594 2.34375,1.42969 4.4375,2.41016 5.003906,2.67578 0.5625,0.26172 -0.554687,-0.16015 -3.445312,-1.78125 2.695312,1.4961 5.273437,2.63281 8.078125,3.70313 1.402343,0.53515 1.96875,0.72265 2.875,1.02734 0.902343,0.30078 1.863281,0.60938 2.9375,0.9375 1.625,0.51563 0.738281,0.23438 0.25,0.0977 2.84375,0.90625 9.839843,2.58984 10.503906,2.75 0.335937,0.0781 -4.539063,-0.94922 -8.71875,-2.16407 -4.179687,-1.21484 -7.691406,-2.57031 -6.148437,-1.99218 1.253906,0.46875 3.957031,1.35547 5.003906,1.6875 -2.335938,-0.70703 -4.441406,-1.42578 -6.769532,-2.32032 2.519532,0.99219 4,1.46875 5.234376,1.875 -1.542969,-0.49609 -2.566407,-0.85937 -3.007813,-1.0039 2.164063,0.78125 3.847656,1.33594 6.628906,2.11719 1.238281,0.33593 -1.066406,-0.30079 1.59375,0.40625 0.484375,0.10937 -1.742187,-0.48438 -1.578125,-0.45704 2.125,0.58985 6.527344,1.63282 7.644532,1.86329 1.089843,0.21875 -2.710938,-0.60547 -2.789063,-0.63672 8.5625,2.00781 19.359375,3.18359 22.714844,3.44531 3.382812,0.26562 0.210937,0.0117 -1.21875,-0.12109 3.921875,0.33203 6.914062,0.51953 11.652343,0.6289 3.039063,0.0703 1.828126,0.0312 0.683594,0 0.804688,0.0117 1.519532,0.0156 1.984375,0.0195 0.339844,0 1.210938,0 1.800781,-0.004 -1.863281,-0.008 -5.335937,-0.0703 -6.847656,-0.13672 2.78125,0.0781 9.421875,0.12109 11.835938,0.0312 -3.839844,0.082 -7.976563,0.0781 -12.269532,-0.10156 8.371094,0.3125 17.050782,0.0742 23.664068,-0.57813 -1.1836,0.10156 -1.70704,0.12109 -2.6836,0.17969 2.53516,-0.16797 6.25781,-0.51563 8.45703,-0.82813 1.21875,-0.15625 3.61719,-0.48828 5.96875,-0.875 -4.12109,0.65625 -6.97656,0.98047 -9.96484,1.28907 0.0625,-0.0117 0.33203,-0.043 0.84375,-0.10157 -6.691408,0.64844 -10.640626,0.89063 -15.535158,0.9961 -0.375,0.004 -0.753906,0.008 -1.144531,0.0117 -1.582031,-0.0117 3.992188,-0.10938 4.546875,-0.15235 -7.226562,0.25 -15.148437,-0.0156 -18.667968,-0.27344 8.519531,0.53125 16.195312,0.4375 22.609374,0.0352 -1.660156,0.0625 -8.148437,0.30469 -11.246093,0.27734 14.097661,0 15.433591,-0.63281 16.554691,-0.73437 -1.0625,0.0898 -2.12891,0.16797 -3.23047,0.24219 0.27344,-0.0274 0.54297,-0.0508 0.82422,-0.0781 6.10156,-0.45312 13.01562,-1.46484 12.66406,-1.42187 -0.26563,0.0312 -5.63672,0.83203 -11.50781,1.30468 0.60937,-0.0625 1.22265,-0.13281 1.84765,-0.20312 6.84375,-0.62891 14.33985,-1.85547 20.51563,-3.26953 -1.01563,0.20312 -0.49219,0.0937 0.78125,-0.23047 -1.9336,0.44141 -4.74219,1.03906 -6.90625,1.42187 0.73828,-0.14843 2.0625,-0.40234 2.48047,-0.5 -1.06641,0.20704 -2.76953,0.52735 -3.31641,0.60157 3.05469,-0.55469 6.25781,-1.23828 9.27734,-2.01563 0.60547,-0.1875 -1.32031,0.32031 -1.16406,0.26172 2.88672,-0.71484 6.75391,-1.83594 8.67188,-2.51172 -2.23047,0.72266 -6.82032,2.02735 -8.30469,2.375 0.95703,-0.24609 1.90234,-0.5 2.86328,-0.77344 1.91406,-0.53125 2.8125,-0.80078 0.67187,-0.21093 -1.14843,0.3125 -1.1289,0.30078 -0.83984,0.21875 1.30859,-0.37891 5.69922,-1.7461 5.5625,-1.75 -1.08594,0.36328 -5.54687,1.6875 -6.71875,1.96484 0.86328,-0.26172 3.17969,-0.89844 3.40234,-0.99609 -4.9414,1.47656 -4.87499,1.32812 -6.17187,1.65625 0.57031,-0.12891 2.04297,-0.50391 1.99609,-0.47266 -3.17187,0.80859 -6.47265,1.50781 -9.98046,2.11328 0.3125,-0.0781 0.1914,-0.0859 -0.125,-0.0469 1.48828,-0.26172 3.03125,-0.53907 5.71484,-1.11328 -0.73047,0.10937 -3.20313,0.6289 -5.55078,1.05078 0.0195,-0.008 0.0391,-0.0195 0.0547,-0.0312 3.80468,-0.66016 9.3789,-1.92188 12.89453,-2.94532 -1.60938,0.44532 -7.7461,1.98047 -12.1875,2.78125 0.14062,-0.0312 0.27734,-0.0664 0.42187,-0.10156 -5.5625,1.02344 -12.42578,1.83594 -19.140624,2.27735 3.234374,-0.25782 6.996094,-0.53516 11.042974,-1.06641 1.85937,-0.24219 3.55468,-0.50391 5.30859,-0.80859 2.50781,-0.40235 7.40625,-1.3125 11.62109,-2.38672 4.21094,-1.07813 7.73047,-2.28516 8.44531,-2.54688 1.56641,-0.57031 -11.88671,3.33203 -11.96874,3.33985 -0.0859,0.004 6.45312,-1.6211 3.39453,-0.83985 -1.59766,0.41016 -5.16797,1.23438 -7.84766,1.74219 -0.0977,-0.008 -0.19531,-0.0156 -0.29687,-0.0234 2.34375,-0.4414 5.02734,-1.05078 5.14453,-1.02734 1.11718,-0.26172 3.42187,-0.8125 3.75781,-0.92969 -0.37109,0.0937 -0.92969,0.23828 -0.92969,0.22656 0.53125,-0.13672 1.29688,-0.33203 1.37109,-0.36718 -2.6289,0.69531 -6.40624,1.53515 -9.48828,2.10546 -0.26562,0.0391 -0.52734,0.0742 -0.80078,0.10938 0.0547,-0.0156 2.46485,-0.46484 4.47657,-0.90234 2.12109,-0.46485 -2.27344,0.49218 -5.91016,1.11328 -0.57813,0.082 -1.16016,0.16406 -1.76172,0.24609 1.27344,-0.19922 2.73438,-0.44531 4.42578,-0.76562 1.96875,-0.39063 1.91016,-0.40625 3.82422,-0.84375 -3.53906,0.76953 -8,1.53906 -11.66406,2.04296 -1.33985,0.15235 -2.69141,0.29297 -4.09375,0.42188 3.09765,-0.34766 5.89453,-0.77344 7.53906,-1.05078 1.32422,-0.20703 2.69141,-0.44531 3.17188,-0.54688 -1.22266,0.20703 1.9414,-0.3789 1.45703,-0.32031 -1.70703,0.35547 -5.21094,0.91797 -6.48438,1.14844 -2.79687,0.40234 -5.91406,0.76562 -8.71094,1.02344 -0.35937,0.0273 -0.71484,0.0547 -1.08593,0.082 2.38281,-0.20703 4.625,-0.44532 7.09765,-0.77735 -1.125,0.0977 -8.04297,0.85547 -13.175779,1.14453 -10.445312,0.4961 -21.273437,0.29688 -31.382812,-0.92578 -0.414063,-0.0508 -1.003907,-0.1289 -1.648438,-0.22265 -0.726562,-0.10938 -1.445312,-0.22266 -2.1875,-0.34375 2.382813,0.34765 4.546875,0.60547 6.335938,0.78906 -7.210938,-0.8125 10.464843,0.78906 11.628906,0.80469 -6,-0.27735 -14.574219,-1.00782 -22.753906,-2.4961 -4.089844,-0.74609 -8.070313,-1.66406 -11.644531,-2.67968 -3.570313,-1.01172 -6.109376,-1.80469 -10.332032,-3.59766 2.03125,0.85547 3.125,1.23437 3.308594,1.30078 0.1875,0.0625 -0.03906,0.0156 -2.28125,-0.89453 -1.214844,-0.49609 -2.371094,-1.00391 -3.496094,-1.53516 7.976563,3.73438 13.019532,4.90235 19.101563,6.27344 6.085937,1.37109 12.277343,2.27344 17.769531,2.78906 -6.519531,-0.66015 -15.890625,-2.36718 -18.347656,-2.97265 1.734375,0.39453 4.324218,0.91797 4.691406,0.97265 -3.132812,-0.63281 -13.015625,-3.16797 -15.660156,-4.11718 6.5,2.23046 15.171875,4.24609 23.941406,5.41796 8.769531,1.16797 17.484375,1.50782 23.566406,1.47657 -9.203125,0.0156 -20.039062,-0.76172 -29.722656,-2.46485 -9.683594,-1.69922 -17.140625,-3.5625 -25.84375,-7.73828 3.015625,1.46485 3.160156,1.46875 1.480469,0.73047 -5.667969,-2.54297 -9.859375,-5.38281 -12.574219,-8.39062 -0.539062,-0.61329 -0.464844,-0.40625 1.023438,1.02734 1.226562,1.17969 2.136718,1.85937 2.644531,2.21875 -1.035157,-0.78906 -10.226563,-10.03906 -3.054688,-2.6875 1.789063,1.83594 4.589844,3.96875 8.175781,5.91016 1.792969,0.96875 3.761719,1.89062 5.773438,2.72265 2.007812,0.82813 3.246094,1.26172 4.289062,1.625 4.167969,1.44531 5.984376,2 1.027344,0.32813 -4.960937,-1.67188 -10.8125,-4.52735 -12.640625,-5.6211 -1.828125,-1.09375 -1.578125,-0.80859 1.910157,1.04297 0.875,0.46485 2.035156,1.05078 3.460937,1.69141 1.425781,0.64062 3.539063,1.48437 4.640625,1.89062 2.199219,0.8125 4.707031,1.61719 6.941406,2.25 4.472656,1.26563 7.707032,1.9375 4.550782,1.17188 -1.570313,-0.38281 -3.546876,-0.89844 -5.667969,-1.53516 -1.0625,-0.3164 -2.160157,-0.66797 -3.265625,-1.04297 -1.101563,-0.37109 -1.609375,-0.53906 -3.464844,-1.2539 -7.417969,-2.8711 -12.542969,-6.32032 -15.152344,-8.84766 -2.617187,-2.53516 -1.605468,-1.66797 -1.125,-1.08203 0.484375,0.58203 -0.08203,0.86719 -2.15625,-2.91016 -2.078125,-3.78125 -1.328125,-4.07422 -1.25,-3.63281 0.07422,0.44141 0.386719,1.63672 0.203125,0.92188 -0.570312,-2.25782 -0.3125,-6.41407 3.273438,-10.39063 2.523437,-2.78516 7.992187,-6.22656 11.390625,-7.82031 -0.113282,0.0664 -4.046875,2.01562 -6.46875,3.66797 -2.417969,1.65625 -3.855469,2.92968 -1.753906,1.30078 2.574218,-2.01953 6.046874,-4.01563 9.949218,-5.72656 3.90625,-1.71485 6.195313,-2.42188 8.144532,-3.04297 3.894531,-1.24219 5.898437,-1.73438 3.214843,-1 7.207031,-2.02735 13.171875,-3.01172 18.289063,-3.71094 7.964844,-1.03125 17.691406,-1.41797 18.761718,-1.4375 0.628907,-0.008 6.664063,-0.19531 13.550782,0.11719 6.882816,0.3125 14.472656,1.21484 18.476566,1.91015 0.60547,0.0899 14.30859,3 15.42187,3.27735 3.04297,0.88672 5.08203,1.60937 6.67969,2.21093 1.59375,0.59766 4.11719,1.63672 5.85156,2.46485 3.47266,1.65625 7.19141,3.34765 11.16406,7.59765 3.32032,3.55079 3.60938,5.86719 3.75782,7.42579 0.14453,1.5625 -0.0664,2.39453 -0.20313,2.98828 -0.86328,3.71484 -2.95312,5.61718 -4.38281,7.0039 -1.42578,1.39063 -2.45313,2.31641 -5.23438,4.13672 -1.67968,1.09766 -4.76953,2.65625 -5.87109,3.25 -2.19922,1.1875 -3.35938,1.84766 -2.48047,1.78906 z m -23.82812,6.52735 c 2.10937,-0.32813 5.84375,-1.04688 7.96484,-1.50391 -2.41406,0.57031 -5.49219,1.16406 -8.71484,1.65235 0.25,-0.0469 0.49609,-0.0977 0.75,-0.14844 z m -16.87891,1.3125 c 1.496094,-0.0898 3.28906,-0.19141 4.94922,-0.34375 1.56641,-0.14063 3.19141,-0.28906 5.53125,-0.58985 -0.21094,0.008 -4.07813,0.4336 -7.13672,0.67969 -0.004,-0.0117 -0.004,-0.0195 -0.004,-0.0312 1.48438,-0.1289 3.23047,-0.29297 5.28907,-0.51953 0.69922,-0.0742 1.39453,-0.15234 2.10937,-0.23828 0.0625,0.0117 -1.03515,0.15625 -1.44922,0.19922 0.53516,-0.0352 2.35547,-0.22656 4.66407,-0.55078 0.28125,-0.0352 0.55859,-0.0703 0.84765,-0.10547 0.32422,-0.0234 -1.41797,0.2539 0.52735,-0.043 -1.35938,0.23437 -4.94922,0.69141 -7.22266,0.94141 2.53516,-0.33204 -7.121095,0.60156 -9.539064,0.70312 0.472656,-0.0312 0.945313,-0.0664 1.433594,-0.10156 z m -18.921875,1.37109 c -1.332031,-0.0547 -2.664063,-0.1289 -4.03125,-0.21484 1.964844,0.12109 3.476563,0.1875 4.867187,0.23828 -0.277343,-0.008 -0.550781,-0.0156 -0.835937,-0.0234 z M 37.214844,524.89844 c -0.78125,0.30078 -2.511719,0.98047 -4.007813,1.64453 -1.496093,0.66406 -3.003906,1.39453 -4.441406,2.17187 -2.878906,1.55469 -5.433594,3.30469 -7.351563,5.00391 -3.832031,3.39062 -5.046874,6.55078 -5.179687,6.94531 -0.484375,1.19531 -0.78125,2.41406 -0.867187,3.67969 0.257812,-3.99219 2.785156,-8 6.90625,-11.37891 2.0625,-1.6914 4.503906,-3.23828 7.125,-4.61328 2.621093,-1.37109 6.246093,-2.86328 7.816406,-3.45312 z m -19.707032,17.86718 c -0.105468,0.40235 -0.117187,0.23829 0.195313,-0.73828 0.835937,-2.59375 2.648437,-4.68359 3.617187,-5.69531 0.96875,-1.00781 0.8125,-0.96875 -0.644531,0.67188 -1.242187,1.39843 -2.617187,3.64062 -3.109375,5.29296 -0.492187,1.65235 -0.460937,2.72657 -0.378906,1.83204 0.234375,-2.375 1.34375,-4.78516 3.546875,-7.24219 1.699219,-1.875 3.957031,-3.64453 6.851563,-5.35547 -6.207032,3.76562 -9.222657,7.73437 -10.078126,11.23437 z m 13.871094,-13.25 c -2.597656,1.28516 -5.289062,2.88672 -7.433594,4.56641 1.855469,-1.46094 4.097657,-2.88672 6.835938,-4.28125 0.195312,-0.0937 0.394531,-0.1875 0.597656,-0.28516 z m 3.542969,-1.57031 c -5.917969,2.4961 -10.347656,5.26563 -5.394531,2.5586 1.113281,-0.60547 2.300781,-1.20313 3.609375,-1.80079 0.574219,-0.2539 1.164062,-0.5039 1.785156,-0.75781 z m 3.300781,-1.28125 c -0.05078,0.008 -0.691406,0.20313 -2.699218,1.02735 4.089843,-1.6836 8.621093,-3.01954 8.375,-2.92188 -1.824219,0.55078 -3.769532,1.1875 -5.675782,1.89453 z m 3.273438,-3.29297 c -1.777344,0.5586 -3.304688,1.0586 -0.511719,0.14453 1.0625,-0.34765 2.148437,-0.68359 3.28125,-1.01171 -0.925781,0.27734 -1.84375,0.5625 -2.769531,0.86718 z m 34.914062,47.47266 c -0.914062,-0.0547 -4.367187,-0.30078 -6.347656,-0.48047 -0.21875,0.0703 7.625,0.58984 6.347656,0.48047 z M 89.5,571.11719 c -0.890625,0.0117 -4.394531,0.0117 -6.449219,-0.0274 -0.21875,0.0859 7.742188,0.0508 6.449219,0.0274 z m 25.00391,-49.83594 c -0.0117,0 -0.0195,0 -0.0312,-0.004 0.0117,0.004 0.0195,0.004 0.0312,0.004 z m 0,0"
       style="fill:#000000;fill-opacity:1;fill-rule:nonzero;stroke:none" />
    <path
       id="path4313"
       d="m 38.300781,543.98828 0,-58.07031 28.265625,22.66797 22.101563,-39.70313 21.765621,39.27344 28.14453,-24.53125 0,62.03516 c -15.14062,8.0039 -32.02734,12.14453 -49.152339,12.05468 -17.941406,-0.0937 -35.550781,-4.82422 -51.125,-13.72656 z m 0,0"
       style="fill:#ffffff;fill-opacity:1;fill-rule:nonzero;stroke:none" />
    <path
       id="path4315"
       d="m 69.792969,556.39844 c -0.789063,-0.13672 -4.164063,-0.87891 -4.195313,-0.92969 1.253906,0.30859 3.957032,0.84766 4.195313,0.92969 z m 6.875,1.13281 c -1.25,-0.13281 -3.984375,-0.57422 -4.847657,-0.75391 1.449219,0.26563 4.390626,0.66016 4.847657,0.75391 z m -10.488281,-2.01172 c -1.800782,-0.42969 -5.101563,-1.30469 -5.898438,-1.57422 1.769531,0.53516 5.085938,1.35156 5.898438,1.57422 z m 73.625002,-32.89062 c 0.0195,0.83593 0.0273,4.46093 -0.0156,4.47265 0.008,-1.32031 -0.0195,-4.20312 0.0156,-4.47265 z m -0.0937,20.21093 c 0.0156,0.84766 0.0156,2.31641 0.008,3.50782 -0.58984,0.30468 -1.10156,0.5664 -1.39453,0.70703 0.3789,-0.19532 0.86328,-0.44922 1.375,-0.72266 -0.008,-1.48828 -0.0117,-3.16406 0.0117,-3.49219 z m -7.13282,7.00782 c -2.42578,1.07031 -5.06249,2.08593 -4.60156,1.86328 0.81641,-0.28125 4.30078,-1.78125 4.60156,-1.86328 z m -64.175776,4.50781 c 2.660156,0.58594 4.609375,0.8789 6.429687,1.15234 9.132813,1.36328 -4.667969,-0.70703 -6.429687,-1.15234 z m 45.191406,1.6914 c 1.85156,-0.42968 3.31641,-0.8125 4.21484,-1.03515 -1.69921,0.46484 -4.08203,1.04687 -4.21484,1.03515 z m -16.179688,2.38672 c -0.414062,0.0508 -10.183593,0.375 -15.566406,-0.0703 4.566406,0.34766 15.976563,0.0156 15.566406,0.0703 z m -7.089843,-1.8125 c 6.144531,0.0117 15.839841,-1.15625 20.187501,-2.02343 4.31641,-0.85938 -7.65234,1.92187 -18.964845,2.08593 -11.34375,0.16407 -2.023437,0.0312 -6.636719,-0.21093 -4.582031,-0.2461 4.410156,0.1875 8.992188,0.0312 4.550781,-0.15235 -3.039063,0.0859 -3.578125,0.11718 z m -0.316407,-0.14062 c -2.222656,0 -4.140624,-0.082 -5.40625,-0.16797 2.28125,0.10547 4.464844,0.11328 5.40625,0.16797 z M 38.515625,542.64453 c -0.402344,-0.78906 -0.730469,-6.32812 -0.96875,-12.48828 -0.05078,-1.54688 -0.105469,-3.09766 -0.160156,-4.69922 -0.175781,-11.40234 -0.265625,-22.89453 -0.3125,-34.37109 -0.0039,-2.27344 -0.01172,-4.54688 -0.01953,-6.89063 0,-0.29297 -0.0039,-0.58594 -0.0039,-0.8789 5.144531,4.08984 10.332031,8.23437 15.550781,12.41015 1.804688,1.44531 3.613282,2.89453 5.472657,4.38281 2.730469,2.16407 5.421875,4.31641 8.097656,6.46875 2.28125,-4.09375 4.550781,-8.1289 6.84375,-12.25781 1.976563,-3.55469 3.984375,-7.19531 6.039063,-11 1.027343,-1.90625 5.449218,-9.83203 7.015624,-12.57422 -0.8125,1.36328 0.890626,-1.71875 2.601563,-4.78515 1.476563,2.66015 2.953125,5.34765 2.804687,5.07812 0.800782,1.51172 1.640626,3.0625 2.476563,4.58985 0.839844,1.53125 -0.222656,-0.35547 -1.285156,-2.25 0.941406,1.73046 1.882812,3.44531 2.839843,5.17578 1.003907,1.80468 2.007813,3.61328 3.042969,5.47656 3.375001,6.01562 6.996101,12.60547 10.117191,18.31641 0.62891,1.13671 1.33984,2.42187 2.11719,3.82031 7.89843,-6.88281 19.98828,-17.41016 29.04296,-25.29297 -0.008,11.69922 -0.0195,19.69141 -0.0273,15.60937 -0.0234,-10.21093 -0.0547,-4.88281 -0.0625,-2.13671 0,1.61328 -0.004,3.77343 -0.008,6.1875 0.0156,-0.0937 0.0273,-0.29688 0.0352,-0.67188 0.0117,4.55859 0.0586,10.95313 0.0156,17.28516 -0.008,-1.16407 -0.008,-2.66407 -0.0273,-3.19532 0,3.17969 -0.043,0.69141 -0.0586,2.77735 -0.0117,5.80078 -0.0234,8.57422 -0.0195,1.87109 -0.0391,6.24219 -0.10156,10.21485 -0.15625,16.33985 0.008,2.3164 0.004,1.04687 0.0234,0.36328 0.0156,2.67578 0.0156,7.6289 0.0195,10.94922 -1.48047,0.78515 -2.58594,1.34765 -2.83984,1.48046 -0.17579,0.0977 1.02343,-0.49218 2.87109,-1.46484 0.004,-6.68359 0,-20.83203 0.0234,-17.3125 0.0117,1.88672 0.004,5.8125 0.0195,7.30469 0.004,-3.3086 0.004,-7.38281 0.0195,-9.4961 0.008,2.29297 0.008,5.53125 0.0195,7.31641 0,-2.21875 0.008,-3.75 0.0234,-4.41016 0,3.2461 0.008,5.69141 0.004,9.55469 -0.0117,1.71094 -0.0352,-1.46484 -0.0352,2.17578 -0.0195,0.64844 -0.008,-2.40625 -0.0273,-2.1914 -0.008,1.82422 -0.008,4.76562 -0.0117,7.08203 -1.22266,0.64844 -2.25,1.16797 -2.73438,1.40625 -1.01172,0.49219 1.64453,-0.83985 2.72266,-1.41406 -0.004,-0.29297 -0.004,-0.48829 -0.008,-0.51172 0,0.16797 0,0.33984 0,0.50781 -9.70312,5.11328 -21.42968,8.65625 -25.14062,9.53516 -3.79687,0.90234 -0.24219,0.0625 1.35156,-0.35547 -4.40234,1.10547 -7.75,1.78515 -13.09375,2.43359 -3.421874,0.41406 -2.0664,0.23047 -0.77734,0.0703 -0.91016,0.10157 -1.71875,0.17578 -2.246097,0.22266 -0.386719,0.0312 -1.371094,0.11328 -2.039063,0.15625 2.101563,-0.16406 6.01953,-0.60547 7.71094,-0.87109 -3.13672,0.4414 -10.632814,1.0664 -13.394533,1.08593 4.363281,-0.10547 9.035163,-0.46484 13.847663,-1.21484 -9.406257,1.41797 -19.281257,1.5 -26.910163,0.61328 1.359375,0.14063 1.953125,0.16406 3.070312,0.23828 -2.90625,-0.20312 -7.1875,-0.71875 -9.746093,-1.20703 -1.417969,-0.25 -4.207032,-0.79297 -6.960938,-1.46875 4.828125,1.15625 8.121094,1.66797 11.566406,2.12109 -0.07031,-0.0195 -0.382812,-0.0664 -0.972656,-0.15234 7.699219,0.98438 12.242188,1.13672 17.808594,0.96094 0.425781,-0.0195 0.855468,-0.0391 1.296875,-0.0625 1.777343,-0.125 -4.550781,0.0937 -5.191407,0.0664 8.242188,0 17.11719,-1.28515 21.03907,-2.125 -9.53907,1.92579 -18.214851,2.32813 -25.562507,1.95704 1.882813,0.043 9.285156,0.0508 12.769531,-0.24219 -7.957031,0.59375 -12.394531,0.22265 -14.953125,0.0469 -2.554687,-0.17578 -3.277343,-0.27734 -3.921875,-0.34765 1.21875,0.125 2.4375,0.22656 3.699219,0.30859 -0.3125,-0.0312 -0.628906,-0.0625 -0.949219,-0.0937 -6.984375,-0.54297 -15.019531,-2.26562 -14.609375,-2.19141 0.308594,0.0586 6.550781,1.44141 13.277344,2.04688 -0.703125,-0.082 -1.40625,-0.17188 -2.128906,-0.26953 -7.847657,-0.87891 -16.5625,-2.98047 -23.972657,-5.62891 1.222657,0.40235 0.59375,0.19141 -0.933593,-0.40234 2.320312,0.83984 5.660156,1.9375 8.207031,2.63281 -0.871094,-0.25781 -2.433594,-0.72266 -2.929688,-0.89453 1.261719,0.38281 3.265626,0.96094 3.90625,1.10547 -3.585937,-0.98438 -7.382812,-2.23828 -11.035156,-3.6875 -0.730468,-0.33203 1.59375,0.60156 1.402344,0.5039 -3.472656,-1.32812 -8.230469,-3.47656 -10.636719,-4.75 2.804688,1.40625 8.410157,3.85938 10.199219,4.52344 -1.152344,-0.45312 -2.296875,-0.92969 -3.464844,-1.4375 -2.332031,-0.99609 -3.4375,-1.5039 -0.820312,-0.38281 1.402344,0.60156 1.375,0.57422 1.023437,0.42187 -1.585937,-0.69921 -7.039062,-3.3164 -6.859375,-3.28515 1.359375,0.69922 6.851563,3.21484 8.273438,3.7539 -1.046875,-0.46875 -3.878906,-1.6875 -4.148438,-1.85156 6.074219,2.80078 5.929688,2.50781 7.480469,3.10547 -0.683594,-0.24219 -2.457031,-0.9375 -2.398437,-0.89062 3.824218,1.50781 7.730468,2.79687 11.824218,3.86718 -0.367187,-0.125 -0.230468,-0.125 0.140625,-0.0469 -1.734375,-0.45703 -3.535156,-0.94922 -6.714843,-2.00391 0.863281,0.23047 3.785156,1.17578 6.519531,1.91406 -0.02344,-0.0156 -0.04297,-0.0273 -0.06641,-0.043 -4.433593,-1.16797 -11.050781,-3.4961 -15.34375,-5.41797 1.964844,0.85547 9.335938,3.72265 14.519532,5.14843 -0.164063,-0.0547 -0.328125,-0.11328 -0.496094,-0.16796 6.5,1.82031 14.332031,3.16406 21.941406,3.62109 -3.679687,-0.27734 -7.933594,-0.66406 -12.578125,-1.51953 -2.132812,-0.39453 -4.085937,-0.83203 -6.125,-1.35156 -2.90625,-0.70313 -8.625,-2.34375 -13.695312,-4.35938 -5.074219,-2.01562 -9.492188,-4.33203 -10.386719,-4.82422 -0.988281,-0.53906 2.503906,1.36328 6.386719,3.08985 3.882812,1.73046 8.160156,3.23046 8.210937,3.24218 0.101563,0.0156 -7.734375,-3 -4.054687,-1.53906 1.917969,0.76172 6.160156,2.28125 9.296875,3.19531 0.113281,0 0.226562,-0.004 0.34375,-0.004 -2.738282,-0.78516 -5.914063,-1.90235 -6.058594,-1.89063 -1.324219,-0.47656 -4.089844,-1.52344 -4.492188,-1.72265 0.445313,0.17968 1.117188,0.44921 1.121094,0.43359 -0.640625,-0.25391 -1.5625,-0.625 -1.652344,-0.68359 3.175782,1.30859 7.652344,2.86718 11.25,3.89062 0.304688,0.0742 0.613282,0.14453 0.929688,0.21484 -0.06641,-0.0234 -2.871094,-0.82031 -5.242188,-1.61718 -2.503906,-0.84375 2.6875,0.92187 6.902344,2.00781 0.667969,0.15625 1.339844,0.30469 2.03125,0.45312 -1.464844,-0.34375 -3.160156,-0.77343 -5.128906,-1.35156 -2.296875,-0.6875 -2.226562,-0.69922 -4.488281,-1.49219 4.175781,1.41407 9.335937,2.77735 13.53125,3.60547 1.527343,0.26953 3.0625,0.50391 4.648437,0.70703 -3.519531,-0.53515 -6.722656,-1.24609 -8.613281,-1.71484 -1.527344,-0.35937 -3.109375,-0.77734 -3.667969,-0.95312 1.414063,0.375 -2.257812,-0.66797 -1.695312,-0.54297 1.988281,0.62109 6.023437,1.60937 7.492187,1.97656 3.199219,0.6875 6.742188,1.26172 9.902344,1.625 0.402344,0.043 0.804687,0.0781 1.222656,0.11719 -2.691406,-0.28125 -5.230469,-0.64453 -8.046875,-1.17578 1.273438,0.17578 9.101563,1.35546 14.863282,1.59375 11.707031,0.3789 23.671877,-1.05079 34.839847,-4.5586 0.45703,-0.14062 1.10156,-0.35547 1.8086,-0.60156 0.79296,-0.28516 1.57812,-0.57422 2.38671,-0.88672 -2.63671,0.96094 -5.02734,1.69922 -7.0039,2.25 3.95703,-1.15234 1.1289,-0.26953 -2.89063,0.74609 -4.02343,1.01563 -9.29687,1.90235 -9.94922,1.98047 8.32813,-1.30859 21.0625,-4.76562 32.12109,-10.53125 -0.004,-7.02734 -0.008,-13.82031 -0.0234,-19.34765 -0.004,3.60937 -0.0117,4.76953 -0.0234,0.89843 -0.004,-1.04296 -0.008,-2.08984 -0.0117,-3.16796 -0.0195,7.21484 -0.008,14.55859 0,21.58593 -7.18359,3.74219 -14.39843,6.38672 -20.78125,8.0586 7.16017,-1.9336 17.57032,-6.42188 20.29297,-7.87891 -1.94922,1 -4.82812,2.33594 -5.2539,2.5 1.17578,-0.53516 3.28906,-1.50781 5.65235,-2.73828 0,-4.99219 0.0117,-11.19531 -0.0156,-13.58984 -0.008,4.24218 -0.0117,8.84765 -0.0117,13.57812 -13.84766,7.1875 -30.48438,10.70313 -40.750009,11.3125 12.800789,-0.81641 28.070319,-4.78516 40.707039,-11.34766 0,-8.07812 0.008,-15.67968 0.0273,-21.95312 0.008,2.92187 0.0195,2.95312 0.043,1.39844 0.0117,-5.24219 0.0195,-10.49219 0.0312,-15.90235 -0.0117,-1.07812 -0.0156,-0.70703 -0.0312,1.91016 -0.0117,2.14844 -0.008,3.39844 -0.0273,4.10547 -0.008,-1.4375 -0.004,-18.10547 -0.0195,-4.84375 -0.0117,13.21094 -0.0391,36.08594 -0.0508,22.69531 -0.0156,-13.32422 -0.0469,-18.57031 -0.0586,-11.30469 -0.0117,5.80078 -0.0469,21.51172 -0.0625,23.8125 -0.004,0.39063 -0.008,0.42188 -0.008,-0.004 0,-0.2461 0,-0.66407 -0.004,-1.26953 -0.004,-7.65235 -0.0352,-23.77735 -0.0273,-32.88672 0.0117,-9.15235 0.14062,6.07031 0.14453,-7.45313 0.004,-13.52734 -0.0469,-2.1914 -0.043,-4.77344 0,-2.79687 0,-7.19531 0,-11.97265 -1.71093,1.48828 -3.48437,3.03515 -5.22656,4.55469 -3.875,3.39062 -8.85546,7.72656 -11.37109,9.94921 0.16407,-0.11328 11.94922,-10.40625 7.28125,-6.30859 -6.89453,6.01172 -14.28125,12.45313 -17.90234,15.59766 -1.5625,-2.83203 -2.05469,-3.7461 -0.67969,-1.3125 -4.63672,-8.35157 -8.04297,-14.50782 -10.941409,-19.75 -3.847656,-6.85157 -8.222656,-14.74219 -9.777344,-17.53125 -0.265624,0.48047 -0.449218,0.8125 -0.53125,0.96875 -0.679687,1.2539 -12.992187,23.14453 -17.582031,31.70703 -0.148437,0.26172 -1.734375,3.09765 -3.566406,6.36328 -3.898437,-3.14453 -8.496094,-6.86328 -9.15625,-7.42578 -10.5,-8.3711 -10.847656,-8.60547 -18.121094,-14.44141 0,1.67578 0,3.64063 -0.0039,6.02344 -0.01172,12.90234 -0.03906,16.82812 -0.04297,19.00391 -0.02734,13.61718 0.02344,13.55078 -0.179687,20.13671 -0.0625,2.00782 -0.0625,5.14063 -0.164063,6.19141 -0.207031,2.12891 -0.46875,3.13281 -0.800781,2.4375 z m 26.855469,12.12891 c -2.457032,-0.57813 -6.839844,-1.8711 -9.367188,-2.72266 2.875,1.03516 6.496094,2.10938 10.238282,2.96875 -0.289063,-0.0781 -0.578126,-0.16016 -0.871094,-0.24609 z m 19.171875,2.17578 c -1.683594,-0.0898 -3.703125,-0.21094 -5.585938,-0.42188 -1.777343,-0.1914 -3.621093,-0.41015 -6.292969,-0.88281 0.238282,0.0156 4.640626,0.69531 8.097657,1.00781 0,-0.0117 -0.0039,-0.0234 -0.0039,-0.0351 -1.679687,-0.16797 -3.660156,-0.39453 -6,-0.74219 -0.792968,-0.11719 -1.585937,-0.24219 -2.398437,-0.37891 -0.07031,0.0117 1.183594,0.23438 1.65625,0.30469 -0.609375,-0.0625 -2.675781,-0.36719 -5.324219,-0.91797 -0.320312,-0.0586 -0.644531,-0.12109 -0.972656,-0.1875 -0.371094,-0.0508 1.636719,0.42188 -0.605469,-0.0898 1.570313,0.39062 5.683594,1.16015 8.269531,1.53515 -2.894531,-0.48437 8.070313,0.83594 10.785157,0.90625 -0.535157,-0.0273 -1.074219,-0.0586 -1.625,-0.0977 z m 21.871091,0.29297 c 1.4961,-0.23828 2.98828,-0.50782 4.51563,-0.82032 -2.19922,0.44532 -3.89453,0.72266 -5.46094,0.95313 0.3125,-0.043 0.625,-0.0859 0.94531,-0.13281 z m 11.3711,-57.02344 c 6.16797,-5.26563 18.43359,-16.03125 21.90234,-19.02734 -0.004,0.64453 -0.008,1.07812 -0.0156,1.24609 0.008,2.03125 0.0117,4.0625 0.0195,6.16016 0,-2.45313 0,-4.94141 0.004,-7.42579 -8.10156,7.05079 -16.16015,14.0586 -21.91015,19.04688 z m 19.65234,-10.44922 c 0.004,0.71484 0.008,0.41016 0.0156,-1.34766 0,-0.80859 0.004,-1.58984 0.008,-2.33593 -6.02735,5.21875 -9.19141,7.94531 -5.05469,4.33984 1.35937,-1.1875 3.28906,-2.86719 5.10547,-4.45703 0.004,4.33594 0.0117,8.18359 0.0195,6.08984 0.004,-2.04687 0.008,-4.09375 0.0117,-6.15234 -1.72656,1.49609 -3.46485,3.00781 -5.22656,4.54297 -2.60938,2.28906 -5.15625,4.55859 -7.75782,6.88672 4.48438,-3.90235 8.82032,-7.67578 12.88282,-11.21094 0,1.23437 -0.004,2.44922 -0.004,3.64453 z m -16.01172,10.37891 c 1.98047,-1.73047 4.34375,-3.79688 6.73047,-5.88282 -2.06641,1.79688 -4.13281,3.59766 -6.26172,5.44922 -0.15625,0.14453 -0.30859,0.28516 -0.46875,0.4336 z m -2.5625,2.29297 c 4.02735,-3.50391 8.0625,-7.03125 4.01563,-3.52344 -0.91016,0.79297 -1.82032,1.58203 -2.75782,2.39453 -0.41406,0.375 -0.82812,0.74609 -1.25781,1.12891 z m -2.49219,2.20312 c 0.0586,-0.0664 0.7461,-0.68359 2.08985,-1.85547 -2.73438,2.37891 -8.20313,7.12891 -7.96094,6.95703 1.82422,-1.57812 3.82031,-3.3164 5.87109,-5.10156 z m -3.2539,-0.43359 c 1.89062,-1.65235 3.53906,-3.09766 0.54687,-0.50782 -0.95312,0.83204 -1.91015,1.66016 -2.88672,2.50782 -0.11718,-0.21485 -0.23828,-0.4336 -0.35546,-0.64844 0.11718,0.21875 0.23437,0.4375 0.35546,0.65625 0.76954,-0.66406 1.54688,-1.32813 2.33985,-2.00781 z m -4.25781,50.625 c 1.0039,-0.1836 4.79687,-0.98828 6.98046,-1.53907 0.30469,0.0312 -8.35937,1.84375 -6.98046,1.53907 z m -14.460942,1.60937 c 0.992187,-0.0391 4.871093,-0.30078 7.140622,-0.54297 0.29297,0.0742 -8.554685,0.64844 -7.140622,0.54297 z M 70.535156,504.38672 c 0.0039,-0.008 0.01172,-0.0195 0.01563,-0.0274 -0.0039,0.008 -0.01172,0.0195 -0.01563,0.0274 z m 0,0"
       style="fill:#000000;fill-opacity:1;fill-rule:nonzero;stroke:none" />
    <path
       id="path4317"
       d="M 29.039062,441 37,441 l 0,100 -7.960938,0 z m 0,0"
       style="fill:#ffffff;fill-opacity:1;fill-rule:nonzero;stroke:none" />
    <path
       id="path4319"
       d="m 140,447.66797 7.96094,0 0,100 -7.96094,0 z m 0,0"
       style="fill:#ffffff;fill-opacity:1;fill-rule:nonzero;stroke:none" />
    <path
       id="path4321"
       d="m 86.179688,526.92578 c -0.101563,0.008 -0.519532,0.12109 -0.511719,0.15234 0.152343,-0.0547 0.488281,-0.11718 0.511719,-0.15234 z m 0.84375,-0.16797 c -0.15625,-0.004 -0.496094,0.0703 -0.597657,0.11328 0.179688,-0.0469 0.542969,-0.0781 0.597657,-0.11328 z m -1.265626,0.36719 c -0.214843,0.0703 -0.621093,0.19922 -0.707031,0.26172 0.210938,-0.0937 0.617188,-0.20703 0.707031,-0.26172 z m 10.226563,5.03125 c -0.01172,-0.10547 -0.160156,-0.54297 -0.191406,-0.53125 0.06641,0.15625 0.15625,0.50781 0.191406,0.53125 z m -1.183594,-2.27734 c -0.07422,-0.15235 -0.316406,-0.44532 -0.40625,-0.52344 0.132813,0.14844 0.351563,0.48828 0.40625,0.52344 z m -0.976562,-1.1875 c -0.261719,-0.25782 -0.554688,-0.50391 -0.523438,-0.42969 0.105469,0.0508 0.46875,0.42969 0.523438,0.42969 z m -7.457031,-0.33204 c 0.269531,-0.0859 0.476562,-0.0977 0.664062,-0.125 0.945312,-0.15234 -0.5,0.0234 -0.664062,0.125 z m 5.230468,-1.125 c 0.222656,0.10938 0.398438,0.19922 0.511719,0.2461 -0.199219,-0.11719 -0.480469,-0.27344 -0.511719,-0.2461 z m -1.996094,-0.64062 c -0.05078,-0.0312 -1.277343,-0.19141 -1.957031,-0.13672 0.578125,-0.0195 2.007813,0.16406 1.957031,0.13672 z m -0.972656,1.59766 c 0.628906,0.0351 1.609375,0.32812 2.042969,0.50781 0.425781,0.17969 -0.746094,-0.42578 -1.914063,-0.55469 -1.167968,-0.12891 -0.210937,0.0312 -0.683593,0.0391 -0.46875,0.0117 0.449219,0.0352 0.914062,0.0899 0.464844,0.0547 -0.304687,-0.0508 -0.359375,-0.082 z m -0.03906,0.11718 c -0.222656,-0.0234 -0.417969,-0.0234 -0.546875,-0.004 0.230469,0.0117 0.449219,0.0391 0.546875,0.004 z m -5.753906,1.32813 c -0.308594,-0.16406 -0.988282,0.15625 -1.566407,0.70312 -0.140625,0.14063 -0.277343,0.28516 -0.410156,0.44141 -0.796875,1.1875 -1.207031,2.62109 -1.195313,4.0625 0.0039,0.28516 0.01953,0.57031 0.05469,0.86328 0.09375,0.88281 0.347656,1.75781 0.75,2.58594 0.132812,0.27344 0.28125,0.54297 0.453125,0.80859 0.566406,0.96485 1.40625,1.76563 2.3125,2.39453 0.453125,0.31641 0.933594,0.59766 1.4375,0.86328 0.25,0.13282 1.40625,0.48829 1.828125,0.53516 -0.414062,-0.004 1.542969,0.17578 1.453125,0.17188 0.21875,-0.0234 0.445313,-0.0469 0.671875,-0.0703 0.226562,-0.0273 -0.0625,-0.0117 -0.347656,-0.0117 0.253906,-0.0195 0.503906,-0.0469 0.761718,-0.082 0.269532,-0.0312 0.535157,-0.0742 0.808594,-0.13281 0.898438,-0.17187 1.824219,-0.57812 2.546875,-1.06641 1.011719,-0.62109 2.679688,-2.32031 3.335938,-3.9375 0.660156,-1.61718 0.628906,-2.9375 0.566406,-2.375 -0.144531,1.27344 -0.121094,0.60938 -0.08203,0.27344 0.02344,-0.19922 0.04687,-0.46875 0.05859,-0.76562 0.01172,0.008 0.02344,0.0312 0.02734,0.0781 0.03516,-0.57031 0.03906,-1.38281 -0.164062,-2.14844 0.02734,0.14454 0.05859,0.33204 0.05078,0.40235 -0.0625,-0.39453 -0.04297,-0.0781 -0.105469,-0.32813 -0.15625,-0.70703 -0.261719,-1.03515 -0.06641,-0.22265 -0.207031,-0.75 -0.433594,-1.19922 -0.832031,-1.86328 -0.128906,-0.25782 -0.05859,-0.11719 -0.0039,-0.0469 -0.222657,-0.46484 -0.945313,-1.42578 -1.003907,-1.52344 -0.05859,-0.0976 1.597657,2.76953 1.398438,2.21875 -0.07813,-0.22265 -0.300781,-0.66797 -0.382813,-0.83984 0.207032,0.36719 0.410156,0.83984 0.515625,1.08203 -0.09375,-0.26953 -0.261719,-0.64453 -0.355469,-0.85156 0.128907,0.2539 0.207032,0.42969 0.25,0.5 -0.15625,-0.37891 -0.289062,-0.66016 -0.550781,-1.08203 -0.121093,-0.1836 0.08594,0.16797 -0.171875,-0.22266 -0.0625,-0.0625 0.15625,0.26172 0.128906,0.24609 -0.203124,-0.3164 -0.664062,-0.92187 -0.792968,-1.05859 -0.128906,-0.13672 0.292968,0.35938 0.292968,0.37891 -0.902343,-1.16797 -2.359374,-2.09375 -2.8125,-2.3125 -0.453124,-0.22266 -0.02734,-0.0117 0.15625,0.0976 -0.527343,-0.26953 -0.933593,-0.44531 -1.59375,-0.6289 -0.421874,-0.11719 -0.257812,-0.0625 -0.09766,-0.0117 -0.113281,-0.0273 -0.214844,-0.0469 -0.28125,-0.0625 -0.04687,-0.008 -0.171875,-0.0312 -0.253906,-0.043 0.261719,0.0625 0.742188,0.1875 0.949219,0.26953 -0.390625,-0.10937 -1.3125,-0.32812 -1.660157,-0.33984 0.542969,0.0781 1.121094,0.19531 1.699219,0.40625 -1.140625,-0.375 -2.378906,-0.54688 -3.328125,-0.39844 0.171875,-0.0117 0.246094,0.004 0.386719,0.0117 -0.363281,-0.004 -0.90625,0.0391 -1.214844,0.14453 -0.175781,0.0391 -0.519531,0.12891 -0.859375,0.24219 0.601563,-0.17578 1.011719,-0.24219 1.4375,-0.30469 -0.0078,0.004 -0.04687,0.0156 -0.117187,0.0312 0.960937,-0.082 1.515625,-0.13672 2.203125,-0.0547 0.05469,0.0117 0.105468,0.0195 0.160156,0.0312 0.214844,0.0664 -0.5625,-0.0508 -0.640625,-0.0351 1.011719,0.0937 2.09375,0.42968 2.542969,0.66406 -1.128906,-0.48438 -2.199219,-0.66016 -3.101563,-0.63672 0.234375,0.0391 1.136719,0.0937 1.558594,0.20312 -1.933594,-0.375 -2.144531,-0.12109 -2.304687,-0.10156 0.152343,-0.008 0.300781,-0.0156 0.453124,-0.0156 -0.03516,0.008 -0.07422,0.0156 -0.113281,0.0234 -0.851562,0.0391 -1.832031,0.29688 -1.78125,0.29688 0.04297,-0.004 0.800781,-0.21094 1.621094,-0.26172 -0.08594,0.0195 -0.167969,0.043 -0.253906,0.0664 -0.949219,0.0976 -1.984375,0.46484 -2.855469,0.90234 0.15625,-0.0469 0.07813,-0.0156 -0.08984,0.0977 0.277344,-0.12891 0.667969,-0.3125 0.972656,-0.41016 -0.09766,0.0469 -0.285156,0.12109 -0.335937,0.16016 0.148437,-0.0586 0.382813,-0.15235 0.464844,-0.16016 -0.414063,0.16406 -0.851563,0.375 -1.261719,0.62891 -0.06641,0.0781 0.183594,-0.0977 0.171875,-0.0664 -0.386719,0.23047 -0.917969,0.59766 -1.15625,0.83984 0.3125,-0.23437 0.917969,-0.67187 1.128906,-0.76953 -0.125,0.082 -0.25,0.16797 -0.371093,0.26172 -0.257813,0.17188 -0.371094,0.26172 -0.07813,0.0781 0.15625,-0.0977 0.15625,-0.0899 0.117188,-0.0625 -0.164062,0.13281 -0.746094,0.58203 -0.703125,0.60547 0.144531,-0.125 0.734375,-0.55469 0.902344,-0.625 -0.09766,0.10156 -0.410157,0.29296 -0.421875,0.33984 0.636718,-0.48438 0.640625,-0.41797 0.800781,-0.53125 -0.07813,0.0391 -0.269531,0.15625 -0.269531,0.13672 0.417968,-0.25 0.859375,-0.45703 1.324218,-0.61719 -0.03516,0.0391 -0.0078,0.0586 0.03906,0.0586 -0.195313,0.0703 -0.398437,0.15235 -0.753906,0.31641 0.117187,-0.004 0.4375,-0.15625 0.738281,-0.27734 0,0.008 0,0.0156 0,0.0234 -0.496094,0.17188 -1.222656,0.55469 -1.660156,0.88672 0.210937,-0.13672 1.007812,-0.59765 1.582031,-0.82031 -0.01563,0.0156 -0.03125,0.0312 -0.04687,0.0469 0.71875,-0.28125 1.613281,-0.41797 2.464844,-0.44141 -0.410156,0.0586 -0.890625,0.0508 -1.410156,0.17187 -0.238282,0.0547 -0.453126,0.12891 -0.671876,0.21875 -0.648437,0.19141 -2.394531,1.28907 -2.558593,1.46875 -0.183594,0.19141 1.519531,-1.01562 1.535156,-1.01171 0.01953,0.008 -0.804687,0.49609 -0.417969,0.25781 0.199219,-0.1211 0.652344,-0.36328 0.992188,-0.5 0.01953,0.0195 0.04297,0.0391 0.0625,0.0586 -0.292969,0.11719 -0.625,0.29688 -0.664063,0.25781 -0.136719,0.082 -0.4375,0.23047 -0.46875,0.28125 0.05078,-0.0273 0.117188,-0.0703 0.125,-0.0625 -0.06641,0.043 -0.164062,0.0977 -0.167969,0.11719 0.332032,-0.20312 0.8125,-0.43359 1.203126,-0.58594 0.03516,0 0.07422,0 0.109374,-0.004 -0.0039,0.008 -0.300781,0.13281 -0.550781,0.25781 -0.257812,0.13281 0.292969,-0.125 0.742188,-0.28125 0.07813,-0.0117 0.152343,-0.0195 0.230469,-0.0312 -0.15625,0.0469 -0.339844,0.10547 -0.546876,0.19141 -0.238281,0.11328 -0.21875,0.13672 -0.445312,0.26562 0.4375,-0.20312 0.980469,-0.39453 1.429688,-0.5039 0.167968,-0.0156 0.335937,-0.0234 0.507812,-0.0234 -0.371094,0.0703 -0.703125,0.17578 -0.898438,0.2539 -0.160156,0.0469 -0.324218,0.10157 -0.378906,0.14063 0.152344,-0.0469 -0.226562,0.10547 -0.15625,0.10937 0.191406,-0.10937 0.617188,-0.23046 0.757813,-0.3125 0.335937,-0.0898 0.710937,-0.15234 1.042969,-0.1875 0.04297,0 0.08594,0 0.128906,0.004 -0.28125,0.0234 -0.546875,0.0664 -0.839844,0.14453 0.144531,0.0156 0.957031,-0.10937 1.558594,-0.11719 1.214844,0.0742 2.488281,0.30079 3.570312,1.02344 0.04297,0.0274 0.101563,0.0781 0.167969,0.13281 0.06641,0.0664 0.132813,0.13282 0.203125,0.20313 -0.246094,-0.19531 -0.476562,-0.34375 -0.671875,-0.45703 0.746094,0.50781 -1.152344,-0.54297 -1.292969,-0.55469 1.316406,0.52344 3.445313,2.5 3.933594,4.04688 -0.128906,-0.36719 -0.179688,-0.48047 -0.05078,-0.082 0.03516,0.10547 0.06641,0.21485 0.09766,0.32813 -0.5,-1.56641 -1.730469,-3.05859 -2.910156,-3.67578 0.675781,0.40625 1.585937,1.28515 1.761719,1.57422 -0.148438,-0.1836 -0.378907,-0.44532 -0.425782,-0.46875 0.269532,0.32422 1.066406,1.43359 1.195313,1.80078 -0.808594,-1.72656 -3.175781,-3.33985 -4.535157,-3.55078 2.039063,0.39062 4.28125,2.69531 4.824219,4.40625 -0.07813,-0.30078 -0.07422,-0.3086 -0.0078,-0.15625 0.175781,0.53125 0.28125,1.08593 0.316406,1.66015 -0.0039,0.11328 -0.0039,0.0742 -0.03516,-0.19922 -0.02734,-0.22656 -0.04297,-0.35937 -0.07031,-0.42968 0.01172,0.15625 0.128906,1.91406 0.03516,0.51562 -0.09375,-1.39453 -1.234374,-3.60547 -0.632812,-2.30859 0.597656,1.29687 0.558594,1.88281 0.359375,1.14453 -0.199219,-0.73828 -1.570313,-2.80859 -1.074219,-2.13281 0.492188,0.67578 1.089844,2.28125 1.164063,3.22265 0.07813,0.94532 0.195312,-0.66015 0.128906,0.75782 -0.06641,1.42187 -0.04687,0.23437 -0.08203,0.5039 -0.05078,0.42578 -0.230469,1.20313 -0.558594,1.88672 -0.238281,0.48047 -0.640625,1.05859 -0.882812,1.32031 0,-0.0351 0.921874,-1.39062 0.574218,-0.84765 -0.8125,1.35937 -2.445312,2.35547 -1.808594,1.97265 -0.824218,0.5586 -1.507812,0.78125 -2.089843,0.92578 -0.921875,0.16797 -2,0.10157 -2.117188,0.0742 -0.136719,-0.0273 -2.613281,-0.73828 -3.289062,-1.48437 -0.05859,-0.043 -1.242188,-1.37891 -1.351563,-1.48828 -0.816406,-1.45703 -0.710937,-1.28516 -0.804687,-2.86719 -0.07422,-1.32422 0.121093,-1.72656 0.175781,-1.94531 0.351562,-1.36719 0.496094,-1.29688 0.777344,-1.9961 0.08594,-0.21093 0.304687,-0.48047 0.320312,-0.6289 0.02734,-0.29297 -0.03516,-0.53516 -0.292968,-0.66797 z m 2.953124,-2.05469 c -0.285156,0.0781 -0.78125,0.28906 -1.074218,0.41406 0.308594,-0.1914 0.730468,-0.35547 1.167968,-0.47265 -0.03125,0.0195 -0.0625,0.0391 -0.09375,0.0586 z m 2.238282,0.1875 c -0.183594,0 -0.40625,-0.0195 -0.609375,0.004 -0.195313,0.0195 -0.398438,0.0351 -0.683594,0.10937 0.02734,0.0117 0.507813,-0.0508 0.882813,-0.0781 0,0.008 0,0.0195 0,0.0273 -0.179688,0.0273 -0.390626,0.0547 -0.644532,0.0937 -0.08594,0.0117 -0.171875,0.0234 -0.257812,0.0391 -0.01172,-0.0156 0.121094,-0.0547 0.171875,-0.0586 -0.07031,-0.0156 -0.296875,0.008 -0.585938,0.0742 -0.03516,0.004 -0.07031,0.008 -0.109375,0.0117 -0.04687,-0.0117 0.167969,-0.0899 -0.07422,-0.0156 0.164062,-0.0781 0.621093,-0.15625 0.902343,-0.20312 -0.308593,0.10547 0.886719,-0.0547 1.183594,-0.0195 -0.05859,0.004 -0.117187,0.008 -0.175781,0.0156 z m 2.65625,-0.74609 c 0.179687,0.0664 0.359375,0.13672 0.542968,0.21875 -0.261718,-0.11328 -0.46875,-0.1875 -0.660156,-0.2461 0.03906,0.008 0.07813,0.0195 0.117188,0.0274 z m 3.105468,13.46875 c 0.859376,-0.94922 2.03125,-3.21094 2.042969,-3.37891 0.08203,-0.24219 0.152344,-0.48828 0.214844,-0.74219 -0.351563,1.6211 -1.355469,3.21485 -2.257813,4.1211 z m 0.347657,-4.21094 c 0.02344,-0.0742 0.02344,-0.043 -0.02734,0.13672 -0.265625,0.96094 -0.578125,1.49219 -0.304687,0.91797 0.234374,-0.4961 0.542968,-1.63282 0.472656,-1.29297 -0.09766,0.44531 -0.242188,0.88672 -0.445313,1.32422 -0.171875,0.32812 -0.382812,0.62109 -0.628906,0.90234 0.460937,-0.65234 0.761719,-1.33984 0.933594,-1.98828 z m -1.242188,2.3125 c 0.183594,-0.22266 0.382813,-0.49219 0.558594,-0.78125 -0.148437,0.25391 -0.3125,0.49609 -0.507813,0.73828 -0.01562,0.0156 -0.03516,0.0273 -0.05078,0.043 z m -0.273437,0.25 c 0.398437,-0.43359 0.730468,-0.89844 0.386718,-0.43359 -0.07812,0.10546 -0.160156,0.21093 -0.25,0.3125 -0.04297,0.043 -0.08984,0.082 -0.136718,0.12109 z m -0.269532,0.24609 c 0.01563,0.004 0.09375,-0.0586 0.230469,-0.19922 -0.273437,0.29297 -0.886719,0.79688 -0.871093,0.75391 0.207031,-0.15625 0.425781,-0.34375 0.640624,-0.55469 z m 0.839844,1.9961 c 0.265625,-0.20703 0.496094,-0.39453 0.08594,-0.0469 -0.15625,0.13281 -0.316406,0.25781 -0.484375,0.37891 0.132812,-0.10547 0.265625,-0.21485 0.398437,-0.33203 z m -2.707031,-12.39063 c 0.101563,0.0391 0.46875,0.21485 0.679687,0.32031 0.06641,-0.0625 -0.800781,-0.41406 -0.679687,-0.32031 z m -1.449219,-0.3789 c 0.101563,0.0117 0.492188,0.0937 0.71875,0.14843 0.05078,-0.0781 -0.855468,-0.21093 -0.71875,-0.14843 z m -5.027344,10.91015 c 0.0039,0.004 0.0039,0.004 0.0039,0.004 0,0 0,0 -0.0039,-0.004 z m 0,0"
       style="fill:#000000;fill-opacity:1;fill-rule:nonzero;stroke:none" />
    <g
       style="clip-rule:nonzero"
       id="g4323"
       clip-path="url(#clip1)">
      <g
         style="clip-rule:nonzero"
         id="g4325"
         clip-path="url(#clip2)">
        <path
           id="path4327"
           d="m 59.714844,531.24609 c 0.03516,-0.0625 0.226562,-0.27734 0.242187,-0.2539 -0.07422,0.0742 -0.21875,0.25781 -0.242187,0.2539 z m -0.390625,0.41016 c 0.05859,-0.0977 0.21875,-0.25391 0.273437,-0.28906 -0.08594,0.082 -0.242187,0.28125 -0.273437,0.28906 z m 0.625,-0.57813 c 0.109375,-0.10546 0.289062,-0.33203 0.347656,-0.36718 -0.105469,0.10937 -0.289063,0.33593 -0.347656,0.36718 z M 54.875,532.85547 c 0.03906,0.0312 0.191406,0.21484 0.183594,0.24609 -0.05469,-0.0742 -0.183594,-0.20703 -0.183594,-0.24609 z m 0.832031,1.16015 c 0.05859,0.043 0.179688,0.21485 0.21875,0.28907 -0.06641,-0.0899 -0.203125,-0.23438 -0.21875,-0.28907 z m 0.503907,0.58204 c 0.136718,-0.14844 0.285156,-0.3086 0.257812,-0.24219 -0.04687,0.0156 -0.246094,0.27344 -0.257812,0.24219 z m 4.128906,-2.33594 c -0.183594,0.1875 -0.308594,0.35156 -0.429688,0.48437 -0.617187,0.67188 0.289063,-0.39843 0.429688,-0.48437 z m -3.078125,1.30469 c -0.101563,0.11328 -0.183594,0.1914 -0.230469,0.22656 0.09375,-0.10156 0.222656,-0.25781 0.230469,-0.22656 z m 0.875,-0.91797 c 0.01563,-0.0469 0.535156,-0.60547 0.828125,-0.89453 -0.242188,0.26953 -0.847656,0.9375 -0.828125,0.89453 z m 0.742187,1.23437 c -0.410156,0.42188 -1.054687,1.13281 -1.351562,1.44141 -0.289063,0.30469 0.515625,-0.60156 1.257812,-1.41406 0.75,-0.8125 0.148438,-0.0781 0.457032,-0.40235 0.308593,-0.32031 -0.285157,0.35156 -0.59375,0.66797 -0.304688,0.31641 0.199218,-0.23047 0.230468,-0.29297 z m 0.04687,0.0899 c 0.148438,-0.16407 0.277344,-0.30079 0.367188,-0.37891 -0.148438,0.17969 -0.292969,0.35156 -0.367188,0.37891 z m 3.027344,-4.69922 c -0.25,0.11718 -0.699219,-0.0977 -1.117187,-0.3711 -0.09766,-0.0703 -0.195313,-0.13672 -0.296876,-0.20703 -0.609374,-0.58203 -1.175781,-1.20312 -1.71875,-1.84375 -0.105468,-0.1289 -0.214843,-0.25781 -0.324218,-0.38672 -0.328125,-0.38672 -0.65625,-0.78906 -0.980469,-1.19531 -0.10937,-0.13286 -0.218745,-0.26958 -0.32812,-0.41021 -0.214844,-0.23828 -0.421875,-0.5 -0.625,-0.76953 -0.171875,0.17969 -0.339844,0.35938 -0.515625,0.55078 -0.1875,0.21094 -0.375,0.4336 -0.558594,0.69141 -0.09375,0.12891 -0.507812,0.57422 -0.664062,0.71484 0.167969,-0.0977 -0.519531,0.6211 -0.488281,0.58594 -0.08984,0.0664 -0.175782,0.14453 -0.257813,0.22656 -0.08594,0.082 0.0078,-0.0352 0.105469,-0.15234 -0.09766,0.0937 -0.191406,0.1875 -0.28125,0.28906 -0.09766,0.10547 -0.191406,0.21094 -0.289063,0.32032 -0.300781,0.36718 -0.664062,0.73828 -0.992187,1.0625 -0.171875,0.1875 -0.40625,0.44531 -0.664063,0.73046 0.898438,1.14844 2.128907,2.73829 1.824219,2.36329 -0.441406,-0.53516 -0.238281,-0.24219 -0.125,-0.0899 0.06641,0.0859 0.15625,0.20313 0.257812,0.33594 0.0039,-0.0117 0,-0.0273 -0.01172,-0.0508 0.199218,0.23828 0.488281,0.55078 0.734375,0.91406 -0.05078,-0.0586 -0.113281,-0.14062 -0.144531,-0.15625 0.132812,0.17188 0.01172,0.0625 0.09766,0.18359 0.242187,0.32422 0.359375,0.48047 0.07031,0.11329 0.257813,0.36718 0.414063,0.63671 0.675782,1.02343 0.101562,0.125 0.04687,0.0586 0.01953,0 0.183593,0.20703 0.59375,0.73828 0.632812,0.76563 0.03906,0.0234 -1.109375,-1.41406 -0.898437,-1.17969 0.08594,0.0977 0.257812,0.32031 0.324218,0.39063 -0.144531,-0.1875 -0.320312,-0.41016 -0.40625,-0.53907 0.101563,0.11719 0.238282,0.29688 0.320313,0.38282 -0.09766,-0.1211 -0.160156,-0.20704 -0.183594,-0.25391 0.136719,0.17187 0.242188,0.29687 0.40625,0.51172 0.07422,0.10547 -0.06641,-0.0508 0.08984,0.14844 0.02734,0.0547 -0.105469,-0.125 -0.09766,-0.0937 0.125,0.17187 0.378906,0.49218 0.441406,0.58203 0.0625,0.0898 -0.152344,-0.19532 -0.160156,-0.19141 0.121093,0.15625 0.246093,0.31641 0.367187,0.47656 0.445313,-0.48437 0.867188,-0.9414 1.023438,-1.10547 0.207031,-0.21875 0.01172,-0.004 -0.07422,0.10157 0.242187,-0.25 0.425781,-0.45313 0.710937,-0.76172 0.1875,-0.19922 0.113282,-0.11328 0.04688,-0.0273 0.04687,-0.0508 0.09375,-0.0977 0.121093,-0.125 0.02344,-0.0195 0.07422,-0.0742 0.113281,-0.10546 -0.113281,0.1289 -0.324218,0.35546 -0.417968,0.46875 0.175781,-0.16407 0.574218,-0.63282 0.730468,-0.76563 -0.234374,0.27344 -0.484374,0.54688 -0.75,0.84766 0.519532,-0.55078 1.03125,-1.19922 1.460938,-1.59766 -0.07422,0.0859 -0.09766,0.13672 -0.15625,0.21484 0.152344,-0.1875 0.378906,-0.46484 0.535156,-0.58593 0.07813,-0.0859 0.238282,-0.24219 0.398438,-0.41016 -0.269532,0.30859 -0.449219,0.51172 -0.644532,0.71094 0.0078,0.004 0.02734,-0.0117 0.05859,-0.043 -0.410156,0.51172 -0.679687,0.69922 -0.984375,1.01562 -0.02344,0.0273 -0.04687,0.0547 -0.07031,0.082 -0.08984,0.14062 0.25,-0.25 0.292969,-0.26954 -0.449219,0.50782 -0.941407,1.02344 -1.15625,1.30079 0.535156,-0.57813 1.003906,-1.10938 1.414062,-1.52344 -0.09375,0.14844 -0.507812,0.57031 -0.695312,0.80469 0.890624,-0.94141 0.980468,-1.03907 1.054687,-1.10938 -0.06641,0.0742 -0.132813,0.15234 -0.203125,0.23438 0.01953,-0.0156 0.03906,-0.0274 0.05859,-0.043 0.390625,-0.42578 0.847656,-0.9336 0.832031,-0.89844 -0.01563,0.0273 -0.371094,0.42578 -0.75,0.83984 0.04297,-0.0273 0.08594,-0.0586 0.132813,-0.0937 0.449218,-0.48437 0.976562,-0.99218 1.414062,-1.5039 -0.05859,0.10156 -0.01953,0.0586 0.08203,-0.0312 -0.132812,0.16797 -0.335937,0.39062 -0.480469,0.5664 0.05859,-0.0469 0.148438,-0.15625 0.1875,-0.17968 -0.07422,0.0937 -0.195312,0.22265 -0.222656,0.27734 0.21875,-0.22656 0.453125,-0.47656 0.683594,-0.72266 0.0625,-0.0312 -0.09375,0.11328 -0.07422,0.11328 0.222657,-0.23046 0.519531,-0.57421 0.695313,-0.73046 -0.171875,0.21484 -0.539063,0.59765 -0.644532,0.73046 0.07813,-0.0742 0.15625,-0.14843 0.234376,-0.22265 0.152343,-0.16406 0.226562,-0.23828 0.06641,-0.0469 -0.08594,0.10547 -0.08203,0.10547 -0.05859,0.082 0.113281,-0.10156 0.46875,-0.49609 0.484375,-0.45703 -0.09375,0.0977 -0.453125,0.49219 -0.527344,0.61328 0.08594,-0.0547 0.261719,-0.26953 0.296875,-0.27343 -0.410156,0.43359 -0.386718,0.42968 -0.496094,0.52343 0.03906,-0.0508 0.15625,-0.17187 0.144532,-0.17968 -0.246094,0.26953 -0.492188,0.54297 -0.746094,0.82031 0.03516,-0.008 0.03906,0.0234 0.02344,0.0625 0.105468,-0.12109 0.222656,-0.23828 0.421874,-0.46484 -0.03125,0.0937 -0.222656,0.29296 -0.398437,0.47265 0.0039,0.004 0.0078,0.008 0.01172,0.0117 0.277344,-0.30859 0.710937,-0.76953 1.011718,-1.06641 -0.128906,0.14844 -0.609374,0.67969 -0.941406,1.03516 0.01172,-0.004 0.02734,-0.0117 0.04297,-0.0156 -0.417969,0.44921 -0.890625,1.01562 -1.363281,1.51171 0.242187,-0.19921 0.492187,-0.52734 0.785156,-0.83593 0.136719,-0.14063 0.265625,-0.26563 0.402344,-0.39453 0.367187,-0.41407 1.460937,-1.62891 1.597656,-1.75391 0.152344,-0.14063 -0.964844,1.08984 -0.964844,1.10547 0,0.0156 0.527344,-0.54688 0.28125,-0.28125 -0.128906,0.14062 -0.414062,0.44531 -0.621094,0.66797 0.0078,0.0273 0.01172,0.0547 0.01563,0.082 0.179687,-0.19922 0.398437,-0.42188 0.382812,-0.46485 0.08984,-0.0937 0.265625,-0.3125 0.304688,-0.32421 -0.02734,0.0351 -0.07422,0.082 -0.07031,0.0898 0.04687,-0.0469 0.105469,-0.11719 0.121094,-0.11719 -0.214844,0.24219 -0.507813,0.58203 -0.742188,0.83985 -0.01563,0.0312 -0.03125,0.0586 -0.04687,0.0937 0.0078,-0.004 0.195313,-0.19922 0.359375,-0.36719 0.171875,-0.17969 -0.171875,0.21094 -0.449219,0.51562 -0.03906,0.0586 -0.07812,0.11719 -0.117187,0.17578 0.09375,-0.10546 0.207031,-0.23046 0.339844,-0.37109 0.160156,-0.16016 0.167969,-0.13281 0.328125,-0.29297 -0.277344,0.32031 -0.621094,0.69922 -0.902344,0.9961 -0.08984,0.1289 -0.183594,0.26171 -0.277344,0.39453 0.234375,-0.24219 0.457032,-0.46094 0.589844,-0.58985 0.101562,-0.11328 0.207031,-0.23437 0.253906,-0.26172 -0.09375,0.11329 0.160156,-0.16015 0.136719,-0.0937 -0.152344,0.12891 -0.417969,0.4375 -0.535156,0.51563 -0.210938,0.23437 -0.445313,0.49219 -0.65625,0.71875 -0.02344,0.0352 -0.04687,0.0664 -0.07422,0.10156 0.175781,-0.1914 0.347656,-0.37109 0.539062,-0.5664 -0.06641,0.1289 -0.589843,0.70703 -0.972656,1.09765 -0.765625,0.87891 -1.558594,1.5586 -2.320312,2.36328 -0.03125,0.0352 -0.07422,0.0899 -0.121094,0.14844 -0.05469,0.0742 -0.109375,0.15234 -0.167969,0.22656 0.183594,-0.19531 0.34375,-0.36718 0.480469,-0.5 -0.539062,0.63282 0.773438,-0.82031 0.859375,-0.8789 -0.441406,0.51953 -1.082031,1.23047 -1.742187,1.95703 -0.625,-0.79297 -1.265626,-1.60547 -1.761719,-2.21094 0.238281,0.30859 0.316406,0.41016 0.05469,0.0937 -0.07031,-0.0859 -0.144531,-0.17187 -0.214844,-0.26172 0.644532,0.84375 1.3125,1.66406 1.921876,2.4336 0.351562,-0.38672 0.683593,-0.7461 0.988281,-1.05079 -0.296875,0.32813 -0.683594,0.7461 -0.992188,1.08594 -0.199219,-0.2539 -0.367187,-0.45703 -0.453125,-0.54297 0.144532,0.1836 0.351563,0.4375 0.378906,0.4961 -0.253906,-0.28125 -1.085937,-1.38672 -1.339843,-1.66797 0.433593,0.55859 0.921875,1.18359 1.414062,1.80469 0.886719,-0.97266 1.777344,-1.94922 2.363281,-2.54688 -0.714843,0.77344 -1.554687,1.70313 -2.367187,2.59375 -0.734375,-0.93359 -1.445313,-1.83594 -1.992187,-2.55859 0.203124,0.24609 0.210937,0.24218 0.109374,0.0937 -0.351562,-0.46094 -0.703124,-0.91407 -1.0625,-1.38282 -0.07812,-0.0898 -0.05469,-0.0547 0.113282,0.17579 0.140625,0.1914 0.226562,0.29687 0.265625,0.36718 -0.101563,-0.11718 -1.238281,-1.5664 -0.339844,-0.41015 0.902344,1.15625 2.46875,3.16797 1.542969,2.01562 -0.925782,-1.16406 -1.300782,-1.60547 -0.800782,-0.95703 0.503907,0.65625 2.113282,2.75 1.570313,2.06641 -0.542969,-0.67969 -1.699219,-2.10938 -2.34375,-2.9375 -0.644531,-0.82813 0.492187,0.47265 -0.445313,-0.71875 -0.9375,-1.19141 -0.179687,-0.17969 -0.359374,-0.41016 -0.285157,-0.36328 -0.808594,-1.02734 -1.308594,-1.65625 -0.355469,-0.44531 -0.804688,-1.01562 -1.046875,-1.30078 -0.0039,0.0195 1.078125,1.375 0.640625,0.84375 -0.335938,-0.42578 -0.6875,-0.86719 -0.988282,-1.25 0.691407,-0.76172 1.160157,-1.27344 0.839844,-0.87891 0.691406,-0.76953 1.203125,-1.33203 1.644532,-1.80468 0.648437,-0.76954 1.441406,-1.63282 1.527343,-1.73829 0.09375,-0.12109 1.964844,-2.07031 2.652344,-2.98046 0.01563,-0.0156 0.152344,-0.16016 0.332031,-0.35157 0.335938,0.44141 0.859375,1.13282 0.917969,1.24219 1.019531,1.24219 0.886719,1.03125 1.886719,2.31641 0.832031,1.07422 1.078125,1.41406 1.21875,1.59765 0.867187,1.12891 0.882812,1.09375 1.21875,1.73828 0.101562,0.19141 0.296875,0.44141 0.308594,0.57032 0.02734,0.2539 -0.04688,0.4414 -0.257813,0.53125 z m -1.773437,2.08593 c 0.144531,-0.17187 0.417968,-0.46484 0.570312,-0.64843 -0.195312,0.17578 -0.414062,0.42578 -0.636719,0.6875 0.02344,-0.0117 0.04297,-0.0234 0.06641,-0.0391 z m -1.015626,1.7461 c 0.105469,-0.11719 0.226563,-0.28125 0.347657,-0.40625 0.113281,-0.125 0.226562,-0.25781 0.40625,-0.4336 -0.01172,0.0312 -0.289063,0.35938 -0.507813,0.59766 0,0.008 0.0039,0.0156 0.0078,0.0234 0.109375,-0.10547 0.242187,-0.23828 0.394531,-0.40235 0.05078,-0.0586 0.09766,-0.11718 0.152344,-0.17578 -0.0039,-0.0195 -0.08984,0.0586 -0.117188,0.0937 0.03125,-0.0625 0.160156,-0.21875 0.328125,-0.41406 0.01953,-0.0273 0.03516,-0.0547 0.05469,-0.082 0.01563,-0.0469 -0.121094,0.0859 0.02734,-0.0703 -0.113281,0.0898 -0.367187,0.39843 -0.535156,0.57031 0.207032,-0.15234 -0.503906,0.58203 -0.667968,0.79297 0.03516,-0.0312 0.07031,-0.0625 0.109374,-0.0937 z m -1.5,0.21094 c -0.08203,0.0937 -0.164062,0.18359 -0.246093,0.27734 0.121093,-0.13281 0.214843,-0.23047 0.300781,-0.32031 -0.01953,0.0117 -0.03516,0.0273 -0.05469,0.043 z m -5.777343,-4.2461 c -0.01172,0.0117 -0.02344,0.0234 -0.03516,0.0352 0.347657,0.53515 1.230469,1.5625 1.25,1.64844 0.09375,0.10937 0.183594,0.21875 0.277344,0.32812 -0.550781,-0.70703 -1.136718,-1.46094 -1.523437,-1.97656 0.01172,-0.0117 0.01953,-0.0234 0.03125,-0.0352 z m -0.0078,2.53516 c 0.05078,0.0586 0.03516,0.0312 -0.08203,-0.11719 -0.609375,-0.80469 -0.960937,-1.27734 -0.566406,-0.78125 0.339843,0.42969 1.078125,1.35547 0.871093,1.07813 -0.28125,-0.36329 -0.5625,-0.72657 -0.851562,-1.09766 -0.234375,-0.28516 -0.480469,-0.55469 -0.742188,-0.83594 0.484376,0.61719 0.949219,1.21094 1.371094,1.75391 z M 50.1875,529.50781 c 0.175781,0.22266 0.390625,0.48828 0.605469,0.75391 -0.183594,-0.23047 -0.363281,-0.46485 -0.550781,-0.70313 -0.01563,-0.0156 -0.03516,-0.0351 -0.05469,-0.0508 z m -0.265625,-0.28515 c 0.359375,0.45703 0.722656,0.91015 0.371094,0.45312 -0.07813,-0.10547 -0.15625,-0.20703 -0.238281,-0.3125 -0.04297,-0.0469 -0.08594,-0.0937 -0.132813,-0.14062 z m -0.08984,-0.27735 c 0.0039,0.004 -0.01563,0.0312 -0.05859,0.0859 0.03125,0.0391 0.07031,0.0859 0.117187,0.14453 -0.03516,-0.043 -0.07031,-0.0898 -0.113281,-0.14062 0.285156,-0.3086 0.679687,-0.73829 0.636718,-0.71875 -0.183593,0.19531 -0.378906,0.41015 -0.582031,0.6289 z m 2.394531,-0.1914 c -0.113281,0.1289 -0.207031,0.24218 -0.01562,0.0391 0.07422,-0.0781 0.148437,-0.15235 0.222656,-0.23047 -0.07031,0.0625 -0.136719,0.125 -0.207032,0.19141 z m 5.417969,6.52734 c -0.07031,0.0703 -0.328125,0.35547 -0.476562,0.50781 -0.02344,-0.082 0.566406,-0.65234 0.476562,-0.50781 z m 0.976563,-1.03516 c -0.06641,0.0703 -0.324219,0.35938 -0.480469,0.51563 -0.02734,-0.0742 0.570313,-0.65625 0.480469,-0.51563 z M 56.332031,521.625 c 0,0 -0.0039,0.004 -0.0039,0.004 0,0 0.0039,-0.004 0.0039,-0.004 z m 0,0"
           style="fill:#000000;fill-opacity:1;fill-rule:nonzero;stroke:none" />
      </g>
    </g>
    <g
       style="clip-rule:nonzero"
       id="g4329"
       clip-path="url(#clip3)">
      <g
         style="clip-rule:nonzero"
         id="g4331"
         clip-path="url(#clip4)">
        <path
           id="path4333"
           d="m 117.92188,526.01953 c -0.0352,0.0664 -0.20704,0.29297 -0.22657,0.26953 0.0703,-0.0781 0.20313,-0.27344 0.22657,-0.26953 z m 0.35937,-0.43359 c -0.0547,0.0976 -0.19922,0.26562 -0.25391,0.30468 0.0781,-0.0898 0.22266,-0.30078 0.25391,-0.30468 z m -0.58594,0.61718 c -0.0977,0.11329 -0.26562,0.35157 -0.32031,0.39063 0.0977,-0.11719 0.26563,-0.35547 0.32031,-0.39063 z m 4.94141,-2.1289 c -0.043,-0.0273 -0.21094,-0.19922 -0.19922,-0.23047 0.0586,0.0703 0.19531,0.19531 0.19922,0.23047 z m -0.91406,-1.09766 c -0.0625,-0.0391 -0.19141,-0.20312 -0.23438,-0.27344 0.0703,0.0859 0.21485,0.21875 0.23438,0.27344 z m -0.53907,-0.54687 c -0.1289,0.16015 -0.26562,0.33203 -0.24218,0.26172 0.043,-0.0195 0.22656,-0.28907 0.24218,-0.26172 z m -3.95703,2.62109 c 0.17188,-0.19922 0.28125,-0.375 0.39453,-0.51562 0.56641,-0.71094 -0.26171,0.41796 -0.39453,0.51562 z m 2.98047,-1.51953 c 0.0898,-0.11719 0.16406,-0.20313 0.21094,-0.23828 -0.0859,0.10547 -0.20313,0.26953 -0.21094,0.23828 z m -0.80859,0.98047 c -0.0156,0.043 -0.4961,0.63672 -0.76563,0.94922 0.22266,-0.28907 0.78125,-0.99219 0.76563,-0.94922 z m -0.82813,-1.17969 c 0.37891,-0.44922 0.97266,-1.20703 1.2461,-1.53516 0.26953,-0.32421 -0.47266,0.63672 -1.15625,1.5 -0.69141,0.86329 -0.14063,0.0859 -0.42969,0.4336 -0.28516,0.34375 0.26172,-0.3711 0.54687,-0.71094 0.28516,-0.33594 -0.18359,0.24609 -0.20703,0.3125 z m -0.0547,-0.0898 c -0.13672,0.17578 -0.25782,0.32031 -0.33985,0.40625 0.13672,-0.19141 0.26953,-0.3711 0.33985,-0.40625 z m -2.69141,4.90234 c 0.24219,-0.13672 0.70312,0.0508 1.14062,0.29297 0.10157,0.0625 0.20313,0.12109 0.3086,0.18359 0.64844,0.53907 1.25781,1.11719 1.84765,1.71875 0.11329,0.1211 0.23047,0.24219 0.34766,0.36328 0.35547,0.36329 0.71094,0.74219 1.0625,1.125 0.11719,0.125 0.23438,0.25391 0.35547,0.38282 0.23047,0.22656 0.45312,0.47265 0.67578,0.72656 0.15625,-0.19141 0.31641,-0.38281 0.47656,-0.58594 0.17188,-0.22265 0.34375,-0.45703 0.51172,-0.73047 0.082,-0.13281 0.46094,-0.60547 0.60938,-0.7539 -0.16016,0.10937 0.47265,-0.65625 0.44531,-0.6211 0.0859,-0.0703 0.16797,-0.15625 0.24219,-0.24218 0.0781,-0.0899 -0.008,0.0351 -0.0937,0.15625 0.0898,-0.0977 0.17578,-0.19922 0.26172,-0.30469 0.0898,-0.11328 0.17578,-0.22656 0.26562,-0.34375 0.27344,-0.38672 0.60938,-0.78125 0.91406,-1.125 0.15625,-0.20313 0.375,-0.47656 0.61328,-0.77735 -0.98046,-1.08593 -2.3164,-2.58203 -1.98437,-2.23046 0.47656,0.5039 0.25391,0.22265 0.12891,0.082 -0.0703,-0.082 -0.16797,-0.19141 -0.27735,-0.31641 -0.004,0.0117 0,0.0273 0.0117,0.0508 -0.21484,-0.22656 -0.52344,-0.51953 -0.79687,-0.85937 0.0586,0.0508 0.125,0.1289 0.15625,0.14062 -0.14454,-0.16015 -0.0156,-0.0586 -0.10938,-0.17578 -0.26562,-0.30469 -0.39062,-0.45312 -0.0781,-0.10937 -0.28516,-0.34766 -0.45704,-0.60157 -0.74219,-0.97266 -0.11328,-0.11719 -0.0547,-0.0508 -0.0234,0.004 -0.19531,-0.19532 -0.64453,-0.69532 -0.68359,-0.72266 -0.043,-0.0195 1.20312,1.33594 0.97656,1.11328 -0.0937,-0.0898 -0.27734,-0.29687 -0.34766,-0.36328 0.15235,0.17578 0.34766,0.38672 0.44141,0.50781 -0.10938,-0.10937 -0.26172,-0.27734 -0.34766,-0.35937 0.10547,0.11328 0.17578,0.19531 0.20313,0.24218 -0.15235,-0.16406 -0.26563,-0.28125 -0.44531,-0.48437 -0.0781,-0.0977 0.0742,0.0469 -0.0977,-0.14063 -0.0273,-0.0547 0.11328,0.11719 0.10547,0.0859 -0.13672,-0.16406 -0.41406,-0.46484 -0.48438,-0.55078 -0.0664,-0.0859 0.16797,0.1875 0.17578,0.17969 -0.13281,-0.14844 -0.26562,-0.29688 -0.39843,-0.44922 -0.41407,0.51562 -0.80078,1 -0.94532,1.17187 -0.1914,0.23438 -0.0117,0.008 0.0664,-0.10546 -0.22266,0.26953 -0.39062,0.48046 -0.65625,0.8125 -0.17187,0.21093 -0.10547,0.12109 -0.043,0.0312 -0.0469,0.0547 -0.0859,0.10156 -0.11328,0.1289 -0.0195,0.0234 -0.0703,0.082 -0.10547,0.11719 0.10547,-0.14063 0.30078,-0.37891 0.38281,-0.5 -0.16015,0.17578 -0.52734,0.67187 -0.67187,0.81641 0.21094,-0.28907 0.44531,-0.57813 0.6875,-0.89844 -0.48047,0.58594 -0.94531,1.26953 -1.34766,1.69531 0.0664,-0.0898 0.0898,-0.14453 0.14453,-0.22656 -0.14062,0.20312 -0.34765,0.49219 -0.49609,0.625 -0.0703,0.0898 -0.22266,0.25781 -0.36719,0.43359 0.2461,-0.32422 0.41016,-0.54297 0.59375,-0.7539 -0.008,0 -0.0273,0.0156 -0.0586,0.0508 0.375,-0.54297 0.63281,-0.7461 0.91406,-1.08203 0.0195,-0.0312 0.043,-0.0586 0.0625,-0.0899 0.082,-0.14453 -0.23047,0.26953 -0.26953,0.28906 0.41016,-0.53515 0.86328,-1.08203 1.0625,-1.375 -0.49609,0.61329 -0.92578,1.17579 -1.30859,1.61719 0.0859,-0.15234 0.46875,-0.60547 0.64062,-0.85156 -0.82422,1 -0.90625,1.10156 -0.97656,1.18359 0.0625,-0.082 0.125,-0.16406 0.1875,-0.25 -0.0195,0.0156 -0.0352,0.0274 -0.0547,0.043 -0.36328,0.45313 -0.78515,0.99219 -0.76562,0.95703 0.0117,-0.0273 0.33984,-0.44922 0.6875,-0.89062 -0.043,0.0312 -0.0859,0.0664 -0.12891,0.10156 -0.41016,0.51563 -0.90625,1.0625 -1.30469,1.60156 0.0508,-0.10547 0.0195,-0.0586 -0.0781,0.0352 0.12109,-0.17578 0.30469,-0.41016 0.4375,-0.59766 -0.0508,0.0508 -0.13672,0.16407 -0.17188,0.19141 0.0664,-0.0977 0.17969,-0.23438 0.20313,-0.29297 -0.20313,0.24219 -0.41797,0.50781 -0.63281,0.76953 -0.0625,0.0352 0.0859,-0.11719 0.0664,-0.11719 -0.20703,0.2461 -0.47656,0.60547 -0.64062,0.77344 0.15234,-0.22265 0.49609,-0.6289 0.58593,-0.76953 -0.0703,0.0781 -0.14062,0.15625 -0.21484,0.23828 -0.14062,0.17188 -0.21094,0.25 -0.0625,0.0508 0.0781,-0.11328 0.0742,-0.10937 0.0508,-0.0859 -0.10547,0.10937 -0.42969,0.52734 -0.44922,0.48828 0.0859,-0.10547 0.41407,-0.52344 0.48047,-0.64453 -0.0781,0.0586 -0.23828,0.28515 -0.27344,0.28906 0.375,-0.46094 0.35547,-0.45313 0.45704,-0.55469 -0.0352,0.0547 -0.14454,0.18359 -0.13282,0.1875 0.22657,-0.28516 0.45313,-0.57422 0.6875,-0.86719 -0.0312,0.008 -0.0391,-0.0234 -0.0234,-0.0586 -0.10157,0.125 -0.21094,0.25 -0.39454,0.48828 0.0273,-0.0937 0.20313,-0.30859 0.36719,-0.49609 -0.004,-0.004 -0.008,-0.008 -0.0117,-0.0117 -0.25781,0.32812 -0.65625,0.8164 -0.93359,1.13672 0.11328,-0.16016 0.55859,-0.72266 0.86328,-1.10157 -0.0117,0.008 -0.0234,0.0117 -0.0391,0.0195 0.38672,-0.47657 0.8164,-1.07422 1.2539,-1.60157 -0.23046,0.21485 -0.45312,0.5586 -0.72656,0.88672 -0.125,0.14844 -0.24609,0.28125 -0.375,0.41797 -0.33594,0.44141 -1.34375,1.73047 -1.47265,1.86328 -0.14063,0.15235 0.89062,-1.15625 0.89062,-1.17187 -0.004,-0.0156 -0.49219,0.58593 -0.26172,0.30078 0.1211,-0.14844 0.37891,-0.47266 0.57031,-0.70703 -0.008,-0.0274 -0.0117,-0.0547 -0.0195,-0.082 -0.16406,0.21093 -0.36718,0.44921 -0.34765,0.49218 -0.0859,0.0977 -0.2461,0.32813 -0.28516,0.34375 0.0273,-0.0351 0.0703,-0.0859 0.0625,-0.0937 -0.0391,0.0469 -0.0937,0.125 -0.10937,0.1211 0.19531,-0.25391 0.46484,-0.60938 0.68359,-0.88672 0.0117,-0.0312 0.0234,-0.0625 0.0352,-0.0937 -0.004,0 -0.17969,0.20703 -0.32813,0.39062 -0.16016,0.19141 0.15625,-0.22656 0.41016,-0.54687 0.0352,-0.0625 0.0703,-0.1211 0.10547,-0.1836 -0.0859,0.11329 -0.19141,0.24219 -0.3125,0.39454 -0.14844,0.16796 -0.16016,0.14453 -0.3086,0.3125 0.25781,-0.33594 0.57422,-0.73829 0.82813,-1.05469 0.0859,-0.13672 0.16797,-0.27344 0.2539,-0.41406 -0.21875,0.26171 -0.42578,0.49218 -0.55078,0.6289 -0.0898,0.1211 -0.1875,0.25 -0.23047,0.28125 0.082,-0.12109 -0.15234,0.16797 -0.13281,0.10156 0.14063,-0.13671 0.38672,-0.46484 0.49609,-0.55078 0.19922,-0.25 0.41407,-0.52343 0.60547,-0.76562 0.0234,-0.0352 0.043,-0.0664 0.0703,-0.10547 -0.16407,0.20703 -0.32422,0.39453 -0.5,0.60547 0.0586,-0.13672 0.53906,-0.7461 0.89453,-1.16406 0.69922,-0.92969 1.44531,-1.66407 2.14843,-2.51954 0.0273,-0.0352 0.0664,-0.0937 0.10938,-0.16015 0.0508,-0.0781 0.10156,-0.15625 0.15234,-0.23438 -0.16797,0.20703 -0.32031,0.39063 -0.4414,0.53516 0.49218,-0.67188 -0.71485,0.87109 -0.80078,0.93359 0.40625,-0.54687 0.99609,-1.30078 1.60156,-2.07422 0.67969,0.75 1.375,1.51563 1.91406,2.08204 -0.26172,-0.28907 -0.34375,-0.38672 -0.0586,-0.0859 0.0742,0.0781 0.15234,0.16015 0.23047,0.24219 -0.69922,-0.79297 -1.42579,-1.56641 -2.08594,-2.29297 -0.32422,0.41406 -0.63281,0.79297 -0.91406,1.11718 0.27343,-0.34765 0.6289,-0.79296 0.91015,-1.15234 0.22266,0.23828 0.40235,0.42969 0.49219,0.50781 -0.15625,-0.17187 -0.37891,-0.41015 -0.41016,-0.46484 0.26953,0.26172 1.17578,1.30859 1.44922,1.57031 -0.46875,-0.52734 -1,-1.11719 -1.53125,-1.70312 -0.82031,1.03125 -1.64062,2.07031 -2.18359,2.70312 0.66015,-0.82031 1.43359,-1.80469 2.17969,-2.75 0.80078,0.87891 1.57031,1.73047 2.16796,2.41406 -0.22265,-0.23437 -0.22656,-0.22656 -0.11718,-0.0859 0.38281,0.43359 0.76562,0.86328 1.16015,1.30859 0.082,0.082 0.0586,0.0469 -0.1289,-0.17187 -0.15235,-0.17969 -0.2461,-0.27735 -0.28907,-0.34766 0.10938,0.11328 1.34375,1.47656 0.36719,0.38672 -0.98047,-1.08985 -2.68359,-2.99219 -1.67969,-1.90235 1.00391,1.09375 1.41016,1.51172 0.86719,0.89844 -0.55078,-0.62109 -2.30078,-2.59765 -1.71094,-1.95312 0.58985,0.64062 1.83985,1.98828 2.53907,2.76562 0.70312,0.78125 -0.51953,-0.43359 0.49609,0.6875 1.01563,1.125 0.19141,0.16797 0.38672,0.38281 0.30859,0.34375 0.88281,0.96875 1.42187,1.5625 0.38672,0.41797 0.875,0.95704 1.13672,1.22657 0.004,-0.0234 -1.17187,-1.29688 -0.69922,-0.79688 0.36719,0.39844 0.7461,0.81641 1.07422,1.17969 -0.63672,0.80469 -1.07031,1.34766 -0.77734,0.93359 -0.63672,0.8125 -1.10938,1.41016 -1.51563,1.91407 -0.59375,0.8125 -1.32421,1.72656 -1.39843,1.83593 -0.0898,0.13282 -1.82032,2.20703 -2.44141,3.16016 -0.0156,0.0195 -0.14062,0.17187 -0.30859,0.375 -0.36328,-0.41797 -0.9336,-1.07031 -1,-1.17578 -1.10547,-1.16797 -0.95703,-0.96485 -2.04297,-2.17969 -0.90625,-1.01172 -1.17578,-1.33594 -1.32813,-1.50391 -0.94531,-1.0664 -0.95703,-1.03125 -1.33593,-1.65234 -0.11329,-0.18359 -0.32813,-0.41797 -0.35157,-0.54687 -0.043,-0.25391 0.0195,-0.44532 0.22266,-0.54688 z m 1.625,-2.20703 c -0.13281,0.18359 -0.38672,0.49219 -0.52344,0.6875 0.1836,-0.1875 0.38281,-0.45313 0.58594,-0.73047 -0.0195,0.0156 -0.043,0.0273 -0.0625,0.043 z m 0.89062,-1.8125 c -0.0977,0.125 -0.20703,0.29687 -0.3164,0.42969 -0.10547,0.13281 -0.21094,0.27343 -0.375,0.46093 0.004,-0.0312 0.25781,-0.375 0.46484,-0.6289 -0.004,-0.008 -0.008,-0.0156 -0.0117,-0.0273 -0.10547,0.11329 -0.22656,0.25391 -0.36328,0.4336 -0.0469,0.0586 -0.0937,0.12109 -0.14062,0.18359 0.004,0.0195 0.082,-0.0625 0.10937,-0.10156 -0.0273,0.0664 -0.14453,0.23047 -0.29687,0.4375 -0.0195,0.0273 -0.0352,0.0547 -0.0508,0.0859 -0.0117,0.0469 0.11328,-0.0977 -0.0234,0.0703 0.10937,-0.0977 0.33984,-0.42188 0.49609,-0.60938 -0.19531,0.16797 0.46094,-0.61328 0.60938,-0.83593 -0.0312,0.0351 -0.0664,0.0664 -0.10157,0.10156 z m 1.48047,-0.31641 c 0.0742,-0.0937 0.14844,-0.1914 0.22657,-0.29297 -0.10938,0.14063 -0.19922,0.2461 -0.27735,0.34375 0.0156,-0.0156 0.0312,-0.0312 0.0508,-0.0508 z m 6.0586,3.83594 c 0.0117,-0.0117 0.0234,-0.0273 0.0352,-0.0391 -0.38672,-0.50781 -1.33593,-1.47266 -1.36328,-1.55469 -0.10156,-0.10156 -0.19922,-0.20703 -0.30078,-0.3125 0.60156,0.66797 1.23438,1.37891 1.66016,1.86719 -0.0117,0.0117 -0.0195,0.0273 -0.0312,0.0391 z m -0.16797,-2.53125 c -0.0547,-0.0547 -0.0352,-0.0312 0.0898,0.11328 0.66797,0.75781 1.04688,1.20703 0.61719,0.73828 -0.36328,-0.40234 -1.16406,-1.27734 -0.94141,-1.01562 0.3086,0.34375 0.61328,0.6875 0.92578,1.03906 0.25391,0.26563 0.51954,0.51953 0.79688,0.78125 -0.52344,-0.58203 -1.02734,-1.14062 -1.48828,-1.65625 z m 1.83203,1.97656 c -0.19141,-0.21093 -0.42188,-0.46093 -0.65234,-0.71093 0.19531,0.21875 0.39062,0.4375 0.59375,0.66406 0.0195,0.0156 0.0391,0.0312 0.0586,0.0469 z m 0.28516,0.26563 c -0.38672,-0.42969 -0.78516,-0.85938 -0.40235,-0.42578 0.0859,0.0976 0.17188,0.19531 0.26172,0.29297 0.0469,0.043 0.0937,0.0859 0.14063,0.13281 z m 0.10937,0.26953 c -0.004,-0.004 0.0156,-0.0352 0.0547,-0.0937 -0.0352,-0.0312 -0.0781,-0.0781 -0.12891,-0.13281 0.0391,0.0391 0.0781,0.0859 0.1211,0.13672 -0.25782,0.32421 -0.6211,0.77734 -0.58204,0.75781 0.16797,-0.20703 0.35157,-0.4336 0.53516,-0.66797 z m -2.375,0.35937 c 0.10547,-0.13671 0.19141,-0.25781 0.0117,-0.043 -0.0664,0.082 -0.13281,0.16406 -0.20313,0.25 0.0625,-0.0703 0.125,-0.13672 0.19141,-0.20704 z m -5.85937,-6.13281 c 0.0625,-0.0781 0.30078,-0.3789 0.4414,-0.54297 0.0273,0.082 -0.52344,0.69141 -0.4414,0.54297 z m -0.90235,1.09766 c 0.0625,-0.0742 0.30078,-0.37891 0.44141,-0.54688 0.0352,0.0703 -0.51953,0.69141 -0.44141,0.54688 z m 3.16406,12.42969 c 0,0 0.004,0 0.004,0 0,0 -0.004,0 -0.004,0 z m 0,0"
           style="fill:#000000;fill-opacity:1;fill-rule:nonzero;stroke:none" />
      </g>
    </g>
  </g>
</svg>
