<?xml version="1.0" encoding="utf-8"?>
<!-- Generator: Adobe Illustrator 18.0.0, SVG Export Plug-In . SVG Version: 6.00 Build 0)  -->
<!DOCTYPE svg PUBLIC "-//W3C//DTD SVG 1.1//EN" "http://www.w3.org/Graphics/SVG/1.1/DTD/svg11.dtd">
<svg version="1.1" id="Calque_1" xmlns="http://www.w3.org/2000/svg" xmlns:xlink="http://www.w3.org/1999/xlink" x="0px" y="0px"
	 viewBox="0 0 512 512" enable-background="new 0 0 512 512" xml:space="preserve">
<path id="gear-icon" d="M462,283.7v-55.5l-30-10.7c-11.4-4.1-20.6-12.8-25.3-24c0,0,0,0,0,0c-4.7-11.2-4.3-23.9,0.9-34.9l13.7-28.7
	L382,90.7l-28.7,13.7c-11,5.2-23.7,5.5-34.9,0.9c0,0,0,0,0,0c-11.2-4.7-19.9-13.8-24-25.3l-10.7-30h-55.5l-10.7,30
	c-4.1,11.4-12.8,20.6-24,25.3c0,0,0,0,0,0c-11.2,4.7-23.9,4.3-34.9-0.9L130,90.7L90.7,130l13.7,28.7c5.2,11,5.5,23.7,0.9,34.9
	c0,0,0,0,0,0c-4.6,11.2-13.8,19.9-25.3,24l-30,10.7v55.5l30,10.7c11.4,4.1,20.6,12.8,25.3,24c0,0,0,0,0,0
	c4.7,11.2,4.3,23.9-0.9,34.9L90.7,382l39.2,39.2l28.7-13.7c11-5.2,23.7-5.5,34.9-0.9c0,0,0,0,0,0c11.2,4.6,19.9,13.8,24,25.3
	l10.7,30h55.5l10.6-29.8c4.1-11.5,12.9-20.8,24.2-25.5c0,0,0,0,0,0c11.1-4.6,23.7-4.3,34.6,0.9l28.9,13.7l39.2-39.2l-13.7-28.7
	c-5.2-11-5.5-23.7-0.9-34.9c0,0,0,0,0,0c4.7-11.2,13.8-19.9,25.3-24L462,283.7z M256,331.5c-41.7,0-75.5-33.8-75.5-75.5
	c0-41.7,33.8-75.5,75.5-75.5c41.7,0,75.5,33.8,75.5,75.5C331.5,297.7,297.7,331.5,256,331.5z"/>
<circle fill="#FFFFFF" stroke="#000000" stroke-miterlimit="10" cx="256" cy="256" r="123.5"/>
</svg>
