<?xml version="1.0" encoding="utf-8"?>
<!-- Generator: Adobe Illustrator 18.0.0, SVG Export Plug-In . SVG Version: 6.00 Build 0)  -->
<!DOCTYPE svg PUBLIC "-//W3C//DTD SVG 1.1//EN" "http://www.w3.org/Graphics/SVG/1.1/DTD/svg11.dtd">
<svg version="1.1" id="Calque_1" xmlns="http://www.w3.org/2000/svg" xmlns:xlink="http://www.w3.org/1999/xlink" x="0px" y="0px"
	 viewBox="0 0 425.2 425.2" style="enable-background:new 0 0 425.2 425.2;" xml:space="preserve">
<circle style="fill:#FFFFFF;stroke:#000000;stroke-miterlimit:10;" cx="209.6" cy="208" r="129.2"/>
<path style="fill:none;stroke:#000000;stroke-miterlimit:10;" d="M209.6,66.5c-38.1-1.4-85.6,1.4-111.8,17.8
	c-27.1,17-41.3,75.4-38.3,128.3S104,326.5,144,353s68,40,106,31c36.6-8.7,70-35,85-70.5s24.5-103.5,12.5-144S311,95.5,278.8,83
	C257.8,74.9,231.7,67.3,209.6,66.5z"/>
<path style="fill:none;stroke:#000000;stroke-miterlimit:10;" d="M199.8,58c-29.1,1.2-51.8,2.5-82.3,23S53.2,150.4,53,197.5
	c-0.2,45,0.9,105.3,23.5,131.5c24.3,28,43.1,42.2,65.5,49.5c35,11.5,81,10.2,106,0c13.5-5.5,44.7-21.5,62.5-45.5
	c18.2-24.5,39-70.5,36-135.5S325.5,96,291,78.8S225.3,56.9,199.8,58z"/>
<path style="fill:none;stroke:#000000;stroke-miterlimit:10;" d="M209.6,71.7c-28.2-1.5-79.3,6-109.6,43.3S58.8,228.6,80.3,270.7
	S164.3,370,219,363s93.8-37.7,110.7-89.3c16.8-51.6,19.8-103.5-12.3-145.7S252.9,74,209.6,71.7z"/>
</svg>
