<?xml version="1.0" encoding="utf-8"?>
<!-- Generator: Adobe Illustrator 18.0.0, SVG Export Plug-In . SVG Version: 6.00 Build 0)  -->
<!DOCTYPE svg PUBLIC "-//W3C//DTD SVG 1.1//EN" "http://www.w3.org/Graphics/SVG/1.1/DTD/svg11.dtd">
<svg version="1.1" id="Calque_1" xmlns="http://www.w3.org/2000/svg" xmlns:xlink="http://www.w3.org/1999/xlink" x="0px" y="0px"
	 viewBox="0 0 595.3 595.3" style="enable-background:new 0 0 595.3 595.3;" xml:space="preserve">
<circle style="opacity:0.4;fill:#59C7D6;" cx="294.8" cy="489.6" r="80.2"/>
<circle style="opacity:0.4;fill:#56C6D4;" cx="354.7" cy="480" r="80.2"/>
<circle style="opacity:0.4;fill:#40C1CB;" cx="408.9" cy="452.2" r="80.2"/>
<circle style="opacity:0.4;fill:#81A8AC;" cx="451.8" cy="409.2" r="80.2"/>
<circle style="opacity:0.4;fill:#B4908B;" cx="480.1" cy="355" r="80.2"/>
<circle style="opacity:0.4;fill:#D97B70;" cx="489.5" cy="295" r="80.2"/>
<circle style="opacity:0.4;fill:#F37767;" cx="479.8" cy="234.9" r="80.2"/>
<circle style="opacity:0.4;fill:#F16566;" cx="452.1" cy="180.8" r="80.2"/>
<circle style="opacity:0.4;fill:#ED5073;" cx="408.8" cy="137.5" r="80.2"/>
<circle style="opacity:0.4;fill:#E94270;" cx="354.7" cy="110" r="80.2"/>
<circle style="opacity:0.4;fill:#E1397A;" cx="294.8" cy="101.4" r="80.2"/>
<circle style="opacity:0.4;fill:#D7408D;" cx="234.8" cy="110.8" r="80.2"/>
<circle style="opacity:0.4;fill:#B84499;" cx="180.7" cy="138.2" r="80.2"/>
<circle style="opacity:0.4;fill:#8E52A1;" cx="137.8" cy="181.1" r="80.2"/>
<circle style="opacity:0.4;fill:#7B56A4;" cx="110.9" cy="235" r="80.2"/>
<circle style="opacity:0.4;fill:#6A5CA8;" cx="101.3" cy="295" r="80.2"/>
<circle style="opacity:0.4;fill:#5763AD;" cx="110.6" cy="354.9" r="80.2"/>
<circle style="opacity:0.4;fill:#3F72B8;" cx="138.1" cy="409" r="80.2"/>
<circle style="opacity:0.4;fill:#428FCD;" cx="180.7" cy="451.6" r="80.2"/>
<circle style="opacity:0.4;fill:#35C4EC;" cx="234.8" cy="479.2" r="80.2"/>
</svg>
