<?xml version="1.0" encoding="utf-8"?>
<!-- Generator: Adobe Illustrator 18.0.0, SVG Export Plug-In . SVG Version: 6.00 Build 0)  -->
<!DOCTYPE svg PUBLIC "-//W3C//DTD SVG 1.1//EN" "http://www.w3.org/Graphics/SVG/1.1/DTD/svg11.dtd">
<svg version="1.1" id="Calque_1" xmlns="http://www.w3.org/2000/svg" xmlns:xlink="http://www.w3.org/1999/xlink" x="0px" y="0px"
	 viewBox="0 0 1149 793" style="enable-background:new 0 0 1149 793;" xml:space="preserve">
<style type="text/css">
	.st0{fill:none;stroke:#000000;stroke-width:6;stroke-miterlimit:10;}
	.st1{fill:none;stroke:#000000;stroke-width:6;stroke-miterlimit:10;}
	.st2{fill:none;stroke:#000000;stroke-width:6;stroke-miterlimit:10;
			stroke-dasharray: 2000;
			stroke-dashoffset:0;
			-webkit-animation: dash 4.5s linear forwards;
			-o-animation: dash 4.5s linear forwards;
			-moz-animation: dash 4.5s linear forwards;
			animation: dash 4.5s linear forwards;
			animation-delay: 0s;
}

.st8{fill:#FFFFFF;
		  -webkit-animation-name: fade 0.5s ;
  			-o-animation: fade 0.5s linear forwards;
			-moz-animation: fade 0.5s linear forwards;
			animation: fade linear 0.5s forwards;
			animation-delay: 2.3s;

}


	.st9 { fill:none;stroke:#FFFFFF;stroke-width:14;stroke-miterlimit:10;
			-webkit-animation-name: fade 0.5s ;
  			-o-animation: fade 0.5s linear forwards;
			-moz-animation: fade 0.5s linear forwards;
			animation: fade linear 0.5s forwards;
			animation-delay: 1.6s;
}



@-webkit-keyframes dash {
			from {
				stroke-dashoffset: 2000;
			}
			to {
				stroke-dashoffset: 0;
			}
		}
		
@-webkit-keyframes dash2 {
			from {
				stroke-dashoffset: 4000;
			}
			to {
				stroke-dashoffset: 0;
			}
		}



@-webkit-keyframes mouve {
 from {
    opacity: 0;
  }

  to {
    opacity: 1;
  }
}


@-webkit-keyframes fade {
 from {
    opacity: 1;
  }

  to {
    opacity: 0;
  }
}





</style>
<polygon class="st0" points="535.8,573.5 535.8,470.2 595.8,422.8 655.5,469 655.5,573.5 "/>
<circle class="st1" cx="594.7" cy="402.7" r="382.7"/>
<path class="st2" d="M495.3,519.4c0,0-46.9-0.1-55.6,0c-12,0.3-26.4-5-32.4-8.4s-44-22.5-46.4-80c-1.4-77.8,73.2-88.9,80.3-89.1
	c0,0-3.5-34.4,29.7-53.7s64.6,1.4,64.6,1.4s52.9-89.3,150.5-52.9c84.3,33.1,76.7,105.2,76.7,105.2c17.3,0.7,64,25,64,83.2
	c0,56.1-37.5,79.6-47.7,85.9s-26.7,9.5-36.1,9.4c-7.1,0-48.8,0.1-48.8,0.1"/>
<rect x="517" y="413" class="st8" width="150" height="176"/>
<circle class="st9" cx="594.7" cy="401.7" r="382.7"/>
</svg>
