<?xml version="1.0" encoding="utf-8"?>
<!-- Generator: Adobe Illustrator 18.0.0, SVG Export Plug-In . SVG Version: 6.00 Build 0)  -->
<!DOCTYPE svg PUBLIC "-//W3C//DTD SVG 1.1//EN" "http://www.w3.org/Graphics/SVG/1.1/DTD/svg11.dtd">
<svg version="1.1" id="Calque_1" xmlns="http://www.w3.org/2000/svg" xmlns:xlink="http://www.w3.org/1999/xlink" x="0px" y="0px"
	 viewBox="0 0 295.3 294" style="enable-background:new 0 0 295.3 294;" xml:space="preserve">
<style type="text/css">
	.st0{fill:#58595B;}
	.st1{fill:#6D6E71;}
	.st2{fill:#939598;}
	.st3{fill:#BCBEC0;}
	.st4{fill:#414042;}
	.st5{fill:#D1D3D4;}
</style>
<rect x="6" y="4.2" class="st0" width="31.5" height="31.5"/>
<rect x="37.5" y="35.7" class="st0" width="31.5" height="31.5"/>
<rect x="6" y="67.2" class="st1" width="31.5" height="31.5"/>
<rect x="37.5" y="98.7" class="st1" width="31.5" height="31.5"/>
<rect x="6" y="130.2" class="st2" width="31.5" height="31.5"/>
<rect x="37.5" y="161.7" class="st2" width="31.5" height="31.5"/>
<rect x="6" y="193.2" class="st3" width="31.5" height="31.5"/>
<rect x="37.5" y="224.7" class="st3" width="31.5" height="31.5"/>
<rect x="69" y="4.2" class="st4" width="31.5" height="31.5"/>
<rect x="100.5" y="35.7" class="st4" width="31.5" height="31.5"/>
<rect x="69" y="67.2" class="st0" width="31.5" height="31.5"/>
<rect x="100.5" y="98.7" class="st0" width="31.5" height="31.5"/>
<rect x="69" y="130.2" class="st1" width="31.5" height="31.5"/>
<rect x="100.5" y="161.7" class="st1" width="31.5" height="31.5"/>
<rect x="69" y="193.2" class="st2" width="31.5" height="31.5"/>
<rect x="100.5" y="224.7" class="st2" width="31.5" height="31.5"/>
<rect x="132" y="4.2" width="31.5" height="31.5"/>
<rect x="163.5" y="35.7" width="31.5" height="31.5"/>
<rect x="132" y="67.2" class="st4" width="31.5" height="31.5"/>
<rect x="163.5" y="98.7" class="st4" width="31.5" height="31.5"/>
<rect x="132" y="130.2" class="st0" width="31.5" height="31.5"/>
<rect x="163.5" y="161.7" class="st0" width="31.5" height="31.5"/>
<rect x="132" y="193.2" class="st1" width="31.5" height="31.5"/>
<rect x="163.5" y="224.7" class="st1" width="31.5" height="31.5"/>
<rect x="195" y="4.2" width="31.5" height="31.5"/>
<rect x="226.5" y="35.7" width="31.5" height="31.5"/>
<rect x="195" y="67.2" width="31.5" height="31.5"/>
<rect x="226.5" y="98.7" width="31.5" height="31.5"/>
<rect x="195" y="130.2" class="st4" width="31.5" height="31.5"/>
<rect x="226.5" y="161.7" class="st4" width="31.5" height="31.5"/>
<rect x="195" y="193.2" class="st0" width="31.5" height="31.5"/>
<rect x="226.5" y="224.7" class="st0" width="31.5" height="31.5"/>
<rect x="69" y="256.7" class="st3" width="31.5" height="31.5"/>
<rect x="132" y="256.7" class="st2" width="31.5" height="31.5"/>
<rect x="195" y="256.7" class="st1" width="31.5" height="31.5"/>
<rect x="258" y="3.9" width="31.5" height="31.5"/>
<rect x="258" y="66.9" width="31.5" height="31.5"/>
<rect x="258" y="129.9" width="31.5" height="31.5"/>
<rect x="258" y="192.9" class="st4" width="31.5" height="31.5"/>
<rect x="258" y="256.4" class="st0" width="31.5" height="31.5"/>
<rect x="6" y="256.4" class="st5" width="31.5" height="31.5"/>
</svg>
