<?xml version="1.0" encoding="utf-8"?>
<!-- Generator: Adobe Illustrator 18.0.0, SVG Export Plug-In . SVG Version: 6.00 Build 0)  -->
<!DOCTYPE svg PUBLIC "-//W3C//DTD SVG 1.1//EN" "http://www.w3.org/Graphics/SVG/1.1/DTD/svg11.dtd">
<svg version="1.1" id="Calque_1" xmlns="http://www.w3.org/2000/svg" xmlns:xlink="http://www.w3.org/1999/xlink" x="0px" y="0px"
	 viewBox="0 0 411.5 351.5" style="enable-background:new 0 0 411.5 351.5;" xml:space="preserve">
<polygon style="fill:none;stroke:#000000;stroke-miterlimit:10;" points="42.4,66.5 207.8,129.6 207.8,326.6 42.4,256.2 "/>
<polygon style="fill:none;stroke:#000000;stroke-miterlimit:10;" points="207.8,326.6 372.4,256.5 372.4,66.7 207.8,129.5 "/>
<polygon style="fill:#FFFFFF;stroke:#FFFFFF;stroke-miterlimit:10;" points="41,257.3 207.8,327.6 372.6,257.4 372.6,425 41,425 "/>
<line style="fill:none;stroke:#000000;stroke-miterlimit:10;" x1="11.5" y1="269.1" x2="33.3" y2="259.9"/>
<line style="fill:none;stroke:#000000;stroke-miterlimit:10;" x1="33.3" y1="268.3" x2="180.6" y2="332.3"/>
<line style="fill:none;stroke:#000000;stroke-miterlimit:10;" x1="174.9" y1="341.5" x2="196.6" y2="332.1"/>
<polygon style="fill:#FFFFFF;stroke:#000000;stroke-miterlimit:10;" points="42.9,66.7 207.1,4 371.7,66.9 207.6,129.5 "/>
<line style="fill:none;stroke:#000000;stroke-miterlimit:10;" x1="241.2" y1="340" x2="220" y2="331.2"/>
<line style="fill:none;stroke:#000000;stroke-miterlimit:10;" x1="402.6" y1="268.5" x2="381.4" y2="259.8"/>
<line style="fill:none;stroke:#000000;stroke-miterlimit:10;" x1="387.1" y1="267.3" x2="236.1" y2="331.7"/>
<polygon points="383.7,266.9 388.9,266.4 387.7,268.6 "/>
<polygon points="239.1,332.3 233.9,332.8 235.1,330.7 "/>
<polygon points="176.7,332.6 181.4,330.6 181.8,333.1 "/>
<polygon points="38,268.2 33.3,270.3 32.9,267.8 "/>
<line style="fill:none;stroke:#000000;stroke-miterlimit:10;" x1="26" y1="72.5" x2="26" y2="238.9"/>
<line style="fill:none;stroke:#000000;stroke-miterlimit:10;" x1="36.4" y1="65.7" x2="15.4" y2="57.7"/>
<polygon points="28,239.5 25.8,241.6 24,237.8 "/>
<polygon points="24,72.5 26.3,70.4 28,74.2 "/>
<g>
	<g>
		<line style="fill:none;stroke:#000000;stroke-miterlimit:10;" x1="42.9" y1="255.2" x2="44.3" y2="254.6"/>
		
			<line style="fill:none;stroke:#000000;stroke-miterlimit:10;stroke-dasharray:2.9834,2.9834;" x1="47.1" y1="253.4" x2="205" y2="186.5"/>
		<polyline style="fill:none;stroke:#000000;stroke-miterlimit:10;" points="206.4,185.9 207.8,185.3 209.1,185.9 		"/>
		
			<line style="fill:none;stroke:#000000;stroke-miterlimit:10;stroke-dasharray:2.9822,2.9822;" x1="211.9" y1="187" x2="369.7" y2="254.2"/>
		<line style="fill:none;stroke:#000000;stroke-miterlimit:10;" x1="371" y1="254.8" x2="372.4" y2="255.4"/>
	</g>
</g>
<line style="fill:none;stroke:#000000;stroke-miterlimit:10;" x1="34.5" y1="252.4" x2="13.6" y2="244.4"/>
<g>
	<g>
		<path d="M62.2,294.7l0.9,0.4c-0.5,0.2-0.7,0.5-0.7,0.7c0,0.3,0.2,0.5,0.8,0.8c0.6,0.3,1.3,0.4,2,0.4c0.7,0,1.3-0.1,1.9-0.3
			c0.6-0.2,0.8-0.5,0.8-0.8c0-0.3-0.3-0.6-0.9-0.8l-0.8-0.4l0.9-0.4l0.8,0.3c0.5,0.2,1.1,0.3,1.7,0.4c0.6,0,1.2-0.1,1.7-0.3
			c0.5-0.2,0.7-0.4,0.8-0.7c0-0.3-0.2-0.5-0.7-0.7c-0.3-0.1-0.5-0.2-0.8-0.3c-0.3-0.1-0.6-0.1-0.9-0.1c-0.3,0-0.6,0-0.8,0.1
			c-0.2,0-0.5,0.1-0.7,0.2l-0.9-0.4c0.3-0.1,0.7-0.2,1.1-0.3c0.4-0.1,0.8-0.1,1.3-0.1c0.4,0,0.9,0,1.4,0.1c0.5,0.1,0.9,0.2,1.3,0.4
			c0.8,0.3,1.1,0.7,1.1,1.1c0,0.4-0.3,0.7-1,1c-0.6,0.2-1.3,0.4-2.1,0.4c-0.8,0-1.4,0-1.8-0.2l0,0c0.2,0.1,0.3,0.2,0.4,0.3
			c0.1,0.1,0.2,0.3,0.2,0.4c0,0.2-0.1,0.3-0.3,0.5c-0.2,0.2-0.4,0.3-0.8,0.5c-0.8,0.3-1.8,0.5-2.8,0.4c-1.1,0-2-0.2-2.9-0.6
			c-0.4-0.2-0.7-0.4-0.9-0.6c-0.2-0.2-0.3-0.4-0.2-0.6c0-0.2,0.2-0.4,0.3-0.5C61.5,295,61.8,294.9,62.2,294.7z"/>
		<path d="M69.1,297.9l0.9,0.4c-0.5,0.2-0.7,0.5-0.6,0.7c0,0.3,0.3,0.5,0.8,0.7c0.2,0.1,0.5,0.2,0.8,0.2c0.3,0.1,0.7,0.1,1.1,0.1
			c0.4,0,0.8,0,1.2-0.1c0.4-0.1,0.8-0.2,1.2-0.3c0.7-0.3,1.1-0.6,1.1-0.9c0.1-0.3-0.2-0.6-0.7-0.9c-0.5-0.2-1-0.3-1.6-0.4
			c-0.6,0-1.1,0-1.6,0.1l-0.8-0.3l6-1.9l4.4,2l-0.9,0.4l-3.7-1.6l-3.4,1.1l0,0c0.3,0,0.7,0,1.3,0.1c0.5,0.1,1,0.2,1.4,0.4
			c0.8,0.3,1.1,0.8,1.1,1.2c-0.1,0.5-0.6,0.9-1.5,1.3c-1,0.4-2,0.6-3.2,0.5c-1.2,0-2.2-0.2-3-0.6c-0.4-0.2-0.7-0.4-0.9-0.6
			c-0.2-0.2-0.3-0.4-0.3-0.6c0-0.2,0.1-0.4,0.3-0.6C68.5,298.2,68.8,298.1,69.1,297.9z"/>
		<path d="M71.4,302.3l3.4-0.8l1,0.4l-3.8,0.6L71.4,302.3z"/>
		<path d="M80.1,301.2l0.8-0.3c1.4-0.6,2.8-0.9,4.1-1c1.3-0.1,2.4,0.1,3.4,0.5c0.9,0.4,1.2,0.9,0.9,1.4c-0.3,0.6-1.2,1.1-2.6,1.7
			l-0.8,0.3c-1.4,0.6-2.8,0.9-4.1,1c-1.3,0.1-2.4-0.1-3.4-0.5c-0.9-0.4-1.2-0.9-0.9-1.5C77.8,302.3,78.6,301.7,80.1,301.2z
			 M81,301.6c-1.2,0.5-1.9,0.9-2.2,1.3c-0.3,0.4-0.1,0.8,0.5,1c0.6,0.3,1.4,0.4,2.4,0.3c1-0.1,2.1-0.4,3.2-0.8l0.7-0.3
			c1.2-0.5,1.9-0.9,2.2-1.3c0.3-0.4,0.1-0.8-0.5-1c-0.6-0.3-1.4-0.4-2.4-0.3c-1,0.1-2.1,0.4-3.2,0.8L81,301.6z"/>
		<path d="M87.1,304.3l0.8-0.3c1.4-0.6,2.8-0.9,4.1-1c1.3-0.1,2.4,0.1,3.4,0.5c0.9,0.4,1.2,0.9,0.9,1.5c-0.3,0.6-1.2,1.1-2.6,1.7
			l-0.8,0.3c-1.4,0.6-2.8,0.9-4.1,1c-1.3,0.1-2.5-0.1-3.4-0.5c-0.9-0.4-1.2-0.9-0.9-1.5C84.8,305.5,85.7,304.9,87.1,304.3z
			 M88,304.8c-1.2,0.5-1.9,0.9-2.2,1.3c-0.3,0.4-0.1,0.8,0.5,1.1c0.6,0.3,1.4,0.4,2.4,0.3c1-0.1,2.1-0.4,3.3-0.9l0.7-0.3
			c1.2-0.5,1.9-0.9,2.2-1.3c0.3-0.4,0.1-0.8-0.5-1c-0.6-0.3-1.4-0.4-2.4-0.3c-1,0.1-2.1,0.4-3.3,0.9L88,304.8z"/>
		<path d="M95.7,309.2l0.9-0.4c1-0.4,2-0.6,3.1-0.7c1.1,0,2.1,0.1,2.9,0.5c0.4,0.2,0.7,0.4,0.9,0.6c0.2,0.2,0.3,0.4,0.3,0.6
			c0,0.2-0.1,0.3-0.2,0.5c-0.1,0.2-0.4,0.3-0.6,0.4l-0.9-0.4c0.3-0.2,0.4-0.3,0.4-0.6c0-0.2-0.2-0.4-0.7-0.6c-0.6-0.3-1.3-0.4-2-0.3
			c-0.8,0.1-1.5,0.2-2.2,0.5l-0.9,0.3c-0.7,0.3-1.1,0.6-1.2,0.9c-0.1,0.3,0.1,0.6,0.6,0.9c0.5,0.2,0.9,0.3,1.4,0.4
			c0.5,0,0.9,0,1.3-0.1l0.9,0.4c-0.3,0.1-0.6,0.2-0.9,0.2c-0.4,0-0.7,0.1-1.1,0.1c-0.4,0-0.8-0.1-1.3-0.2c-0.4-0.1-0.9-0.2-1.2-0.4
			c-0.9-0.4-1.2-0.8-1.1-1.3C94.1,310,94.7,309.6,95.7,309.2z"/>
		<path d="M99.2,313.6l7.3-3l0.9,0.4l-0.9,0.4l0.1,0c0.4-0.1,0.9-0.1,1.4,0c0.5,0,1,0.2,1.4,0.4c0.5,0.2,0.8,0.5,0.9,0.7
			c0.1,0.2,0,0.5-0.2,0.7l0,0c0.5-0.1,1-0.1,1.6,0c0.6,0.1,1.1,0.2,1.7,0.5c0.7,0.3,1,0.7,1,1c0,0.4-0.4,0.7-1.2,1l-5,2.1l-0.9-0.4
			l4.8-2c0.5-0.2,0.8-0.4,0.8-0.7c0-0.2-0.2-0.5-0.7-0.7c-0.5-0.2-1-0.3-1.7-0.3c-0.6,0-1.2,0.1-1.7,0.4l-4.7,1.9l-0.9-0.4l4.7-1.9
			c0.6-0.2,0.9-0.5,0.9-0.7c0-0.2-0.2-0.5-0.7-0.7c-0.5-0.2-1-0.3-1.6-0.3c-0.6,0-1.2,0.1-1.8,0.3l-4.7,1.9L99.2,313.6z"/>
	</g>
</g>
<g>
	<g>
		<path d="M304.2,318.9l0.9-0.4c0.5,0.2,1,0.2,1.6,0.2c0.6,0,1.2-0.1,1.7-0.4c0.6-0.3,0.9-0.5,1-0.8c0-0.3-0.2-0.5-0.7-0.7
			c-0.5-0.2-1.1-0.3-1.7-0.3c-0.6,0-1.2,0.2-1.8,0.4l-0.8,0.4l-0.8-0.4l0.8-0.3c0.5-0.2,0.8-0.4,0.8-0.7c0-0.3-0.2-0.5-0.6-0.7
			c-0.4-0.2-0.9-0.3-1.5-0.3c-0.6,0-1.1,0.1-1.6,0.3c-0.3,0.1-0.5,0.2-0.6,0.4c-0.1,0.1-0.2,0.2-0.2,0.4c0,0.1,0.1,0.2,0.2,0.3
			c0.1,0.1,0.2,0.2,0.4,0.3l-0.9,0.4c-0.3-0.1-0.5-0.2-0.6-0.4c-0.1-0.2-0.2-0.3-0.3-0.5c0-0.2,0.1-0.4,0.3-0.6
			c0.2-0.2,0.5-0.4,0.9-0.5c0.8-0.3,1.6-0.5,2.4-0.5c0.9,0,1.6,0.1,2.2,0.3c0.6,0.2,0.9,0.5,0.9,0.8c0,0.3-0.1,0.5-0.4,0.7l0,0
			c0.2-0.1,0.5-0.1,0.8-0.2c0.3,0,0.6-0.1,1-0.1c0.3,0,0.7,0,1.1,0.1c0.4,0.1,0.7,0.2,1.1,0.3c0.7,0.3,1,0.7,1,1.1
			c-0.1,0.4-0.5,0.8-1.4,1.2c-0.4,0.2-0.9,0.3-1.3,0.4c-0.5,0.1-0.9,0.1-1.3,0.1c-0.4,0-0.8,0-1.2-0.1
			C304.8,319.1,304.5,319,304.2,318.9z"/>
		<path d="M311.2,315.9l0.9-0.4c0.5,0.2,1.1,0.2,1.6,0.2c0.6,0,1.1-0.2,1.6-0.4c0.2-0.1,0.4-0.2,0.5-0.3c0.1-0.1,0.2-0.3,0.2-0.4
			c0-0.2,0-0.3-0.2-0.5c-0.2-0.2-0.4-0.3-0.7-0.4c-0.6-0.3-1.3-0.4-2-0.4c-0.7,0-1.4,0.1-1.9,0.3c-0.5,0.2-0.8,0.4-0.9,0.7
			c-0.1,0.2-0.1,0.4,0.1,0.6l-0.8,0.3l-4.3-2.2l4.4-1.9l0.8,0.3l-3.6,1.5l2.5,1.3l0,0c-0.1-0.1,0-0.3,0.2-0.5
			c0.2-0.2,0.5-0.4,0.9-0.6c0.8-0.3,1.7-0.5,2.7-0.5c1,0,2,0.2,2.8,0.5c0.8,0.4,1.2,0.8,1.2,1.2c0,0.5-0.4,0.9-1.3,1.2
			c-0.4,0.2-0.8,0.3-1.3,0.4c-0.5,0.1-0.9,0.1-1.3,0.1c-0.4,0-0.8,0-1.2-0.1C311.9,316.1,311.5,316,311.2,315.9z"/>
		<path d="M320.9,314.7l-1.7-1.3l1-0.4l1.4,1.4L320.9,314.7z"/>
		<path d="M318.3,311.3l-0.7-0.3c-1.2-0.5-2-1-2.2-1.5c-0.2-0.5,0.1-1,1-1.3c0.9-0.4,1.9-0.5,3.1-0.4c1.2,0.1,2.4,0.4,3.6,0.9
			l0.7,0.3c1.2,0.5,2,1,2.2,1.5c0.2,0.5-0.1,1-1,1.3c-0.9,0.4-1.9,0.5-3.1,0.4C320.8,312.2,319.6,311.9,318.3,311.3z M319.2,311
			c1,0.4,2,0.7,2.9,0.8c0.9,0.1,1.6,0,2.2-0.2c0.6-0.3,0.8-0.6,0.6-1c-0.2-0.4-0.8-0.8-1.8-1.2l-0.6-0.3c-1-0.4-2-0.7-2.9-0.8
			c-0.9-0.1-1.7,0-2.3,0.2c-0.6,0.3-0.8,0.6-0.6,1c0.2,0.4,0.8,0.8,1.8,1.2L319.2,311z"/>
		<path d="M325.1,308.4l-0.7-0.3c-1.2-0.5-2-1-2.2-1.5c-0.2-0.5,0.1-0.9,1-1.3c0.9-0.4,1.9-0.5,3.1-0.4c1.2,0.1,2.4,0.4,3.6,0.9
			l0.7,0.3c1.2,0.5,2,1,2.2,1.5c0.2,0.5-0.1,0.9-1,1.3c-0.9,0.4-1.9,0.5-3.1,0.4C327.6,309.3,326.4,308.9,325.1,308.4z M326,308
			c1,0.4,2,0.7,2.9,0.8c0.9,0.1,1.6,0,2.2-0.2c0.6-0.3,0.8-0.6,0.6-1c-0.2-0.4-0.8-0.8-1.8-1.2l-0.6-0.3c-1-0.4-2-0.7-2.9-0.8
			c-0.9-0.1-1.6,0-2.2,0.2c-0.6,0.3-0.8,0.6-0.6,1c0.2,0.4,0.8,0.8,1.8,1.2L326,308z"/>
		<path d="M335.4,304.9l-0.8-0.3c-0.8-0.4-1.3-0.7-1.4-1.2c-0.1-0.4,0.3-0.8,1.1-1.1c0.4-0.2,0.7-0.3,1.2-0.4
			c0.4-0.1,0.8-0.1,1.2-0.1c0.4,0,0.7,0,1,0.1c0.3,0,0.6,0.1,0.8,0.2l-0.9,0.4c-0.3-0.1-0.7-0.1-1.2-0.1c-0.5,0-0.9,0.1-1.3,0.3
			c-0.5,0.2-0.8,0.5-0.6,0.8c0.1,0.3,0.5,0.6,1.1,0.8l0.7,0.3c0.6,0.3,1.2,0.4,1.9,0.4c0.7,0,1.3-0.1,1.8-0.3
			c0.4-0.2,0.7-0.4,0.7-0.5c0.1-0.2,0-0.3-0.2-0.5l0.9-0.4c0.2,0.1,0.4,0.2,0.5,0.3c0.1,0.1,0.1,0.3,0.1,0.4c0,0.2-0.1,0.3-0.3,0.5
			c-0.2,0.2-0.5,0.3-0.8,0.5c-0.8,0.3-1.7,0.5-2.7,0.5C337.2,305.4,336.3,305.2,335.4,304.9z"/>
		<path d="M344.5,303.3l-6.3-2.6l0.9-0.4l0.8,0.3l0,0c-0.1-0.1-0.2-0.3-0.1-0.5c0.1-0.2,0.3-0.4,0.7-0.5c0.5-0.2,0.9-0.3,1.4-0.4
			c0.5-0.1,1,0,1.4,0.1l0,0c-0.2-0.2-0.2-0.4-0.1-0.6c0.1-0.2,0.4-0.4,0.9-0.6c0.6-0.3,1.3-0.4,2.1-0.4c0.7,0,1.4,0.1,2.1,0.4
			l4.3,1.8l-0.9,0.4l-4.1-1.7c-0.4-0.2-0.9-0.3-1.4-0.3c-0.5,0-1,0.1-1.4,0.3c-0.5,0.2-0.7,0.4-0.6,0.6c0,0.2,0.3,0.4,0.8,0.6l4,1.7
			l-0.9,0.4l-4-1.7c-0.5-0.2-1-0.3-1.5-0.3s-1,0.1-1.4,0.3c-0.4,0.2-0.6,0.4-0.6,0.6c0,0.2,0.3,0.4,0.7,0.7l4,1.7L344.5,303.3z"/>
	</g>
</g>
<g>
	<g>
		<path d="M18.6,178.2l-0.6-0.2c-0.4-0.5-0.8-1.1-1.2-1.7c-0.4-0.6-1-1.5-1.6-2.4c-0.7-1-1.1-1.6-1.2-1.8v-1.6l4,1.7v-1.3l0.6,0.2
			v1.3l1.3,0.5v1l-1.3-0.5V178.2z M18,176.8v-3.7l-3.5-1.5v0C15.9,173.8,17.1,175.5,18,176.8L18,176.8z"/>
		<path d="M15.6,168.4L15.6,168.4c-0.2-0.1-0.5-0.3-0.7-0.5c-0.2-0.2-0.4-0.5-0.5-0.8c-0.2-0.3-0.3-0.7-0.4-1.1
			c-0.1-0.4-0.1-0.9-0.1-1.4c0-0.9,0.1-1.6,0.4-2c0.3-0.4,0.7-0.5,1.1-0.3c0.2,0.1,0.3,0.2,0.5,0.3c0.2,0.1,0.3,0.3,0.4,0.5
			c0.1,0.2,0.3,0.4,0.4,0.6c0.1,0.2,0.3,0.5,0.4,0.8c0,0.1,0.1,0.1,0.1,0.1l2,3.7l0,0v-4.7l0.6,0.2v6.2l-0.4-0.2l-2.6-4.8
			c-0.1-0.2-0.2-0.4-0.3-0.5c-0.1-0.1-0.2-0.3-0.3-0.5c-0.1-0.2-0.2-0.3-0.4-0.4c-0.1-0.1-0.3-0.2-0.4-0.3c-0.3-0.1-0.6-0.1-0.8,0.2
			c-0.2,0.3-0.3,0.7-0.3,1.2c0,0.6,0.1,1.1,0.3,1.6c0.2,0.4,0.5,0.7,0.8,0.9l0,0V168.4z"/>
		<path d="M20.9,163.1l-1.7-1.5v-1.2l1.7,1.9V163.1z"/>
		<path d="M17.2,158.4l-0.5-0.2c-0.9-0.4-1.6-0.9-2.1-1.7c-0.5-0.8-0.8-1.7-0.8-2.8c0-1.1,0.3-1.8,0.8-2.2c0.5-0.4,1.2-0.4,2.1,0
			l0.5,0.2c0.9,0.4,1.6,0.9,2.1,1.7c0.5,0.8,0.8,1.7,0.8,2.8s-0.3,1.8-0.8,2.2C18.8,158.7,18.1,158.7,17.2,158.4z M17.2,157.3
			c0.7,0.3,1.3,0.3,1.7,0.1c0.4-0.2,0.6-0.7,0.6-1.5s-0.2-1.4-0.6-2c-0.4-0.6-1-1-1.7-1.3l-0.5-0.2c-0.7-0.3-1.3-0.3-1.7-0.1
			c-0.4,0.2-0.6,0.7-0.6,1.5c0,0.7,0.2,1.4,0.6,1.9c0.4,0.6,1,1,1.7,1.3L17.2,157.3z"/>
		<path d="M17.2,150.1l-0.5-0.2c-0.9-0.4-1.6-0.9-2.1-1.7c-0.5-0.8-0.8-1.7-0.8-2.8c0-1.1,0.3-1.8,0.8-2.2c0.5-0.4,1.2-0.4,2.1,0
			l0.5,0.2c0.9,0.4,1.6,0.9,2.1,1.7c0.5,0.8,0.8,1.7,0.8,2.8s-0.3,1.8-0.8,2.2C18.8,150.5,18.1,150.5,17.2,150.1z M17.2,149.1
			c0.7,0.3,1.3,0.3,1.7,0.1c0.4-0.2,0.6-0.7,0.6-1.5s-0.2-1.4-0.6-1.9c-0.4-0.6-1-1-1.7-1.3l-0.5-0.2c-0.7-0.3-1.3-0.3-1.7-0.1
			c-0.4,0.2-0.6,0.7-0.6,1.5c0,0.7,0.2,1.4,0.6,1.9c0.4,0.6,1,1,1.7,1.3L17.2,149.1z"/>
		<path d="M17.9,139.2l-0.6-0.2c-0.6-0.2-1.1-0.7-1.5-1.4c-0.4-0.7-0.6-1.5-0.6-2.5c0-0.4,0-0.8,0.1-1.2c0.1-0.3,0.2-0.6,0.3-0.8
			c0.1-0.2,0.3-0.3,0.4-0.4c0.2-0.1,0.3-0.1,0.5,0v1.1c-0.2,0-0.4,0.1-0.6,0.3c-0.2,0.2-0.2,0.6-0.2,1.1c0,0.7,0.1,1.2,0.4,1.7
			c0.3,0.5,0.7,0.8,1.1,1l0.5,0.2c0.4,0.2,0.8,0.1,1.1-0.1c0.3-0.3,0.4-0.7,0.4-1.3c0-0.5-0.1-1-0.2-1.3c-0.1-0.4-0.3-0.6-0.5-0.8
			v-1.1c0.2,0.1,0.3,0.2,0.5,0.4c0.2,0.2,0.3,0.4,0.4,0.7c0.1,0.3,0.2,0.6,0.3,1c0.1,0.4,0.1,0.8,0.1,1.3c0,1-0.2,1.7-0.6,2
			C19,139.3,18.5,139.4,17.9,139.2z"/>
		<path d="M19.9,132.2l-4.5-1.8v-1.1l0.6,0.2v-0.1c-0.2-0.2-0.3-0.5-0.5-0.9c-0.1-0.4-0.2-0.8-0.2-1.3c0-0.6,0.1-1,0.2-1.3
			c0.1-0.3,0.3-0.5,0.6-0.6v-0.1c-0.2-0.2-0.4-0.6-0.5-1c-0.1-0.5-0.2-1-0.2-1.6c0-0.8,0.1-1.4,0.4-1.7c0.3-0.3,0.6-0.4,1.1-0.2
			l3.1,1.2v1.1l-3-1.2c-0.3-0.1-0.6-0.1-0.8,0.1c-0.2,0.2-0.3,0.6-0.3,1.2c0,0.6,0.1,1,0.3,1.4c0.2,0.4,0.5,0.7,0.8,0.8l2.9,1.2v1.1
			l-2.9-1.2c-0.4-0.1-0.6-0.1-0.8,0.1c-0.2,0.2-0.3,0.6-0.3,1.2c0,0.5,0.1,1,0.3,1.4c0.2,0.4,0.5,0.7,0.8,0.8l2.9,1.2V132.2z"/>
	</g>
</g>
</svg>
